STARTFONT 2.1
FONT -Baekmuk-Gulim-Medium-R-Normal--18-180-75-75-M-180-ksx1001.1997-0
SIZE 18 75 75
FONTBOUNDINGBOX 18 19 0 -4
STARTPROPERTIES 18
FOUNDRY "Baekmuk"
FAMILY_NAME "Gulim"
WEIGHT_NAME "Medium"
SLANT "R"
SETWIDTH_NAME "Normal"
ADD_STYLE_NAME ""
PIXEL_SIZE 18
POINT_SIZE 180
RESOLUTION_X 75
RESOLUTION_Y 75
SPACING "M"
AVERAGE_WIDTH 180
CHARSET_REGISTRY "ksx1001.1997"
CHARSET_ENCODING "0"
DEFAULT_CHAR 8481
FONT_ASCENT 14
FONT_DESCENT 3
COPYRIGHT "(c)Hwan Design Inc. and Mizi Research Inc."
ENDPROPERTIES
CHARS 8224
STARTCHAR 3000
ENCODING 8481
SWIDTH 1800 0
DWIDTH 18 0
BBX 0 0 0 0
BITMAP
ENDCHAR
STARTCHAR 3001
ENCODING 8482
SWIDTH 1800 0
DWIDTH 18 0
BBX 3 3 12 10
BITMAP
C0
60
20
ENDCHAR
STARTCHAR 3002
ENCODING 8483
SWIDTH 1800 0
DWIDTH 18 0
BBX 3 4 12 10
BITMAP
E0
20
20
C0
ENDCHAR
STARTCHAR 00B7
ENCODING 8484
SWIDTH 1800 0
DWIDTH 18 0
BBX 2 3 8 4
BITMAP
C0
C0
C0
ENDCHAR
STARTCHAR 2025
ENCODING 8485
SWIDTH 1800 0
DWIDTH 18 0
BBX 9 3 4 4
BITMAP
0080
C180
4080
ENDCHAR
STARTCHAR 2026
ENCODING 8486
SWIDTH 1800 0
DWIDTH 18 0
BBX 11 2 4 4
BITMAP
8420
8420
ENDCHAR
STARTCHAR 00A8
ENCODING 8487
SWIDTH 1800 0
DWIDTH 18 0
BBX 6 1 6 10
BITMAP
84
ENDCHAR
STARTCHAR 3003
ENCODING 8488
SWIDTH 1800 0
DWIDTH 18 0
BBX 5 7 6 2
BITMAP
28
28
68
48
50
90
10
ENDCHAR
STARTCHAR 00AD
ENCODING 8489
SWIDTH 1800 0
DWIDTH 18 0
BBX 8 1 5 5
BITMAP
FF
ENDCHAR
STARTCHAR 2015
ENCODING 8490
SWIDTH 1800 0
DWIDTH 18 0
BBX 16 1 1 5
BITMAP
FFFF
ENDCHAR
STARTCHAR 2225
ENCODING 8491
SWIDTH 1800 0
DWIDTH 18 0
BBX 4 13 7 0
BITMAP
90
90
90
90
90
90
90
90
90
90
90
90
90
ENDCHAR
STARTCHAR FF3C
ENCODING 8492
SWIDTH 1800 0
DWIDTH 18 0
BBX 13 15 2 -2
BITMAP
8000
4000
6000
3000
1000
0800
0400
0200
0100
0080
0040
0020
0010
0018
0008
ENDCHAR
STARTCHAR 223C
ENCODING 8493
SWIDTH 1800 0
DWIDTH 18 0
BBX 9 3 4 4
BITMAP
7000
8C80
0700
ENDCHAR
STARTCHAR 2018
ENCODING 8494
SWIDTH 1800 0
DWIDTH 18 0
BBX 2 4 11 9
BITMAP
40
80
C0
40
ENDCHAR
STARTCHAR 2019
ENCODING 8495
SWIDTH 1800 0
DWIDTH 18 0
BBX 2 4 4 10
BITMAP
C0
C0
40
80
ENDCHAR
STARTCHAR 201C
ENCODING 8496
SWIDTH 1800 0
DWIDTH 18 0
BBX 5 4 10 10
BITMAP
48
90
98
D8
ENDCHAR
STARTCHAR 201D
ENCODING 8497
SWIDTH 1800 0
DWIDTH 18 0
BBX 6 3 2 11
BITMAP
CC
48
48
ENDCHAR
STARTCHAR 3014
ENCODING 8498
SWIDTH 1800 0
DWIDTH 18 0
BBX 4 17 13 -3
BITMAP
30
C0
80
80
80
80
80
80
80
80
80
80
80
80
80
C0
70
ENDCHAR
STARTCHAR 3015
ENCODING 8499
SWIDTH 1800 0
DWIDTH 18 0
BBX 3 17 2 -3
BITMAP
80
60
20
20
20
20
20
20
20
20
20
20
20
20
20
20
C0
ENDCHAR
STARTCHAR 3008
ENCODING 8500
SWIDTH 1800 0
DWIDTH 18 0
BBX 6 15 10 -2
BITMAP
04
08
10
10
20
40
40
80
80
40
20
20
10
08
08
ENDCHAR
STARTCHAR 3009
ENCODING 8501
SWIDTH 1800 0
DWIDTH 18 0
BBX 6 15 2 -2
BITMAP
80
40
40
20
10
10
08
04
08
10
10
20
40
40
80
ENDCHAR
STARTCHAR 300A
ENCODING 8502
SWIDTH 1800 0
DWIDTH 18 0
BBX 7 16 9 -3
BITMAP
0A
14
14
28
28
50
50
A0
90
50
48
28
14
14
0A
08
ENDCHAR
STARTCHAR 300B
ENCODING 8503
SWIDTH 1800 0
DWIDTH 18 0
BBX 6 15 2 -2
BITMAP
A0
A0
50
50
28
28
14
14
14
28
28
50
50
A0
A0
ENDCHAR
STARTCHAR 300C
ENCODING 8504
SWIDTH 1800 0
DWIDTH 18 0
BBX 6 8 11 6
BITMAP
FC
80
80
80
80
80
80
80
ENDCHAR
STARTCHAR 300D
ENCODING 8505
SWIDTH 1800 0
DWIDTH 18 0
BBX 6 8 1 -3
BITMAP
04
04
04
04
04
04
04
FC
ENDCHAR
STARTCHAR 300E
ENCODING 8506
SWIDTH 1800 0
DWIDTH 18 0
BBX 7 8 11 6
BITMAP
FE
86
B8
A0
A0
A0
A0
E0
ENDCHAR
STARTCHAR 300F
ENCODING 8507
SWIDTH 1800 0
DWIDTH 18 0
BBX 5 9 1 -4
BITMAP
18
18
18
18
18
18
E8
88
70
ENDCHAR
STARTCHAR 3010
ENCODING 8508
SWIDTH 1800 0
DWIDTH 18 0
BBX 3 16 11 -2
BITMAP
E0
C0
C0
C0
80
80
80
80
80
80
80
80
C0
C0
C0
E0
ENDCHAR
STARTCHAR 3011
ENCODING 8509
SWIDTH 1800 0
DWIDTH 18 0
BBX 3 16 3 -2
BITMAP
E0
60
60
20
20
20
20
20
20
20
20
20
60
60
60
E0
ENDCHAR
STARTCHAR 00B1
ENCODING 8510
SWIDTH 1800 0
DWIDTH 18 0
BBX 11 12 3 0
BITMAP
0400
0400
0400
0400
0400
FFE0
0400
0400
0400
0400
0400
7FE0
ENDCHAR
STARTCHAR 00D7
ENCODING 8511
SWIDTH 1800 0
DWIDTH 18 0
BBX 10 11 4 0
BITMAP
8040
C080
4100
2200
1400
0C00
1C00
1200
2100
4080
8080
ENDCHAR
STARTCHAR 00F7
ENCODING 8512
SWIDTH 1800 0
DWIDTH 18 0
BBX 11 10 3 0
BITMAP
0200
0200
0000
0000
FFE0
0000
0000
0000
0200
0200
ENDCHAR
STARTCHAR 2260
ENCODING 8513
SWIDTH 1800 0
DWIDTH 18 0
BBX 12 12 3 -1
BITMAP
0800
0800
0800
0400
FFF0
0400
0400
FFF0
0200
0200
0100
0100
ENDCHAR
STARTCHAR 2264
ENCODING 8514
SWIDTH 1800 0
DWIDTH 18 0
BBX 10 11 4 0
BITMAP
0040
0180
0600
3800
E000
E000
3800
0700
01C0
0000
FFC0
ENDCHAR
STARTCHAR 2265
ENCODING 8515
SWIDTH 1800 0
DWIDTH 18 0
BBX 11 11 3 0
BITMAP
4000
7000
1C00
0300
00C0
00C0
0700
1800
6000
0000
FFE0
ENDCHAR
STARTCHAR 221E
ENCODING 8516
SWIDTH 1800 0
DWIDTH 18 0
BBX 13 7 2 2
BITMAP
78F0
4518
8308
8208
8308
4518
78F0
ENDCHAR
STARTCHAR 2234
ENCODING 8517
SWIDTH 1800 0
DWIDTH 18 0
BBX 8 8 5 2
BITMAP
10
10
00
00
00
00
81
81
ENDCHAR
STARTCHAR 00B0
ENCODING 8518
SWIDTH 1800 0
DWIDTH 18 0
BBX 4 4 2 10
BITMAP
F0
90
90
60
ENDCHAR
STARTCHAR 2032
ENCODING 8519
SWIDTH 1800 0
DWIDTH 18 0
BBX 3 4 2 10
BITMAP
60
40
40
80
ENDCHAR
STARTCHAR 2033
ENCODING 8520
SWIDTH 1800 0
DWIDTH 18 0
BBX 6 4 2 10
BITMAP
6C
68
48
90
ENDCHAR
STARTCHAR 2103
ENCODING 8521
SWIDTH 1800 0
DWIDTH 18 0
BBX 12 13 3 0
BITMAP
4000
A7C0
AC60
4820
1020
1020
1000
1000
1000
1010
0820
0C60
07C0
ENDCHAR
STARTCHAR 212B
ENCODING 8522
SWIDTH 1800 0
DWIDTH 18 0
BBX 9 14 4 0
BITMAP
0800
1400
1400
0800
0C00
0C00
1400
1200
2200
2100
7F00
4100
4080
8080
ENDCHAR
STARTCHAR FFE0
ENCODING 8523
SWIDTH 1800 0
DWIDTH 18 0
BBX 14 15 2 -2
BITMAP
0384
0C68
1030
1030
2050
2080
2080
2100
2200
3410
1810
1820
27C0
4000
8000
ENDCHAR
STARTCHAR FFE1
ENCODING 8524
SWIDTH 1800 0
DWIDTH 18 0
BBX 10 12 4 0
BITMAP
0F80
1080
1080
1000
1000
7F80
0800
0800
0800
F840
9C40
7380
ENDCHAR
STARTCHAR FFE5
ENCODING 8525
SWIDTH 1800 0
DWIDTH 18 0
BBX 11 13 3 0
BITMAP
2080
2080
1100
FFE0
1900
0A00
0E00
FFE0
0400
0400
0400
0400
0400
ENDCHAR
STARTCHAR 2642
ENCODING 8526
SWIDTH 1800 0
DWIDTH 18 0
BBX 7 15 5 -2
BITMAP
10
30
38
54
94
92
10
10
10
38
44
42
42
66
3C
ENDCHAR
STARTCHAR 2640
ENCODING 8527
SWIDTH 1800 0
DWIDTH 18 0
BBX 11 15 3 -2
BITMAP
0F00
1980
1080
1080
1080
0F00
0400
0400
FFE0
0400
0400
0400
0400
0400
0400
ENDCHAR
STARTCHAR 2220
ENCODING 8528
SWIDTH 1800 0
DWIDTH 18 0
BBX 11 11 3 0
BITMAP
0040
0080
0100
0300
0600
0C00
0800
1000
2000
4000
FFE0
ENDCHAR
STARTCHAR 22A5
ENCODING 8529
SWIDTH 1800 0
DWIDTH 18 0
BBX 10 10 4 0
BITMAP
0800
0800
0800
0800
0800
0800
0800
0800
0800
FFC0
ENDCHAR
STARTCHAR 2312
ENCODING 8530
SWIDTH 1800 0
DWIDTH 18 0
BBX 10 3 4 10
BITMAP
3F00
C180
8040
ENDCHAR
STARTCHAR 2202
ENCODING 8531
SWIDTH 1800 0
DWIDTH 18 0
BBX 7 13 5 0
BITMAP
18
7C
46
02
02
02
3E
46
86
84
84
C8
78
ENDCHAR
STARTCHAR 2207
ENCODING 8532
SWIDTH 1800 0
DWIDTH 18 0
BBX 12 10 3 1
BITMAP
FFF0
C020
4060
2040
2080
1080
1100
0B00
0600
0600
ENDCHAR
STARTCHAR 2261
ENCODING 8533
SWIDTH 1800 0
DWIDTH 18 0
BBX 12 7 3 2
BITMAP
FFF0
0000
0000
FFF0
0000
0000
FFF0
ENDCHAR
STARTCHAR 2252
ENCODING 8534
SWIDTH 1800 0
DWIDTH 18 0
BBX 12 10 3 0
BITMAP
1000
1000
FFF0
0000
0000
0000
FFF0
0000
0040
0040
ENDCHAR
STARTCHAR 00A7
ENCODING 8535
SWIDTH 1800 0
DWIDTH 18 0
BBX 6 15 6 -2
BITMAP
70
88
88
C0
60
F8
8C
84
44
38
18
04
44
64
38
ENDCHAR
STARTCHAR 203B
ENCODING 8536
SWIDTH 1800 0
DWIDTH 18 0
BBX 10 12 4 0
BITMAP
0040
8480
4500
2600
1200
8D00
8D00
9300
2100
4500
8480
0040
ENDCHAR
STARTCHAR 2606
ENCODING 8537
SWIDTH 1800 0
DWIDTH 18 0
BBX 14 15 2 -3
BITMAP
0200
0200
0300
0500
0500
FCFC
4018
3020
1040
1040
1240
2520
28E0
3060
4000
ENDCHAR
STARTCHAR 2605
ENCODING 8538
SWIDTH 1800 0
DWIDTH 18 0
BBX 12 13 3 -2
BITMAP
0400
0600
0E00
0E00
FFF0
7FE0
3FC0
1F80
1F80
3F80
3980
2080
4040
ENDCHAR
STARTCHAR 25CB
ENCODING 8539
SWIDTH 1800 0
DWIDTH 18 0
BBX 13 14 2 -2
BITMAP
0F80
3060
4030
4010
8008
8008
8008
8008
8008
8008
4010
4030
3060
0F80
ENDCHAR
STARTCHAR 25CF
ENCODING 8540
SWIDTH 1800 0
DWIDTH 18 0
BBX 13 14 2 -2
BITMAP
0F80
1FE0
3FE0
7FF0
7FF0
7FF8
FFF8
FFF8
7FF8
7FF0
7FF0
3FE0
1FE0
0F80
ENDCHAR
STARTCHAR 25CE
ENCODING 8541
SWIDTH 1800 0
DWIDTH 18 0
BBX 13 14 2 -2
BITMAP
0F80
3060
47B0
4850
9028
9028
9028
9028
9028
8848
4790
4030
3060
0F80
ENDCHAR
STARTCHAR 25C7
ENCODING 8542
SWIDTH 1800 0
DWIDTH 18 0
BBX 14 15 2 -2
BITMAP
0300
0500
0880
1840
3020
6010
4008
8004
4008
2010
2020
1040
0880
0500
0200
ENDCHAR
STARTCHAR 25C6
ENCODING 8543
SWIDTH 1800 0
DWIDTH 18 0
BBX 14 15 2 -2
BITMAP
0200
0700
0F80
0FC0
1FE0
3FF0
7FF8
FFFC
7FF8
3FF0
1FE0
1FC0
0F80
0700
0200
ENDCHAR
STARTCHAR 25A1
ENCODING 8544
SWIDTH 1800 0
DWIDTH 18 0
BBX 12 13 3 -1
BITMAP
FFF0
8010
8010
8010
8010
8010
8010
8010
8010
8010
8010
8010
FFF0
ENDCHAR
STARTCHAR 25A0
ENCODING 8545
SWIDTH 1800 0
DWIDTH 18 0
BBX 12 13 3 -1
BITMAP
FFF0
FFF0
FFF0
FFF0
FFF0
FFF0
FFF0
FFF0
FFF0
FFF0
FFF0
FFF0
FFF0
ENDCHAR
STARTCHAR 25B3
ENCODING 8546
SWIDTH 1800 0
DWIDTH 18 0
BBX 12 11 3 0
BITMAP
0400
0600
0A00
0900
1080
2080
2040
4040
4020
8020
FFF0
ENDCHAR
STARTCHAR 25B2
ENCODING 8547
SWIDTH 1800 0
DWIDTH 18 0
BBX 12 11 3 0
BITMAP
0400
0600
0E00
0F00
1F80
3F80
3FC0
7FC0
7FE0
FFE0
FFF0
ENDCHAR
STARTCHAR 25BD
ENCODING 8548
SWIDTH 1800 0
DWIDTH 18 0
BBX 12 11 3 0
BITMAP
FFF0
8020
4020
4040
2040
2080
1100
0900
0A00
0600
0400
ENDCHAR
STARTCHAR 25BC
ENCODING 8549
SWIDTH 1800 0
DWIDTH 18 0
BBX 12 10 3 1
BITMAP
FFF0
FFE0
7FE0
7FC0
3FC0
1F80
1F00
0F00
0600
0400
ENDCHAR
STARTCHAR 2192
ENCODING 8550
SWIDTH 1800 0
DWIDTH 18 0
BBX 14 5 2 3
BITMAP
0020
0010
FFFC
0010
0020
ENDCHAR
STARTCHAR 2190
ENCODING 8551
SWIDTH 1800 0
DWIDTH 18 0
BBX 14 5 2 3
BITMAP
1000
2000
FFFC
2000
1000
ENDCHAR
STARTCHAR 2191
ENCODING 8552
SWIDTH 1800 0
DWIDTH 18 0
BBX 3 14 8 -2
BITMAP
40
E0
E0
40
40
40
40
40
40
40
40
40
40
40
ENDCHAR
STARTCHAR 2193
ENCODING 8553
SWIDTH 1800 0
DWIDTH 18 0
BBX 5 15 7 -3
BITMAP
20
20
20
20
20
20
20
20
20
20
20
A8
70
70
20
ENDCHAR
STARTCHAR 2194
ENCODING 8554
SWIDTH 1800 0
DWIDTH 18 0
BBX 13 5 2 3
BITMAP
0020
4010
FFF8
4010
2000
ENDCHAR
STARTCHAR 3013
ENCODING 8555
SWIDTH 1800 0
DWIDTH 18 0
BBX 12 5 3 3
BITMAP
FFF0
0000
0000
0000
FFF0
ENDCHAR
STARTCHAR 226A
ENCODING 8556
SWIDTH 1800 0
DWIDTH 18 0
BBX 12 13 3 -1
BITMAP
0090
0330
0640
0880
3300
6400
8800
4400
3200
0980
0440
0320
0090
ENDCHAR
STARTCHAR 226B
ENCODING 8557
SWIDTH 1800 0
DWIDTH 18 0
BBX 13 12 2 -1
BITMAP
CC00
2200
1980
0CC0
0220
0198
0130
0640
0C80
1300
2600
C800
ENDCHAR
STARTCHAR 221A
ENCODING 8558
SWIDTH 1800 0
DWIDTH 18 0
BBX 14 16 2 -2
BITMAP
01FC
0100
0100
0200
0200
0200
0400
0400
0400
0800
4800
A800
2800
3000
1000
1000
ENDCHAR
STARTCHAR 223D
ENCODING 8559
SWIDTH 1800 0
DWIDTH 18 0
BBX 13 7 2 2
BITMAP
78F0
C990
8308
8208
8408
CC98
78F0
ENDCHAR
STARTCHAR 221D
ENCODING 8560
SWIDTH 1800 0
DWIDTH 18 0
BBX 11 7 3 2
BITMAP
78E0
4D00
8600
8200
8600
CD00
78E0
ENDCHAR
STARTCHAR 2235
ENCODING 8561
SWIDTH 1800 0
DWIDTH 18 0
BBX 8 8 4 1
BITMAP
81
81
00
00
00
00
08
08
ENDCHAR
STARTCHAR 222B
ENCODING 8562
SWIDTH 1800 0
DWIDTH 18 0
BBX 7 13 5 0
BITMAP
0E
0A
12
10
10
10
10
10
10
10
10
A0
E0
ENDCHAR
STARTCHAR 222C
ENCODING 8563
SWIDTH 1800 0
DWIDTH 18 0
BBX 11 13 3 0
BITMAP
0CE0
12A0
1080
1100
1100
1100
1100
1100
1100
1100
2100
A900
E600
ENDCHAR
STARTCHAR 2208
ENCODING 8564
SWIDTH 1800 0
DWIDTH 18 0
BBX 12 10 3 0
BITMAP
1FF0
6000
4000
8000
FFF0
8000
8000
4000
6000
1FF0
ENDCHAR
STARTCHAR 220B
ENCODING 8565
SWIDTH 1800 0
DWIDTH 18 0
BBX 12 10 2 0
BITMAP
FFC0
0060
0010
0010
FFF0
0010
0010
0020
0060
FF80
ENDCHAR
STARTCHAR 2286
ENCODING 8566
SWIDTH 1800 0
DWIDTH 18 0
BBX 10 11 4 0
BITMAP
1FC0
6000
8000
8000
8000
8000
C000
7FC0
0000
0000
FFC0
ENDCHAR
STARTCHAR 2287
ENCODING 8567
SWIDTH 1800 0
DWIDTH 18 0
BBX 11 11 3 0
BITMAP
7F00
00C0
0020
0020
0020
0020
0040
7F80
0000
0000
FFE0
ENDCHAR
STARTCHAR 2282
ENCODING 8568
SWIDTH 1800 0
DWIDTH 18 0
BBX 12 10 3 0
BITMAP
1FF0
6000
4000
8000
8000
8000
8000
C000
6000
3FF0
ENDCHAR
STARTCHAR 2283
ENCODING 8569
SWIDTH 1800 0
DWIDTH 18 0
BBX 12 10 2 0
BITMAP
FFC0
0060
0030
0010
0010
0010
0010
0030
0020
FFC0
ENDCHAR
STARTCHAR 222A
ENCODING 8570
SWIDTH 1800 0
DWIDTH 18 0
BBX 9 12 5 0
BITMAP
8080
8080
8080
8080
8080
8080
8080
8080
8100
8100
4300
3C00
ENDCHAR
STARTCHAR 2229
ENCODING 8571
SWIDTH 1800 0
DWIDTH 18 0
BBX 8 13 5 0
BITMAP
3C
42
81
81
81
81
81
81
81
81
81
81
81
ENDCHAR
STARTCHAR 2227
ENCODING 8572
SWIDTH 1800 0
DWIDTH 18 0
BBX 10 10 4 0
BITMAP
0C00
0C00
1200
1200
2100
2100
4080
4080
8040
8040
ENDCHAR
STARTCHAR 2228
ENCODING 8573
SWIDTH 1800 0
DWIDTH 18 0
BBX 10 10 4 1
BITMAP
8040
8040
4080
4080
2100
2100
1200
1200
0C00
0C00
ENDCHAR
STARTCHAR FFE2
ENCODING 8574
SWIDTH 1800 0
DWIDTH 18 0
BBX 10 7 4 2
BITMAP
FFC0
0040
0040
0040
0040
0040
0040
ENDCHAR
STARTCHAR 21D2
ENCODING 8737
SWIDTH 1800 0
DWIDTH 18 0
BBX 15 9 1 1
BITMAP
0020
0010
0008
7FFC
0002
0004
FFF8
0010
0020
ENDCHAR
STARTCHAR 21D4
ENCODING 8738
SWIDTH 1800 0
DWIDTH 18 0
BBX 13 9 2 1
BITMAP
0840
1020
3FF0
4010
8008
4008
3FF0
1020
0840
ENDCHAR
STARTCHAR 2200
ENCODING 8739
SWIDTH 1800 0
DWIDTH 18 0
BBX 11 12 4 1
BITMAP
8020
8040
4040
4080
7F80
2100
2100
1100
1200
0A00
0C00
0C00
ENDCHAR
STARTCHAR 2203
ENCODING 8740
SWIDTH 1800 0
DWIDTH 18 0
BBX 8 12 4 0
BITMAP
FF
01
01
01
01
FF
01
01
01
01
01
FF
ENDCHAR
STARTCHAR 00B4
ENCODING 8741
SWIDTH 1800 0
DWIDTH 18 0
BBX 2 3 7 11
BITMAP
40
40
80
ENDCHAR
STARTCHAR FF5E
ENCODING 8742
SWIDTH 1800 0
DWIDTH 18 0
BBX 9 2 4 11
BITMAP
7880
8780
ENDCHAR
STARTCHAR 02C7
ENCODING 8743
SWIDTH 1800 0
DWIDTH 18 0
BBX 6 3 6 11
BITMAP
84
D8
70
ENDCHAR
STARTCHAR 02D8
ENCODING 8744
SWIDTH 1800 0
DWIDTH 18 0
BBX 6 3 6 11
BITMAP
84
8C
78
ENDCHAR
STARTCHAR 02DD
ENCODING 8745
SWIDTH 1800 0
DWIDTH 18 0
BBX 4 2 7 12
BITMAP
F0
A0
ENDCHAR
STARTCHAR 02DA
ENCODING 8746
SWIDTH 1800 0
DWIDTH 18 0
BBX 3 4 7 10
BITMAP
E0
A0
A0
E0
ENDCHAR
STARTCHAR 02D9
ENCODING 8747
SWIDTH 1800 0
DWIDTH 18 0
BBX 1 2 9 11
BITMAP
80
80
ENDCHAR
STARTCHAR 00B8
ENCODING 8748
SWIDTH 1800 0
DWIDTH 18 0
BBX 3 3 7 -2
BITMAP
60
20
E0
ENDCHAR
STARTCHAR 02DB
ENCODING 8749
SWIDTH 1800 0
DWIDTH 18 0
BBX 4 4 7 -2
BITMAP
40
40
90
60
ENDCHAR
STARTCHAR 00A1
ENCODING 8750
SWIDTH 1800 0
DWIDTH 18 0
BBX 1 12 8 0
BITMAP
80
80
00
80
80
80
80
80
80
80
80
80
ENDCHAR
STARTCHAR 00BF
ENCODING 8751
SWIDTH 1800 0
DWIDTH 18 0
BBX 7 13 6 0
BITMAP
08
08
08
00
10
10
10
70
80
82
82
C6
7C
ENDCHAR
STARTCHAR 02D0
ENCODING 8752
SWIDTH 1800 0
DWIDTH 18 0
BBX 2 8 8 2
BITMAP
C0
80
00
00
00
00
80
C0
ENDCHAR
STARTCHAR 222E
ENCODING 8753
SWIDTH 1800 0
DWIDTH 18 0
BBX 7 13 5 0
BITMAP
06
0A
08
10
10
3C
34
38
10
10
10
50
E0
ENDCHAR
STARTCHAR 2211
ENCODING 8754
SWIDTH 1800 0
DWIDTH 18 0
BBX 12 13 2 0
BITMAP
FFF0
4010
2010
1010
0810
0400
0200
0400
0810
1810
3010
2010
7FF0
ENDCHAR
STARTCHAR 220F
ENCODING 8755
SWIDTH 1800 0
DWIDTH 18 0
BBX 12 13 3 0
BITMAP
FFF0
2040
2040
2040
2040
2040
2040
2040
2040
2040
2040
2040
2040
ENDCHAR
STARTCHAR 00A4
ENCODING 8756
SWIDTH 1800 0
DWIDTH 18 0
BBX 12 13 3 -1
BITMAP
8000
4F20
30C0
2040
4020
4020
4020
4020
2060
30C0
4F40
8020
0010
ENDCHAR
STARTCHAR 2109
ENCODING 8757
SWIDTH 1800 0
DWIDTH 18 0
BBX 13 13 2 0
BITMAP
E3F8
A200
A200
4200
0200
03F0
0200
0200
0200
0200
0200
0200
0200
ENDCHAR
STARTCHAR 2030
ENCODING 8758
SWIDTH 1800 0
DWIDTH 18 0
BBX 13 15 2 -1
BITMAP
7040
D840
8880
8900
8900
8A00
DC00
7400
0B30
14C8
14C8
24C8
44C8
44C8
8330
ENDCHAR
STARTCHAR 25C1
ENCODING 8759
SWIDTH 1800 0
DWIDTH 18 0
BBX 9 14 4 -1
BITMAP
0080
0180
0280
0C80
1080
2080
C080
C080
6080
1080
0C80
0280
0180
0080
ENDCHAR
STARTCHAR 25C0
ENCODING 8760
SWIDTH 1800 0
DWIDTH 18 0
BBX 9 12 4 0
BITMAP
0180
0380
0780
1F80
3F80
7F80
FF80
3F80
1F80
0780
0380
0180
ENDCHAR
STARTCHAR 25B7
ENCODING 8761
SWIDTH 1800 0
DWIDTH 18 0
BBX 9 14 4 -1
BITMAP
8000
C000
A000
9800
8C00
8300
8180
8080
8300
8400
9800
A000
C000
8000
ENDCHAR
STARTCHAR 25B6
ENCODING 8762
SWIDTH 1800 0
DWIDTH 18 0
BBX 9 14 4 -1
BITMAP
8000
C000
E000
F800
FC00
FE00
FF80
FF80
FF00
FC00
F800
F000
C000
8000
ENDCHAR
STARTCHAR 2664
ENCODING 8763
SWIDTH 1800 0
DWIDTH 18 0
BBX 11 15 3 -2
BITMAP
0400
0A00
0A00
1100
2080
2080
4040
C020
8020
8020
8A20
7BC0
0A00
0A00
0E00
ENDCHAR
STARTCHAR 2660
ENCODING 8764
SWIDTH 1800 0
DWIDTH 18 0
BBX 11 15 3 -2
BITMAP
0400
0600
0F00
1F00
3F80
3FC0
7FC0
7FE0
FFE0
FFE0
FFE0
7DE0
0600
0E00
0F00
ENDCHAR
STARTCHAR 2661
ENCODING 8765
SWIDTH 1800 0
DWIDTH 18 0
BBX 11 14 3 -1
BITMAP
71C0
4A40
8A20
8420
8020
8020
C060
4040
60C0
2080
1100
1B00
0E00
0400
ENDCHAR
STARTCHAR 2665
ENCODING 8766
SWIDTH 1800 0
DWIDTH 18 0
BBX 12 15 3 -2
BITMAP
71C0
FBE0
FFF0
FFF0
FFF0
FFF0
FFE0
7FE0
7FC0
3FC0
3F80
1F80
0F00
0E00
0400
ENDCHAR
STARTCHAR 2667
ENCODING 8767
SWIDTH 1800 0
DWIDTH 18 0
BBX 14 15 2 -2
BITMAP
0780
0CC0
0840
0840
0840
0480
3BF8
4404
8004
8004
818C
4F78
3500
0480
0780
ENDCHAR
STARTCHAR 2663
ENCODING 8768
SWIDTH 1800 0
DWIDTH 18 0
BBX 13 15 2 -2
BITMAP
0700
0F80
0FC0
0FC0
0FC0
2FA0
7FF8
FFF8
FFF8
FFF8
7EF8
7BF0
0300
0700
0700
ENDCHAR
STARTCHAR 2299
ENCODING 8769
SWIDTH 1800 0
DWIDTH 18 0
BBX 13 14 2 -1
BITMAP
0F80
3060
6030
4FD0
9FC8
9FE8
9FE8
9FE8
9FE8
9FE8
4FD0
6730
3060
0F80
ENDCHAR
STARTCHAR 25C8
ENCODING 8770
SWIDTH 1800 0
DWIDTH 18 0
BBX 13 16 2 -2
BITMAP
0200
0700
0C80
0A40
1720
2FB0
5FD0
BFE8
BFE8
5FD0
2F90
1720
0B40
0880
0500
0200
ENDCHAR
STARTCHAR 25A3
ENCODING 8771
SWIDTH 1800 0
DWIDTH 18 0
BBX 12 14 3 -1
BITMAP
FFF0
8010
8010
8010
BF90
BF90
BF90
BF90
BF90
BF90
BF90
8010
8010
FFF0
ENDCHAR
STARTCHAR 25D0
ENCODING 8772
SWIDTH 1800 0
DWIDTH 18 0
BBX 13 14 2 -1
BITMAP
0F80
3C60
3C30
7C10
7C08
FC08
FC08
FC08
FC08
7C08
7C10
3C30
1C60
0F80
ENDCHAR
STARTCHAR 25D1
ENCODING 8773
SWIDTH 1800 0
DWIDTH 18 0
BBX 13 14 2 -1
BITMAP
0F80
31E0
61E0
41F0
81F0
81F8
81F8
81F8
81F8
81F0
41F0
41E0
31E0
0F80
ENDCHAR
STARTCHAR 2592
ENCODING 8774
SWIDTH 1800 0
DWIDTH 18 0
BBX 13 14 2 -1
BITMAP
FFF8
A148
D0A8
8008
A148
D0A8
A148
D0A8
A148
8008
D0A8
A148
8008
FFF8
ENDCHAR
STARTCHAR 25A4
ENCODING 8775
SWIDTH 1800 0
DWIDTH 18 0
BBX 12 14 3 -1
BITMAP
FFF0
8010
8010
FFF0
8010
8010
8010
FFF0
8010
8010
FFF0
8010
8010
FFF0
ENDCHAR
STARTCHAR 25A5
ENCODING 8776
SWIDTH 1800 0
DWIDTH 18 0
BBX 12 14 3 -1
BITMAP
FFF0
A490
A490
A490
A490
A490
A490
A490
A490
A490
A490
A490
A490
FFF0
ENDCHAR
STARTCHAR 25A8
ENCODING 8777
SWIDTH 1800 0
DWIDTH 18 0
BBX 12 14 3 -1
BITMAP
FFF0
8410
8870
9090
A110
A210
C410
8430
8850
9090
A110
C210
8410
FFF0
ENDCHAR
STARTCHAR 25A7
ENCODING 8778
SWIDTH 1800 0
DWIDTH 18 0
BBX 13 14 2 -1
BITMAP
FFF8
C108
A088
9088
8848
8428
8218
C208
A108
9088
8848
8428
8418
FFF8
ENDCHAR
STARTCHAR 25A6
ENCODING 8779
SWIDTH 1800 0
DWIDTH 18 0
BBX 12 14 3 -1
BITMAP
FFF0
A490
A490
FFF0
A490
A490
A490
FFF0
A490
A490
FFF0
A490
A490
FFF0
ENDCHAR
STARTCHAR 25A9
ENCODING 8780
SWIDTH 1800 0
DWIDTH 18 0
BBX 12 14 3 -1
BITMAP
FFF0
8630
CA50
B190
9090
E950
8630
8610
CA70
B190
9090
E950
8630
FFF0
ENDCHAR
STARTCHAR 2668
ENCODING 8781
SWIDTH 1800 0
DWIDTH 18 0
BBX 13 13 2 -1
BITMAP
0100
0A80
0A80
0A80
0A40
0940
0540
4550
8948
8A88
8A98
6070
1FC0
ENDCHAR
STARTCHAR 260F
ENCODING 8782
SWIDTH 1800 0
DWIDTH 18 0
BBX 14 11 2 0
BITMAP
1FE0
6FD8
B8E4
AF44
EFDC
1060
3050
7050
5048
4D88
7FF8
ENDCHAR
STARTCHAR 260E
ENCODING 8783
SWIDTH 1800 0
DWIDTH 18 0
BBX 15 11 1 0
BITMAP
0FF0
3FF8
745C
F7DE
EC2C
0820
1810
3818
3838
3C38
3FF8
ENDCHAR
STARTCHAR 261C
ENCODING 8784
SWIDTH 1800 0
DWIDTH 18 0
BBX 15 8 1 2
BITMAP
01E0
FED6
830E
7DC6
0FC6
0786
03B8
0040
ENDCHAR
STARTCHAR 261E
ENCODING 8785
SWIDTH 1800 0
DWIDTH 18 0
BBX 16 8 1 2
BITMAP
07C0
EF3F
B082
A3DC
A7F0
A1E0
59C0
0600
ENDCHAR
STARTCHAR 00B6
ENCODING 8786
SWIDTH 1800 0
DWIDTH 18 0
BBX 8 15 4 -2
BITMAP
3D
C5
85
85
85
45
3D
05
05
05
05
05
05
05
05
ENDCHAR
STARTCHAR 2020
ENCODING 8787
SWIDTH 1800 0
DWIDTH 18 0
BBX 9 16 4 -2
BITMAP
0800
0800
0800
0800
FF80
0800
0800
0800
0800
0800
0800
0800
0800
0800
0800
0800
ENDCHAR
STARTCHAR 2021
ENCODING 8788
SWIDTH 1800 0
DWIDTH 18 0
BBX 9 16 4 -2
BITMAP
0800
0800
0800
FF80
0800
7F00
7F00
0800
0800
0800
0800
0800
0800
0800
0800
0800
ENDCHAR
STARTCHAR 2195
ENCODING 8789
SWIDTH 1800 0
DWIDTH 18 0
BBX 4 13 7 -1
BITMAP
60
D0
40
40
40
40
40
40
40
40
D0
60
40
ENDCHAR
STARTCHAR 2197
ENCODING 8790
SWIDTH 1800 0
DWIDTH 18 0
BBX 10 10 3 0
BITMAP
01C0
00C0
0140
0240
0400
0800
1000
2000
4000
C000
ENDCHAR
STARTCHAR 2199
ENCODING 8791
SWIDTH 1800 0
DWIDTH 18 0
BBX 10 11 4 1
BITMAP
0040
00C0
0180
0300
0600
0400
0800
9000
A000
C000
F000
ENDCHAR
STARTCHAR 2196
ENCODING 8792
SWIDTH 1800 0
DWIDTH 18 0
BBX 10 11 4 0
BITMAP
F000
6000
7000
1800
0800
0400
0200
0100
0080
0040
0040
ENDCHAR
STARTCHAR 2198
ENCODING 8793
SWIDTH 1800 0
DWIDTH 18 0
BBX 10 11 4 0
BITMAP
8000
4000
2000
1000
0800
0C00
0600
0380
0140
00C0
0340
ENDCHAR
STARTCHAR 266D
ENCODING 8794
SWIDTH 1800 0
DWIDTH 18 0
BBX 6 12 6 0
BITMAP
80
80
80
80
B8
C4
84
84
8C
88
B0
C0
ENDCHAR
STARTCHAR 2669
ENCODING 8795
SWIDTH 1800 0
DWIDTH 18 0
BBX 3 14 7 -1
BITMAP
20
20
20
20
20
20
20
20
20
20
20
60
E0
C0
ENDCHAR
STARTCHAR 266A
ENCODING 8796
SWIDTH 1800 0
DWIDTH 18 0
BBX 8 13 4 -1
BITMAP
10
18
16
12
11
11
11
12
10
10
30
60
C0
ENDCHAR
STARTCHAR 266C
ENCODING 8797
SWIDTH 1800 0
DWIDTH 18 0
BBX 11 13 3 -1
BITMAP
1FE0
1020
1020
1FE0
1020
1020
1020
1020
1020
1020
70E0
E1C0
E180
ENDCHAR
STARTCHAR 327F
ENCODING 8798
SWIDTH 1800 0
DWIDTH 18 0
BBX 12 14 3 -1
BITMAP
0F80
3040
6020
5110
9210
9400
9C00
FAF0
1210
9110
9120
40A0
20C0
1F80
ENDCHAR
STARTCHAR 321C
ENCODING 8799
SWIDTH 1800 0
DWIDTH 18 0
BBX 14 15 2 -2
BITMAP
1020
3FF0
4308
4788
9CE4
B024
8004
FFF4
8204
8204
4208
4208
2210
2220
1000
ENDCHAR
STARTCHAR 2116
ENCODING 8800
SWIDTH 1800 0
DWIDTH 18 0
BBX 14 13 2 0
BITMAP
8400
8400
C400
C400
A460
A490
A508
9508
9508
8D08
8D08
8494
84E4
ENDCHAR
STARTCHAR 33C7
ENCODING 8801
SWIDTH 1800 0
DWIDTH 18 0
BBX 16 13 1 0
BITMAP
3800
4400
C200
8200
8070
8048
8084
8084
8284
8284
4284
4448
3831
ENDCHAR
STARTCHAR 2122
ENCODING 8802
SWIDTH 1800 0
DWIDTH 18 0
BBX 13 13 2 0
BITMAP
F908
3908
2108
2198
2198
2198
21A8
21A8
21A8
2168
2168
2168
2168
ENDCHAR
STARTCHAR 33C2
ENCODING 8803
SWIDTH 1800 0
DWIDTH 18 0
BBX 16 9 1 0
BITMAP
7080
D8FC
88A4
18A4
78A4
88A4
88A4
98A4
6EA5
ENDCHAR
STARTCHAR 33D8
ENCODING 8804
SWIDTH 1800 0
DWIDTH 18 0
BBX 16 12 1 -3
BITMAP
B8A8
C8FC
84A4
84A4
84A4
84A4
84A4
C8A4
BAA5
8000
8000
8000
ENDCHAR
STARTCHAR 2121
ENCODING 8805
SWIDTH 1800 0
DWIDTH 18 0
BBX 13 13 2 0
BITMAP
FE08
1008
1008
1008
1188
1248
1428
1428
17E8
1408
1428
1268
13C8
ENDCHAR
STARTCHAR FF01
ENCODING 8993
SWIDTH 1800 0
DWIDTH 18 0
BBX 2 14 8 -1
BITMAP
40
40
40
40
40
40
40
40
40
40
40
00
80
80
ENDCHAR
STARTCHAR FF02
ENCODING 8994
SWIDTH 1800 0
DWIDTH 18 0
BBX 6 6 6 8
BITMAP
24
24
48
50
A0
20
ENDCHAR
STARTCHAR FF03
ENCODING 8995
SWIDTH 1800 0
DWIDTH 18 0
BBX 12 14 3 -1
BITMAP
0840
0840
0840
0880
7FF0
1080
1080
1080
1100
1100
FFE0
2100
2100
2100
ENDCHAR
STARTCHAR FF04
ENCODING 8996
SWIDTH 1800 0
DWIDTH 18 0
BBX 11 15 4 -1
BITMAP
0200
1200
7F80
9240
9240
9200
7200
1F00
12C0
1220
1220
9220
D240
3F80
1200
ENDCHAR
STARTCHAR FF05
ENCODING 8997
SWIDTH 1800 0
DWIDTH 18 0
BBX 14 14 2 -1
BITMAP
3C00
4608
8210
8220
8240
4480
3B00
06F8
0D04
1904
3104
6104
C088
0070
ENDCHAR
STARTCHAR FF06
ENCODING 8998
SWIDTH 1800 0
DWIDTH 18 0
BBX 10 13 4 0
BITMAP
0C00
1300
1100
2100
1200
1C00
1800
6400
4240
8380
4180
4380
3C40
ENDCHAR
STARTCHAR FF07
ENCODING 8999
SWIDTH 1800 0
DWIDTH 18 0
BBX 2 4 8 10
BITMAP
C0
40
40
80
ENDCHAR
STARTCHAR FF08
ENCODING 9000
SWIDTH 1800 0
DWIDTH 18 0
BBX 5 16 6 -2
BITMAP
18
30
20
40
40
80
80
80
80
80
80
40
40
20
30
18
ENDCHAR
STARTCHAR FF09
ENCODING 9001
SWIDTH 1800 0
DWIDTH 18 0
BBX 5 16 6 -2
BITMAP
80
40
20
10
10
08
08
08
08
08
08
10
10
20
60
C0
ENDCHAR
STARTCHAR FF0A
ENCODING 9002
SWIDTH 1800 0
DWIDTH 18 0
BBX 10 9 4 1
BITMAP
3300
1200
1C00
EDC0
F7C0
0C00
1200
3300
1200
ENDCHAR
STARTCHAR FF0B
ENCODING 9003
SWIDTH 1800 0
DWIDTH 18 0
BBX 13 14 2 -1
BITMAP
0200
0200
0200
0200
0200
0200
0200
FFF8
0200
0200
0200
0200
0200
0200
ENDCHAR
STARTCHAR FF0C
ENCODING 9004
SWIDTH 1800 0
DWIDTH 18 0
BBX 3 5 7 -2
BITMAP
60
E0
60
20
40
ENDCHAR
STARTCHAR FF0D
ENCODING 9005
SWIDTH 1800 0
DWIDTH 18 0
BBX 13 1 3 5
BITMAP
FFF8
ENDCHAR
STARTCHAR FF0E
ENCODING 9006
SWIDTH 1800 0
DWIDTH 18 0
BBX 2 2 8 -1
BITMAP
C0
C0
ENDCHAR
STARTCHAR FF0F
ENCODING 9007
SWIDTH 1800 0
DWIDTH 18 0
BBX 6 15 6 -2
BITMAP
04
04
04
08
08
10
10
10
20
20
40
40
40
80
80
ENDCHAR
STARTCHAR FF10
ENCODING 9008
SWIDTH 1800 0
DWIDTH 18 0
BBX 9 13 5 0
BITMAP
3E00
6300
4100
8080
8080
8080
8080
8080
8080
8080
4100
6300
3C00
ENDCHAR
STARTCHAR FF11
ENCODING 9009
SWIDTH 1800 0
DWIDTH 18 0
BBX 5 13 5 0
BITMAP
08
18
28
68
C8
08
08
08
08
08
08
08
08
ENDCHAR
STARTCHAR FF12
ENCODING 9010
SWIDTH 1800 0
DWIDTH 18 0
BBX 8 13 4 0
BITMAP
3E
43
81
81
01
03
06
18
30
40
C0
80
FF
ENDCHAR
STARTCHAR FF13
ENCODING 9011
SWIDTH 1800 0
DWIDTH 18 0
BBX 9 13 4 0
BITMAP
3E00
6100
4180
0080
0100
0200
1F00
0180
0080
8080
C080
6180
3E00
ENDCHAR
STARTCHAR FF14
ENCODING 9012
SWIDTH 1800 0
DWIDTH 18 0
BBX 10 12 4 0
BITMAP
0300
0700
0500
0900
1100
3100
2100
4100
8100
FFC0
0100
0100
ENDCHAR
STARTCHAR FF15
ENCODING 9013
SWIDTH 1800 0
DWIDTH 18 0
BBX 8 12 5 0
BITMAP
FF
80
80
80
BC
C3
01
01
81
81
C3
3C
ENDCHAR
STARTCHAR FF16
ENCODING 9014
SWIDTH 1800 0
DWIDTH 18 0
BBX 9 13 5 0
BITMAP
1E00
2100
4180
C000
8000
BC00
C200
8100
8100
8100
8100
4200
3C00
ENDCHAR
STARTCHAR FF17
ENCODING 9015
SWIDTH 1800 0
DWIDTH 18 0
BBX 9 12 5 0
BITMAP
FF80
0100
0100
0200
0200
0400
0C00
0800
1000
1000
2000
6000
ENDCHAR
STARTCHAR FF18
ENCODING 9016
SWIDTH 1800 0
DWIDTH 18 0
BBX 9 13 5 0
BITMAP
3C00
4300
8100
8100
8100
4200
7E00
C300
8100
8180
8100
C300
3C00
ENDCHAR
STARTCHAR FF19
ENCODING 9017
SWIDTH 1800 0
DWIDTH 18 0
BBX 9 13 5 0
BITMAP
3E00
4300
8100
8180
8080
8180
8180
4280
3C80
8100
C100
4300
3C00
ENDCHAR
STARTCHAR FF1A
ENCODING 9018
SWIDTH 1800 0
DWIDTH 18 0
BBX 1 11 8 0
BITMAP
80
80
00
00
00
00
00
00
00
80
80
ENDCHAR
STARTCHAR FF1B
ENCODING 9019
SWIDTH 1800 0
DWIDTH 18 0
BBX 2 12 8 -1
BITMAP
80
80
00
00
00
00
00
00
00
C0
40
40
ENDCHAR
STARTCHAR FF1C
ENCODING 9020
SWIDTH 1800 0
DWIDTH 18 0
BBX 12 14 3 -1
BITMAP
0010
0060
0180
0600
1800
6000
8000
8000
6000
1800
0600
0380
00C0
0030
ENDCHAR
STARTCHAR FF1D
ENCODING 9021
SWIDTH 1800 0
DWIDTH 18 0
BBX 13 5 3 3
BITMAP
FFF8
0000
0000
0000
FFF8
ENDCHAR
STARTCHAR FF1E
ENCODING 9022
SWIDTH 1800 0
DWIDTH 18 0
BBX 12 14 3 -1
BITMAP
C000
3000
0C00
0300
01C0
0070
0010
0030
00C0
0300
0E00
3800
6000
8000
ENDCHAR
STARTCHAR FF1F
ENCODING 9023
SWIDTH 1800 0
DWIDTH 18 0
BBX 10 14 4 -1
BITMAP
3F00
C080
8040
8040
8040
C0C0
6180
0E00
0800
0800
0800
0800
0000
0800
ENDCHAR
STARTCHAR FF20
ENCODING 9024
SWIDTH 1800 0
DWIDTH 18 0
BBX 14 14 2 -1
BITMAP
0FC0
1030
6008
400C
87C4
8844
8844
8844
8844
CC44
47B8
6000
1000
0FE0
ENDCHAR
STARTCHAR FF21
ENCODING 9025
SWIDTH 1800 0
DWIDTH 18 0
BBX 12 13 3 0
BITMAP
0600
0600
0900
0900
1100
1080
1080
2040
2040
3FC0
4020
4020
8010
ENDCHAR
STARTCHAR FF22
ENCODING 9026
SWIDTH 1800 0
DWIDTH 18 0
BBX 11 13 4 0
BITMAP
FF80
80C0
8040
8040
80C0
FF80
8080
8040
8040
8060
8040
80C0
FF80
ENDCHAR
STARTCHAR FF23
ENCODING 9027
SWIDTH 1800 0
DWIDTH 18 0
BBX 11 13 4 0
BITMAP
1F00
20C0
4040
4060
8020
8000
8000
8000
8020
C020
4040
30C0
1F00
ENDCHAR
STARTCHAR FF24
ENCODING 9028
SWIDTH 1800 0
DWIDTH 18 0
BBX 11 13 4 0
BITMAP
FF00
8080
8040
8060
8020
8020
8020
8020
8020
8020
8040
8080
FF00
ENDCHAR
STARTCHAR FF25
ENCODING 9029
SWIDTH 1800 0
DWIDTH 18 0
BBX 9 13 5 0
BITMAP
FF80
8000
8000
8000
8000
8000
FF80
8000
8000
8000
8000
8000
FF80
ENDCHAR
STARTCHAR FF26
ENCODING 9030
SWIDTH 1800 0
DWIDTH 18 0
BBX 9 14 5 -1
BITMAP
FF80
8000
8000
8000
8000
8000
FF80
8000
8000
8000
8000
8000
8000
8000
ENDCHAR
STARTCHAR FF27
ENCODING 9031
SWIDTH 1800 0
DWIDTH 18 0
BBX 12 14 3 -1
BITMAP
1F00
3080
4040
4060
8000
8000
81F0
8010
8010
8010
4020
4020
30C0
0F80
ENDCHAR
STARTCHAR FF28
ENCODING 9032
SWIDTH 1800 0
DWIDTH 18 0
BBX 10 14 4 -1
BITMAP
8040
8040
8040
8040
8040
8040
FFC0
8040
8040
8040
8040
8040
8040
8040
ENDCHAR
STARTCHAR FF29
ENCODING 9033
SWIDTH 1800 0
DWIDTH 18 0
BBX 1 14 9 -1
BITMAP
80
80
80
80
80
80
80
80
80
80
80
80
80
80
ENDCHAR
STARTCHAR FF2A
ENCODING 9034
SWIDTH 1800 0
DWIDTH 18 0
BBX 9 13 4 0
BITMAP
0080
0080
0080
0080
0080
0080
0080
8080
8080
8080
4180
6300
1E00
ENDCHAR
STARTCHAR FF2B
ENCODING 9035
SWIDTH 1800 0
DWIDTH 18 0
BBX 9 13 5 0
BITMAP
8180
8300
8600
8800
9000
A000
E000
B000
9800
8C00
8200
8100
8080
ENDCHAR
STARTCHAR FF2C
ENCODING 9036
SWIDTH 1800 0
DWIDTH 18 0
BBX 10 13 5 0
BITMAP
8000
8000
8000
8000
8000
8000
8000
8000
8000
8000
8000
8000
FFC0
ENDCHAR
STARTCHAR FF2D
ENCODING 9037
SWIDTH 1800 0
DWIDTH 18 0
BBX 13 13 3 0
BITMAP
C018
C018
E028
A028
A068
9048
90C8
8888
8888
8D08
8508
8608
8208
ENDCHAR
STARTCHAR FF2E
ENCODING 9038
SWIDTH 1800 0
DWIDTH 18 0
BBX 10 14 4 0
BITMAP
8040
C040
E040
A040
9040
9840
8840
8C40
8440
8240
8340
8140
80C0
80C0
ENDCHAR
STARTCHAR FF2F
ENCODING 9039
SWIDTH 1800 0
DWIDTH 18 0
BBX 11 14 4 -1
BITMAP
1F00
2180
4040
4040
8020
8020
8020
8020
8020
8020
4040
4040
2080
1F00
ENDCHAR
STARTCHAR FF30
ENCODING 9040
SWIDTH 1800 0
DWIDTH 18 0
BBX 11 13 4 0
BITMAP
FF80
8040
8020
8020
8020
8040
FF80
8000
8000
8000
8000
8000
8000
ENDCHAR
STARTCHAR FF31
ENCODING 9041
SWIDTH 1800 0
DWIDTH 18 0
BBX 11 16 3 -3
BITMAP
1F00
6080
4040
8020
8020
8020
8020
8020
8020
C060
4040
2180
1F00
6300
0180
0060
ENDCHAR
STARTCHAR FF32
ENCODING 9042
SWIDTH 1800 0
DWIDTH 18 0
BBX 10 13 4 0
BITMAP
FF80
80C0
8040
8040
8040
8080
FF00
8180
8080
8080
8080
8040
8040
ENDCHAR
STARTCHAR FF33
ENCODING 9043
SWIDTH 1800 0
DWIDTH 18 0
BBX 10 14 4 -1
BITMAP
3E00
4100
8080
8080
8000
6000
1C00
0380
00C0
8040
8040
4040
6080
1F00
ENDCHAR
STARTCHAR FF34
ENCODING 9044
SWIDTH 1800 0
DWIDTH 18 0
BBX 11 14 4 -1
BITMAP
FFE0
0400
0400
0400
0400
0400
0400
0400
0400
0400
0400
0400
0400
0400
ENDCHAR
STARTCHAR FF35
ENCODING 9045
SWIDTH 1800 0
DWIDTH 18 0
BBX 10 14 4 0
BITMAP
0040
8040
8040
8040
8040
8040
8040
8040
8040
8040
8040
4080
6180
1E00
ENDCHAR
STARTCHAR FF36
ENCODING 9046
SWIDTH 1800 0
DWIDTH 18 0
BBX 10 14 4 0
BITMAP
8040
8040
80C0
4080
4080
4080
2100
2100
2100
1200
1200
1200
0C00
0C00
ENDCHAR
STARTCHAR FF37
ENCODING 9047
SWIDTH 1800 0
DWIDTH 18 0
BBX 14 14 2 0
BITMAP
8104
8304
8304
8304
C28C
4488
4488
4488
2448
2850
2850
2850
1830
1020
ENDCHAR
STARTCHAR FF38
ENCODING 9048
SWIDTH 1800 0
DWIDTH 18 0
BBX 10 14 4 -1
BITMAP
8040
4080
2100
3300
1200
0C00
0C00
0E00
1200
2100
6180
4080
8040
8000
ENDCHAR
STARTCHAR FF39
ENCODING 9049
SWIDTH 1800 0
DWIDTH 18 0
BBX 11 14 3 0
BITMAP
8020
4040
40C0
2080
1100
1300
0A00
0C00
0400
0400
0400
0400
0400
0400
ENDCHAR
STARTCHAR FF3A
ENCODING 9050
SWIDTH 1800 0
DWIDTH 18 0
BBX 10 13 4 0
BITMAP
FF80
0080
0100
0300
0600
0400
0800
1000
3000
2000
4000
8000
FFC0
ENDCHAR
STARTCHAR FF3B
ENCODING 9051
SWIDTH 1800 0
DWIDTH 18 0
BBX 6 16 6 -2
BITMAP
FC
80
80
80
80
80
80
80
80
80
80
80
80
80
80
7C
ENDCHAR
STARTCHAR FFE6
ENCODING 9052
SWIDTH 1800 0
DWIDTH 18 0
BBX 16 12 1 0
BITMAP
6182
2186
2184
2244
FFFF
2244
1248
FFFE
1428
1428
1428
0C30
ENDCHAR
STARTCHAR FF3D
ENCODING 9053
SWIDTH 1800 0
DWIDTH 18 0
BBX 6 16 5 -2
BITMAP
FC
04
04
04
04
04
04
04
04
04
04
04
04
04
04
FC
ENDCHAR
STARTCHAR FF3E
ENCODING 9054
SWIDTH 1800 0
DWIDTH 18 0
BBX 6 2 6 11
BITMAP
78
84
ENDCHAR
STARTCHAR FF3F
ENCODING 9055
SWIDTH 1800 0
DWIDTH 18 0
BBX 16 1 1 -2
BITMAP
FFFF
ENDCHAR
STARTCHAR FF40
ENCODING 9056
SWIDTH 1800 0
DWIDTH 18 0
BBX 2 3 8 10
BITMAP
80
80
40
ENDCHAR
STARTCHAR FF41
ENCODING 9057
SWIDTH 1800 0
DWIDTH 18 0
BBX 8 9 5 0
BITMAP
3E
63
41
07
79
81
81
43
3D
ENDCHAR
STARTCHAR FF42
ENCODING 9058
SWIDTH 1800 0
DWIDTH 18 0
BBX 8 12 5 0
BITMAP
80
80
80
BC
C2
81
81
81
81
81
C2
BC
ENDCHAR
STARTCHAR FF43
ENCODING 9059
SWIDTH 1800 0
DWIDTH 18 0
BBX 8 9 5 0
BITMAP
3C
42
C1
80
80
80
C1
42
3C
ENDCHAR
STARTCHAR FF44
ENCODING 9060
SWIDTH 1800 0
DWIDTH 18 0
BBX 8 12 5 0
BITMAP
01
01
01
3D
43
81
81
81
81
81
43
3D
ENDCHAR
STARTCHAR FF45
ENCODING 9061
SWIDTH 1800 0
DWIDTH 18 0
BBX 8 9 5 0
BITMAP
3C
42
C1
81
FF
80
81
42
3C
ENDCHAR
STARTCHAR FF46
ENCODING 9062
SWIDTH 1800 0
DWIDTH 18 0
BBX 6 12 6 0
BITMAP
1C
20
20
20
FC
20
20
20
20
20
20
20
ENDCHAR
STARTCHAR FF47
ENCODING 9063
SWIDTH 1800 0
DWIDTH 18 0
BBX 8 11 5 -2
BITMAP
3D
43
81
81
81
81
C1
43
3D
C2
7C
ENDCHAR
STARTCHAR FF48
ENCODING 9064
SWIDTH 1800 0
DWIDTH 18 0
BBX 6 12 6 0
BITMAP
80
80
80
B8
CC
84
84
84
84
84
84
84
ENDCHAR
STARTCHAR FF49
ENCODING 9065
SWIDTH 1800 0
DWIDTH 18 0
BBX 1 12 8 0
BITMAP
80
00
80
80
80
80
80
80
80
80
80
80
ENDCHAR
STARTCHAR FF4A
ENCODING 9066
SWIDTH 1800 0
DWIDTH 18 0
BBX 5 15 5 -3
BITMAP
08
00
08
08
08
08
08
08
08
08
08
08
08
F0
40
ENDCHAR
STARTCHAR FF4B
ENCODING 9067
SWIDTH 1800 0
DWIDTH 18 0
BBX 7 12 6 0
BITMAP
80
80
84
8C
98
A0
C0
A0
90
88
84
82
ENDCHAR
STARTCHAR FF4C
ENCODING 9068
SWIDTH 1800 0
DWIDTH 18 0
BBX 1 12 9 0
BITMAP
80
80
80
80
80
80
80
80
80
80
80
80
ENDCHAR
STARTCHAR FF4D
ENCODING 9069
SWIDTH 1800 0
DWIDTH 18 0
BBX 10 10 4 0
BITMAP
B180
CEC0
8440
8440
8440
8440
8440
8440
8440
8440
ENDCHAR
STARTCHAR FF4E
ENCODING 9070
SWIDTH 1800 0
DWIDTH 18 0
BBX 6 10 6 0
BITMAP
90
E8
84
84
84
84
84
84
84
84
ENDCHAR
STARTCHAR FF4F
ENCODING 9071
SWIDTH 1800 0
DWIDTH 18 0
BBX 8 10 5 0
BITMAP
3C
42
C3
81
81
81
81
C3
42
3C
ENDCHAR
STARTCHAR FF50
ENCODING 9072
SWIDTH 1800 0
DWIDTH 18 0
BBX 8 13 5 -3
BITMAP
80
BC
C2
83
81
81
81
81
C2
FE
98
80
80
ENDCHAR
STARTCHAR FF51
ENCODING 9073
SWIDTH 1800 0
DWIDTH 18 0
BBX 8 12 5 -3
BITMAP
3D
43
81
81
81
81
81
43
3D
01
01
01
ENDCHAR
STARTCHAR FF52
ENCODING 9074
SWIDTH 1800 0
DWIDTH 18 0
BBX 6 10 7 0
BITMAP
B0
EC
84
80
80
80
80
80
80
80
ENDCHAR
STARTCHAR FF53
ENCODING 9075
SWIDTH 1800 0
DWIDTH 18 0
BBX 6 10 6 0
BITMAP
78
CC
84
80
F0
0C
04
84
84
78
ENDCHAR
STARTCHAR FF54
ENCODING 9076
SWIDTH 1800 0
DWIDTH 18 0
BBX 7 12 6 0
BITMAP
20
20
20
FC
20
20
20
20
20
20
22
1C
ENDCHAR
STARTCHAR FF55
ENCODING 9077
SWIDTH 1800 0
DWIDTH 18 0
BBX 7 10 5 0
BITMAP
82
82
82
82
82
82
82
82
C6
7A
ENDCHAR
STARTCHAR FF56
ENCODING 9078
SWIDTH 1800 0
DWIDTH 18 0
BBX 8 10 5 0
BITMAP
81
81
82
42
42
24
24
28
18
18
ENDCHAR
STARTCHAR FF57
ENCODING 9079
SWIDTH 1800 0
DWIDTH 18 0
BBX 12 10 3 0
BITMAP
8010
8610
8610
4A20
4920
4920
4940
3140
30C0
3080
ENDCHAR
STARTCHAR FF58
ENCODING 9080
SWIDTH 1800 0
DWIDTH 18 0
BBX 8 9 5 0
BITMAP
C3
42
24
18
18
1C
24
42
81
ENDCHAR
STARTCHAR FF59
ENCODING 9081
SWIDTH 1800 0
DWIDTH 18 0
BBX 8 12 5 -2
BITMAP
81
82
42
42
24
24
28
18
18
10
10
E0
ENDCHAR
STARTCHAR FF5A
ENCODING 9082
SWIDTH 1800 0
DWIDTH 18 0
BBX 8 10 5 0
BITMAP
FE
02
04
08
18
10
20
40
C0
FF
ENDCHAR
STARTCHAR FF5B
ENCODING 9083
SWIDTH 1800 0
DWIDTH 18 0
BBX 4 16 8 -2
BITMAP
30
40
40
40
40
40
40
C0
C0
40
40
40
40
40
40
30
ENDCHAR
STARTCHAR FF5C
ENCODING 9084
SWIDTH 1800 0
DWIDTH 18 0
BBX 1 15 8 -2
BITMAP
80
80
80
80
80
80
80
80
80
80
80
80
80
80
80
ENDCHAR
STARTCHAR FF5D
ENCODING 9085
SWIDTH 1800 0
DWIDTH 18 0
BBX 4 16 6 -2
BITMAP
C0
20
20
20
20
20
20
30
30
20
20
20
20
20
20
C0
ENDCHAR
STARTCHAR FFE3
ENCODING 9086
SWIDTH 1800 0
DWIDTH 18 0
BBX 9 1 5 5
BITMAP
FF80
ENDCHAR
STARTCHAR 3131
ENCODING 9249
SWIDTH 1800 0
DWIDTH 18 0
BBX 10 9 4 0
BITMAP
FFC0
0040
0040
0040
0040
0040
0040
0040
0040
ENDCHAR
STARTCHAR 3132
ENCODING 9250
SWIDTH 1800 0
DWIDTH 18 0
BBX 12 9 2 0
BITMAP
FDF0
0410
0410
0410
0410
0410
0410
0410
0410
ENDCHAR
STARTCHAR 3133
ENCODING 9251
SWIDTH 1800 0
DWIDTH 18 0
BBX 13 9 2 0
BITMAP
FC40
0440
0440
0440
0440
04A0
04B0
0510
0708
ENDCHAR
STARTCHAR 3134
ENCODING 9252
SWIDTH 1800 0
DWIDTH 18 0
BBX 11 9 4 0
BITMAP
8000
8000
8000
8000
8000
8000
8000
8000
FFE0
ENDCHAR
STARTCHAR 3135
ENCODING 9253
SWIDTH 1800 0
DWIDTH 18 0
BBX 13 9 3 0
BITMAP
83F8
8040
8040
8040
80E0
80A0
81B0
8B10
F208
ENDCHAR
STARTCHAR 3136
ENCODING 9254
SWIDTH 1800 0
DWIDTH 18 0
BBX 13 10 3 -1
BITMAP
81E0
8000
87F8
8000
81E0
8310
8210
8A10
F310
01E0
ENDCHAR
STARTCHAR 3137
ENCODING 9255
SWIDTH 1800 0
DWIDTH 18 0
BBX 10 9 4 0
BITMAP
FFC0
8000
8000
8000
8000
8000
8000
8000
FFC0
ENDCHAR
STARTCHAR 3138
ENCODING 9256
SWIDTH 1800 0
DWIDTH 18 0
BBX 12 9 3 0
BITMAP
FFE0
8200
8200
8200
8200
8200
8200
8E00
F3F0
ENDCHAR
STARTCHAR 3139
ENCODING 9257
SWIDTH 1800 0
DWIDTH 18 0
BBX 11 9 3 0
BITMAP
FFC0
0040
0040
0040
7FC0
4000
4000
4000
7FE0
ENDCHAR
STARTCHAR 313A
ENCODING 9258
SWIDTH 1800 0
DWIDTH 18 0
BBX 13 9 2 0
BITMAP
FDF8
0408
0408
0408
7C08
4008
4008
4008
7E08
ENDCHAR
STARTCHAR 313B
ENCODING 9259
SWIDTH 1800 0
DWIDTH 18 0
BBX 13 9 2 0
BITMAP
FCF8
0488
0488
0488
7C88
4088
4088
4088
7EF8
ENDCHAR
STARTCHAR 313C
ENCODING 9260
SWIDTH 1800 0
DWIDTH 18 0
BBX 13 9 2 0
BITMAP
FD08
0508
0508
05F8
7D08
4108
4108
4108
7FF8
ENDCHAR
STARTCHAR 313D
ENCODING 9261
SWIDTH 1800 0
DWIDTH 18 0
BBX 12 9 3 0
BITMAP
F880
0880
0880
0880
F880
8140
8160
8220
FE10
ENDCHAR
STARTCHAR 313E
ENCODING 9262
SWIDTH 1800 0
DWIDTH 18 0
BBX 14 9 2 0
BITMAP
FCF8
0480
0480
0480
7CF8
4080
4080
4080
7EFC
ENDCHAR
STARTCHAR 313F
ENCODING 9263
SWIDTH 1800 0
DWIDTH 18 0
BBX 13 9 3 0
BITMAP
FBF0
0800
0910
0910
F920
8120
8120
8120
FFF8
ENDCHAR
STARTCHAR 3140
ENCODING 9264
SWIDTH 1800 0
DWIDTH 18 0
BBX 14 10 2 -1
BITMAP
F8F0
0800
0BFC
0800
78F0
4188
4108
4108
7D88
00F0
ENDCHAR
STARTCHAR 3141
ENCODING 9265
SWIDTH 1800 0
DWIDTH 18 0
BBX 10 9 4 0
BITMAP
FFC0
8040
8040
8040
8040
8040
8040
8040
FFC0
ENDCHAR
STARTCHAR 3142
ENCODING 9266
SWIDTH 1800 0
DWIDTH 18 0
BBX 10 9 4 0
BITMAP
8040
8040
8040
8040
FFC0
8040
8040
8040
FFC0
ENDCHAR
STARTCHAR 3143
ENCODING 9267
SWIDTH 1800 0
DWIDTH 18 0
BBX 12 9 3 0
BITMAP
8910
8910
8910
8910
F9F0
8910
8910
8910
F9F0
ENDCHAR
STARTCHAR 3144
ENCODING 9268
SWIDTH 1800 0
DWIDTH 18 0
BBX 12 10 3 0
BITMAP
8000
8880
8880
8880
F880
8880
8940
8960
8A20
FE10
ENDCHAR
STARTCHAR 3145
ENCODING 9269
SWIDTH 1800 0
DWIDTH 18 0
BBX 11 9 3 0
BITMAP
0400
0400
0400
0400
0A00
1B00
1180
60C0
8020
ENDCHAR
STARTCHAR 3146
ENCODING 9270
SWIDTH 1800 0
DWIDTH 18 0
BBX 12 10 3 -1
BITMAP
1080
1080
1080
1080
1080
29C0
2940
4720
8230
0410
ENDCHAR
STARTCHAR 3147
ENCODING 9271
SWIDTH 1800 0
DWIDTH 18 0
BBX 10 9 4 0
BITMAP
3F00
4180
8040
8040
8040
8040
8040
4180
3F00
ENDCHAR
STARTCHAR 3148
ENCODING 9272
SWIDTH 1800 0
DWIDTH 18 0
BBX 11 9 3 0
BITMAP
FFE0
0400
0600
0600
0A00
0900
1180
20C0
C020
ENDCHAR
STARTCHAR 3149
ENCODING 9273
SWIDTH 1800 0
DWIDTH 18 0
BBX 13 9 2 0
BITMAP
7DF8
1040
1040
1040
28A0
28A0
2490
4110
8208
ENDCHAR
STARTCHAR 314A
ENCODING 9274
SWIDTH 1800 0
DWIDTH 18 0
BBX 11 9 3 0
BITMAP
1F80
0000
FFE0
0400
0600
0A00
1100
20C0
C020
ENDCHAR
STARTCHAR 314B
ENCODING 9275
SWIDTH 1800 0
DWIDTH 18 0
BBX 11 9 3 0
BITMAP
FFE0
0020
0020
0020
FF20
0020
0020
0020
0040
ENDCHAR
STARTCHAR 314C
ENCODING 9276
SWIDTH 1800 0
DWIDTH 18 0
BBX 10 9 4 0
BITMAP
FFC0
8000
8000
8000
FFC0
8000
8000
8000
FFC0
ENDCHAR
STARTCHAR 314D
ENCODING 9277
SWIDTH 1800 0
DWIDTH 18 0
BBX 12 9 3 0
BITMAP
7FE0
0000
0080
1080
1080
1080
1080
1080
FFF0
ENDCHAR
STARTCHAR 314E
ENCODING 9278
SWIDTH 1800 0
DWIDTH 18 0
BBX 12 11 3 -1
BITMAP
3F80
0000
0000
FFF0
0000
0F00
30C0
2040
2040
30C0
0F00
ENDCHAR
STARTCHAR 314F
ENCODING 9279
SWIDTH 1800 0
DWIDTH 18 0
BBX 5 15 7 -3
BITMAP
80
80
80
80
80
80
80
F8
80
80
80
80
80
80
80
ENDCHAR
STARTCHAR 3150
ENCODING 9280
SWIDTH 1800 0
DWIDTH 18 0
BBX 5 15 6 -3
BITMAP
88
88
88
88
88
88
88
F8
88
88
88
88
88
88
88
ENDCHAR
STARTCHAR 3151
ENCODING 9281
SWIDTH 1800 0
DWIDTH 18 0
BBX 5 15 8 -3
BITMAP
80
80
80
80
F8
80
80
80
80
F8
80
80
80
80
80
ENDCHAR
STARTCHAR 3152
ENCODING 9282
SWIDTH 1800 0
DWIDTH 18 0
BBX 5 15 6 -3
BITMAP
88
88
88
88
F8
88
88
88
F8
88
88
88
88
88
08
ENDCHAR
STARTCHAR 3153
ENCODING 9283
SWIDTH 1800 0
DWIDTH 18 0
BBX 6 15 5 -3
BITMAP
04
04
04
04
04
04
FC
04
04
04
04
04
04
04
04
ENDCHAR
STARTCHAR 3154
ENCODING 9284
SWIDTH 1800 0
DWIDTH 18 0
BBX 8 15 4 -3
BITMAP
09
09
09
09
09
09
F9
09
09
09
09
09
09
09
01
ENDCHAR
STARTCHAR 3155
ENCODING 9285
SWIDTH 1800 0
DWIDTH 18 0
BBX 6 16 5 -3
BITMAP
04
04
04
04
04
FC
04
04
04
04
FC
04
04
04
04
04
ENDCHAR
STARTCHAR 3156
ENCODING 9286
SWIDTH 1800 0
DWIDTH 18 0
BBX 8 15 4 -3
BITMAP
09
09
09
09
F9
09
09
09
09
F9
09
09
09
09
01
ENDCHAR
STARTCHAR 3157
ENCODING 9287
SWIDTH 1800 0
DWIDTH 18 0
BBX 15 8 1 1
BITMAP
0100
0100
0100
0100
0100
0100
0100
FFFE
ENDCHAR
STARTCHAR 3158
ENCODING 9288
SWIDTH 1800 0
DWIDTH 18 0
BBX 13 16 2 -3
BITMAP
0040
0040
0040
0040
0840
0840
0840
0840
0878
0840
0840
FFC0
F040
0040
0040
0040
ENDCHAR
STARTCHAR 3159
ENCODING 9289
SWIDTH 1800 0
DWIDTH 18 0
BBX 12 16 2 -3
BITMAP
0010
0090
0090
0090
1090
1090
1090
1090
10F0
1090
FF90
0090
0090
0090
0090
0010
ENDCHAR
STARTCHAR 315A
ENCODING 9290
SWIDTH 1800 0
DWIDTH 18 0
BBX 11 15 3 -3
BITMAP
0020
0020
0020
0820
0820
0820
0820
0820
0820
0FE0
F020
0020
0020
0020
0020
ENDCHAR
STARTCHAR 315B
ENCODING 9291
SWIDTH 1800 0
DWIDTH 18 0
BBX 14 8 2 1
BITMAP
0840
0840
0840
0840
0840
0840
0840
FFFC
ENDCHAR
STARTCHAR 315C
ENCODING 9292
SWIDTH 1800 0
DWIDTH 18 0
BBX 14 12 1 -2
BITMAP
FFFC
0100
0100
0100
0100
0100
0100
0100
0100
0100
0100
0100
ENDCHAR
STARTCHAR 315D
ENCODING 9293
SWIDTH 1800 0
DWIDTH 18 0
BBX 12 16 2 -3
BITMAP
0010
0010
0010
0010
0010
FFD0
0410
0410
0410
05F0
0410
0410
0410
0410
0010
0010
ENDCHAR
STARTCHAR 315E
ENCODING 9294
SWIDTH 1800 0
DWIDTH 18 0
BBX 12 15 2 -3
BITMAP
0090
0090
0090
0090
0090
FF90
0890
0890
0F90
0890
0890
0890
0890
0890
0090
ENDCHAR
STARTCHAR 315F
ENCODING 9295
SWIDTH 1800 0
DWIDTH 18 0
BBX 12 15 2 -3
BITMAP
0010
0010
0010
0010
01F0
FFF0
0410
0410
0410
0410
0410
0410
0410
0010
0010
ENDCHAR
STARTCHAR 3160
ENCODING 9296
SWIDTH 1800 0
DWIDTH 18 0
BBX 14 12 2 -2
BITMAP
FFFC
0840
0840
0840
0840
0840
0840
0840
0840
0840
0840
0840
ENDCHAR
STARTCHAR 3161
ENCODING 9297
SWIDTH 1800 0
DWIDTH 18 0
BBX 14 1 2 4
BITMAP
FFFC
ENDCHAR
STARTCHAR 3162
ENCODING 9298
SWIDTH 1800 0
DWIDTH 18 0
BBX 11 15 2 -3
BITMAP
0020
0020
0020
0020
0020
0020
0020
0020
07E0
F820
0020
0020
0020
0020
0020
ENDCHAR
STARTCHAR 3163
ENCODING 9299
SWIDTH 1800 0
DWIDTH 18 0
BBX 1 16 8 -3
BITMAP
80
80
80
80
80
80
80
80
80
80
80
80
80
80
80
80
ENDCHAR
STARTCHAR 3164
ENCODING 9300
SWIDTH 1800 0
DWIDTH 18 0
BBX 0 0 0 0
BITMAP
ENDCHAR
STARTCHAR 3165
ENCODING 9301
SWIDTH 1800 0
DWIDTH 18 0
BBX 12 9 3 0
BITMAP
8200
8200
8200
8200
8200
8200
8200
8A00
F3F0
ENDCHAR
STARTCHAR 3166
ENCODING 9302
SWIDTH 1800 0
DWIDTH 18 0
BBX 12 9 3 0
BITMAP
83F0
8200
8200
8200
8200
8200
8200
BA00
C3F0
ENDCHAR
STARTCHAR 3167
ENCODING 9303
SWIDTH 1800 0
DWIDTH 18 0
BBX 12 9 3 0
BITMAP
8080
8080
8080
8080
8180
8140
8120
8230
FC10
ENDCHAR
STARTCHAR 3168
ENCODING 9304
SWIDTH 1800 0
DWIDTH 18 0
BBX 12 9 3 0
BITMAP
8080
8080
80C0
8140
8140
8220
8220
BA10
C7F0
ENDCHAR
STARTCHAR 3169
ENCODING 9305
SWIDTH 1800 0
DWIDTH 18 0
BBX 14 9 2 0
BITMAP
FF10
1110
1110
1110
7110
4128
4128
4524
7944
ENDCHAR
STARTCHAR 316A
ENCODING 9306
SWIDTH 1800 0
DWIDTH 18 0
BBX 13 9 3 0
BITMAP
F9F0
0900
0900
0900
F900
8100
8100
8500
F9F8
ENDCHAR
STARTCHAR 316B
ENCODING 9307
SWIDTH 1800 0
DWIDTH 18 0
BBX 14 9 2 0
BITMAP
F090
1490
1490
1490
7790
44A8
44A8
44A4
7FC4
ENDCHAR
STARTCHAR 316C
ENCODING 9308
SWIDTH 1800 0
DWIDTH 18 0
BBX 12 9 3 0
BITMAP
F800
08C0
08C0
08A0
F920
8120
8210
8210
FBF0
ENDCHAR
STARTCHAR 316D
ENCODING 9309
SWIDTH 1800 0
DWIDTH 18 0
BBX 13 9 3 0
BITMAP
FFF8
0800
0800
09E0
FA30
8210
8210
8730
F9E0
ENDCHAR
STARTCHAR 316E
ENCODING 9310
SWIDTH 1800 0
DWIDTH 18 0
BBX 12 9 3 0
BITMAP
F900
8910
8910
8910
89F0
8910
8910
8910
F9F0
ENDCHAR
STARTCHAR 316F
ENCODING 9311
SWIDTH 1800 0
DWIDTH 18 0
BBX 12 9 3 0
BITMAP
F880
8880
8880
8880
88C0
8940
8920
8A30
F810
ENDCHAR
STARTCHAR 3170
ENCODING 9312
SWIDTH 1800 0
DWIDTH 18 0
BBX 13 9 3 0
BITMAP
F800
88C0
88C0
88A0
8920
8920
8910
8A10
FBF8
ENDCHAR
STARTCHAR 3171
ENCODING 9313
SWIDTH 1800 0
DWIDTH 18 0
BBX 8 12 5 -2
BITMAP
FF
81
81
81
81
FF
00
7E
C3
81
C3
7E
ENDCHAR
STARTCHAR 3172
ENCODING 9314
SWIDTH 1800 0
DWIDTH 18 0
BBX 12 9 3 0
BITMAP
8BF0
8810
8810
F810
8810
8810
8810
8810
F810
ENDCHAR
STARTCHAR 3173
ENCODING 9315
SWIDTH 1800 0
DWIDTH 18 0
BBX 13 9 3 0
BITMAP
89F0
8900
8900
F900
8900
8900
8900
8900
F9F8
ENDCHAR
STARTCHAR 3174
ENCODING 9316
SWIDTH 1800 0
DWIDTH 18 0
BBX 12 9 3 0
BITMAP
A2F0
A210
A210
A210
E210
A510
A510
A490
E890
ENDCHAR
STARTCHAR 3175
ENCODING 9317
SWIDTH 1800 0
DWIDTH 18 0
BBX 13 9 3 0
BITMAP
A478
A440
A440
E440
E440
AA40
AA40
A940
F178
ENDCHAR
STARTCHAR 3176
ENCODING 9318
SWIDTH 1800 0
DWIDTH 18 0
BBX 13 9 3 0
BITMAP
8BF8
8840
8840
F840
88A0
88A0
8910
8B18
FA08
ENDCHAR
STARTCHAR 3177
ENCODING 9319
SWIDTH 1800 0
DWIDTH 18 0
BBX 13 9 3 0
BITMAP
89F8
8900
8900
F900
89F0
8900
8900
8900
F9F8
ENDCHAR
STARTCHAR 3178
ENCODING 9320
SWIDTH 1800 0
DWIDTH 18 0
BBX 8 14 5 -2
BITMAP
01
81
81
FF
81
81
81
FF
00
7E
C3
81
C3
7E
ENDCHAR
STARTCHAR 3179
ENCODING 9321
SWIDTH 1800 0
DWIDTH 18 0
BBX 10 14 4 -2
BITMAP
9240
9240
9240
F3C0
9240
9240
9240
F3C0
0000
3F00
6180
4080
6180
3F00
ENDCHAR
STARTCHAR 317A
ENCODING 9322
SWIDTH 1800 0
DWIDTH 18 0
BBX 12 9 3 0
BITMAP
13F0
1010
1010
1010
2810
2810
2410
4610
8210
ENDCHAR
STARTCHAR 317B
ENCODING 9323
SWIDTH 1800 0
DWIDTH 18 0
BBX 14 9 2 0
BITMAP
1080
1080
1080
1080
1080
2880
2480
4480
82FC
ENDCHAR
STARTCHAR 317C
ENCODING 9324
SWIDTH 1800 0
DWIDTH 18 0
BBX 14 9 2 0
BITMAP
10FC
1080
1080
1080
2880
2880
2480
4280
82FC
ENDCHAR
STARTCHAR 317D
ENCODING 9325
SWIDTH 1800 0
DWIDTH 18 0
BBX 13 9 2 0
BITMAP
1008
1088
1088
10F8
1088
2888
2488
4488
82F8
ENDCHAR
STARTCHAR 317E
ENCODING 9326
SWIDTH 1800 0
DWIDTH 18 0
BBX 13 9 3 0
BITMAP
13F8
1040
1040
1040
28A0
28A0
2510
4318
8208
ENDCHAR
STARTCHAR 317F
ENCODING 9327
SWIDTH 1800 0
DWIDTH 18 0
BBX 10 9 4 0
BITMAP
0800
0C00
1400
1200
2200
2100
4100
4080
FFC0
ENDCHAR
STARTCHAR 3180
ENCODING 9328
SWIDTH 1800 0
DWIDTH 18 0
BBX 12 9 3 0
BITMAP
70E0
D9B0
8910
8910
8910
8910
8910
D9B0
70E0
ENDCHAR
STARTCHAR 3181
ENCODING 9329
SWIDTH 1800 0
DWIDTH 18 0
BBX 10 12 4 -1
BITMAP
0800
0800
0800
3F00
6180
C0C0
8040
8040
8040
4080
6180
1E00
ENDCHAR
STARTCHAR 3182
ENCODING 9330
SWIDTH 1800 0
DWIDTH 18 0
BBX 12 10 3 0
BITMAP
2000
2080
7080
D880
8880
8880
8940
8920
D230
7410
ENDCHAR
STARTCHAR 3183
ENCODING 9331
SWIDTH 1800 0
DWIDTH 18 0
BBX 12 10 3 0
BITMAP
2000
2000
70C0
D8C0
8940
8920
8920
8A10
D210
73F0
ENDCHAR
STARTCHAR 3184
ENCODING 9332
SWIDTH 1800 0
DWIDTH 18 0
BBX 11 13 3 -2
BITMAP
7FE0
1080
1080
1100
1100
FFE0
0000
0000
1F00
2080
2080
2080
1F00
ENDCHAR
STARTCHAR 3185
ENCODING 9333
SWIDTH 1800 0
DWIDTH 18 0
BBX 14 11 2 -1
BITMAP
78F8
0000
0000
FDFC
0000
7870
8C88
8488
8488
8C88
7870
ENDCHAR
STARTCHAR 3186
ENCODING 9334
SWIDTH 1800 0
DWIDTH 18 0
BBX 12 11 3 -1
BITMAP
FFF0
0000
0000
0000
1F00
3180
2080
2080
2080
3180
1F00
ENDCHAR
STARTCHAR 3187
ENCODING 9335
SWIDTH 1800 0
DWIDTH 18 0
BBX 14 15 2 -3
BITMAP
0020
0020
1220
1220
1220
123C
1220
1220
1220
FFFC
E020
0020
0020
0020
0020
ENDCHAR
STARTCHAR 3188
ENCODING 9336
SWIDTH 1800 0
DWIDTH 18 0
BBX 11 16 3 -3
BITMAP
0020
0120
0120
0120
2920
29E0
2920
2920
2920
2FE0
FF20
C120
0120
0120
0120
0020
ENDCHAR
STARTCHAR 3189
ENCODING 9337
SWIDTH 1800 0
DWIDTH 18 0
BBX 11 15 2 -3
BITMAP
0020
0020
0020
1020
1220
1220
1220
1220
1220
1220
FFE0
E020
0020
0020
0020
ENDCHAR
STARTCHAR 318A
ENCODING 9338
SWIDTH 1800 0
DWIDTH 18 0
BBX 12 15 2 -3
BITMAP
0010
0010
0010
01D0
FFD0
1210
1210
12F0
1210
12F0
1210
1210
1210
1210
0010
ENDCHAR
STARTCHAR 318B
ENCODING 9339
SWIDTH 1800 0
DWIDTH 18 0
BBX 12 16 2 -3
BITMAP
0010
0050
0050
0050
0050
0750
FC50
2450
25D0
2450
2450
25D0
2450
2450
2450
0050
ENDCHAR
STARTCHAR 318C
ENCODING 9340
SWIDTH 1800 0
DWIDTH 18 0
BBX 11 15 3 -3
BITMAP
0020
0020
0020
0020
00E0
FFE0
1220
1220
1220
1220
1220
1220
1220
0220
0020
ENDCHAR
STARTCHAR 318D
ENCODING 9341
SWIDTH 1800 0
DWIDTH 18 0
BBX 3 3 7 3
BITMAP
E0
E0
E0
ENDCHAR
STARTCHAR 318E
ENCODING 9342
SWIDTH 1800 0
DWIDTH 18 0
BBX 7 15 5 -3
BITMAP
02
02
02
02
02
02
C2
C2
C2
02
02
02
02
02
02
ENDCHAR
STARTCHAR 2170
ENCODING 9505
SWIDTH 1800 0
DWIDTH 18 0
BBX 1 13 8 0
BITMAP
80
00
00
00
80
80
80
80
80
80
80
80
80
ENDCHAR
STARTCHAR 2171
ENCODING 9506
SWIDTH 1800 0
DWIDTH 18 0
BBX 6 13 6 0
BITMAP
84
00
00
00
84
84
84
84
84
84
84
84
84
ENDCHAR
STARTCHAR 2172
ENCODING 9507
SWIDTH 1800 0
DWIDTH 18 0
BBX 8 13 5 0
BITMAP
91
00
00
00
91
91
91
91
91
91
91
91
91
ENDCHAR
STARTCHAR 2173
ENCODING 9508
SWIDTH 1800 0
DWIDTH 18 0
BBX 8 13 5 0
BITMAP
80
00
00
00
81
91
91
92
8A
8A
8C
84
84
ENDCHAR
STARTCHAR 2174
ENCODING 9509
SWIDTH 1800 0
DWIDTH 18 0
BBX 6 9 6 0
BITMAP
84
88
88
48
50
50
30
20
20
ENDCHAR
STARTCHAR 2175
ENCODING 9510
SWIDTH 1800 0
DWIDTH 18 0
BBX 9 13 4 0
BITMAP
0080
0000
0000
0000
8480
8880
8880
4880
4880
5080
3080
3080
0080
ENDCHAR
STARTCHAR 2176
ENCODING 9511
SWIDTH 1800 0
DWIDTH 18 0
BBX 11 13 3 0
BITMAP
0120
0000
0000
0000
8920
8920
4920
5120
5120
5120
3120
2120
2120
ENDCHAR
STARTCHAR 2177
ENCODING 9512
SWIDTH 1800 0
DWIDTH 18 0
BBX 13 13 2 0
BITMAP
0148
0000
0000
0000
8948
4948
4948
4948
5148
3148
3148
2148
0148
ENDCHAR
STARTCHAR 2178
ENCODING 9513
SWIDTH 1800 0
DWIDTH 18 0
BBX 8 13 5 0
BITMAP
80
00
00
00
90
91
8A
8A
84
86
8A
89
91
ENDCHAR
STARTCHAR 2179
ENCODING 9514
SWIDTH 1800 0
DWIDTH 18 0
BBX 6 9 6 0
BITMAP
84
88
50
30
20
30
50
88
80
ENDCHAR
STARTCHAR 2160
ENCODING 9520
SWIDTH 1800 0
DWIDTH 18 0
BBX 1 13 8 0
BITMAP
80
80
80
80
80
80
80
80
80
80
80
80
80
ENDCHAR
STARTCHAR 2161
ENCODING 9521
SWIDTH 1800 0
DWIDTH 18 0
BBX 6 13 6 0
BITMAP
84
84
84
84
84
84
84
84
84
84
84
84
84
ENDCHAR
STARTCHAR 2162
ENCODING 9522
SWIDTH 1800 0
DWIDTH 18 0
BBX 9 13 4 0
BITMAP
8880
8880
8880
8880
8880
8880
8880
8880
8880
8880
8880
8880
8880
ENDCHAR
STARTCHAR 2163
ENCODING 9523
SWIDTH 1800 0
DWIDTH 18 0
BBX 10 13 4 0
BITMAP
9000
9040
9080
8880
8880
8900
8900
8500
8500
8600
8600
8200
8200
ENDCHAR
STARTCHAR 2164
ENCODING 9524
SWIDTH 1800 0
DWIDTH 18 0
BBX 7 12 5 1
BITMAP
82
82
42
42
44
44
24
28
28
18
18
10
ENDCHAR
STARTCHAR 2165
ENCODING 9525
SWIDTH 1800 0
DWIDTH 18 0
BBX 9 13 4 0
BITMAP
8480
8480
8480
8480
4880
4880
4880
4880
3080
3080
3080
1080
0080
ENDCHAR
STARTCHAR 2166
ENCODING 9526
SWIDTH 1800 0
DWIDTH 18 0
BBX 12 13 2 0
BITMAP
8250
8250
4450
4450
4450
4450
2850
2850
2850
1850
1850
1050
0050
ENDCHAR
STARTCHAR 2167
ENCODING 9527
SWIDTH 1800 0
DWIDTH 18 0
BBX 13 13 2 0
BITMAP
8528
8528
8928
4928
4928
4928
4928
3128
3128
3128
3128
2128
0128
ENDCHAR
STARTCHAR 2168
ENCODING 9528
SWIDTH 1800 0
DWIDTH 18 0
BBX 9 13 4 0
BITMAP
9080
8880
8900
8900
8500
8600
8200
8200
8600
8500
8900
8880
9080
ENDCHAR
STARTCHAR 2169
ENCODING 9529
SWIDTH 1800 0
DWIDTH 18 0
BBX 6 13 6 0
BITMAP
04
84
88
48
50
30
20
30
50
50
48
88
84
ENDCHAR
STARTCHAR 0391
ENCODING 9537
SWIDTH 1800 0
DWIDTH 18 0
BBX 9 12 4 0
BITMAP
0100
0300
0F00
0900
1100
2180
2180
4180
3F80
4080
8080
0080
ENDCHAR
STARTCHAR 0392
ENCODING 9538
SWIDTH 1800 0
DWIDTH 18 0
BBX 10 13 4 0
BITMAP
0E00
1180
1040
1040
2080
2180
3E00
2100
4080
4080
4080
4100
FE00
ENDCHAR
STARTCHAR 0393
ENCODING 9539
SWIDTH 1800 0
DWIDTH 18 0
BBX 10 14 4 -1
BITMAP
01C0
1FC0
1000
1000
2000
2000
2000
2000
4000
4000
4000
8000
8000
8000
ENDCHAR
STARTCHAR 0394
ENCODING 9540
SWIDTH 1800 0
DWIDTH 18 0
BBX 10 13 3 0
BITMAP
0080
0180
0380
0580
0980
0980
1080
20C0
20C0
40C0
80C0
80C0
FFC0
ENDCHAR
STARTCHAR 0395
ENCODING 9541
SWIDTH 1800 0
DWIDTH 18 0
BBX 10 13 4 0
BITMAP
1FC0
1F80
1000
2000
2000
2000
3F00
4000
4000
4000
8000
8000
FE00
ENDCHAR
STARTCHAR 0396
ENCODING 9542
SWIDTH 1800 0
DWIDTH 18 0
BBX 11 13 3 0
BITMAP
1FE0
0060
0040
0080
0100
0200
0600
0C00
0800
1000
2000
4000
FF80
ENDCHAR
STARTCHAR 0397
ENCODING 9543
SWIDTH 1800 0
DWIDTH 18 0
BBX 12 13 3 0
BITMAP
1010
1020
1020
2020
2020
2040
3FC0
4040
4080
4080
8080
8080
8100
ENDCHAR
STARTCHAR 0398
ENCODING 9544
SWIDTH 1800 0
DWIDTH 18 0
BBX 10 13 4 0
BITMAP
1F00
3080
6040
4040
8040
8040
BE40
8080
8080
8080
8100
4200
3C00
ENDCHAR
STARTCHAR 0399
ENCODING 9545
SWIDTH 1800 0
DWIDTH 18 0
BBX 3 12 7 0
BITMAP
20
20
20
20
40
40
40
40
40
40
80
80
ENDCHAR
STARTCHAR 039A
ENCODING 9546
SWIDTH 1800 0
DWIDTH 18 0
BBX 9 13 5 0
BITMAP
2180
2300
4200
4400
4800
5000
6800
4800
8400
8400
8200
8200
8000
ENDCHAR
STARTCHAR 039B
ENCODING 9547
SWIDTH 1800 0
DWIDTH 18 0
BBX 8 12 5 0
BITMAP
0C
0C
14
12
22
22
22
42
42
81
81
01
ENDCHAR
STARTCHAR 039C
ENCODING 9548
SWIDTH 1800 0
DWIDTH 18 0
BBX 12 13 3 0
BITMAP
2000
3030
3060
5060
50A0
50A0
5120
4920
4A40
8A40
8C40
8C40
8840
ENDCHAR
STARTCHAR 039D
ENCODING 9549
SWIDTH 1800 0
DWIDTH 18 0
BBX 10 12 4 0
BITMAP
3040
3080
3080
4880
4880
4880
4480
4500
8500
8300
8300
8300
ENDCHAR
STARTCHAR 039E
ENCODING 9550
SWIDTH 1800 0
DWIDTH 18 0
BBX 10 13 4 0
BITMAP
1FC0
0000
0000
0000
0000
0000
3F00
0000
0000
0000
0000
0000
FF00
ENDCHAR
STARTCHAR 039F
ENCODING 9551
SWIDTH 1800 0
DWIDTH 18 0
BBX 10 12 4 0
BITMAP
3F00
6080
4080
8040
8040
8080
8080
8080
8080
8100
4300
3C00
ENDCHAR
STARTCHAR 03A0
ENCODING 9552
SWIDTH 1800 0
DWIDTH 18 0
BBX 10 12 4 0
BITMAP
3FC0
2080
4080
4080
4080
4080
4080
8100
8100
8100
8100
8100
ENDCHAR
STARTCHAR 03A1
ENCODING 9553
SWIDTH 1800 0
DWIDTH 18 0
BBX 9 12 4 0
BITMAP
1F00
2080
2080
2080
2180
3F00
4000
4000
4000
4000
4000
8000
ENDCHAR
STARTCHAR 03A3
ENCODING 9554
SWIDTH 1800 0
DWIDTH 18 0
BBX 10 13 4 0
BITMAP
3FC0
2000
1000
0800
0800
0400
0400
0C00
0800
1000
2000
4000
FF80
ENDCHAR
STARTCHAR 03A4
ENCODING 9555
SWIDTH 1800 0
DWIDTH 18 0
BBX 8 12 5 0
BITMAP
FF
10
10
10
10
10
10
20
20
20
20
20
ENDCHAR
STARTCHAR 03A5
ENCODING 9556
SWIDTH 1800 0
DWIDTH 18 0
BBX 8 12 5 0
BITMAP
81
41
42
44
2C
28
10
10
20
20
20
20
ENDCHAR
STARTCHAR 03A6
ENCODING 9557
SWIDTH 1800 0
DWIDTH 18 0
BBX 11 13 4 0
BITMAP
0200
0200
1D80
24C0
4440
8460
8860
8860
88C0
4980
3F00
0800
0800
ENDCHAR
STARTCHAR 03A7
ENCODING 9558
SWIDTH 1800 0
DWIDTH 18 0
BBX 9 12 4 0
BITMAP
2080
2100
1100
1200
0C00
0800
0800
1400
2400
4200
4200
8000
ENDCHAR
STARTCHAR 03A8
ENCODING 9559
SWIDTH 1800 0
DWIDTH 18 0
BBX 11 13 4 0
BITMAP
8420
C440
8440
8840
8840
8880
8880
8880
7F00
1000
1000
1000
1000
ENDCHAR
STARTCHAR 03A9
ENCODING 9560
SWIDTH 1800 0
DWIDTH 18 0
BBX 11 13 3 0
BITMAP
0200
1DC0
1040
2020
2020
4020
4020
4020
2040
20C0
1300
1200
F3C0
ENDCHAR
STARTCHAR 03B1
ENCODING 9569
SWIDTH 1800 0
DWIDTH 18 0
BBX 7 10 5 0
BITMAP
38
66
42
82
82
82
84
84
4C
32
ENDCHAR
STARTCHAR 03B2
ENCODING 9570
SWIDTH 1800 0
DWIDTH 18 0
BBX 8 16 5 -3
BITMAP
0E
19
31
21
22
2C
3E
42
42
41
42
62
5C
80
80
80
ENDCHAR
STARTCHAR 03B3
ENCODING 9571
SWIDTH 1800 0
DWIDTH 18 0
BBX 8 13 5 -3
BITMAP
C1
62
62
64
24
24
28
38
30
30
30
70
20
ENDCHAR
STARTCHAR 03B4
ENCODING 9572
SWIDTH 1800 0
DWIDTH 18 0
BBX 8 13 5 0
BITMAP
3F
10
10
08
34
42
82
82
82
82
84
84
78
ENDCHAR
STARTCHAR 03B5
ENCODING 9573
SWIDTH 1800 0
DWIDTH 18 0
BBX 7 10 5 0
BITMAP
3C
46
42
40
38
40
82
84
C4
78
ENDCHAR
STARTCHAR 03B6
ENCODING 9574
SWIDTH 1800 0
DWIDTH 18 0
BBX 8 17 5 -3
BITMAP
3F
02
06
04
08
10
30
20
40
80
80
80
60
18
04
04
38
ENDCHAR
STARTCHAR 03B7
ENCODING 9575
SWIDTH 1800 0
DWIDTH 18 0
BBX 7 13 5 -3
BITMAP
CC
72
62
42
42
42
44
84
84
84
04
04
04
ENDCHAR
STARTCHAR 03B8
ENCODING 9576
SWIDTH 1800 0
DWIDTH 18 0
BBX 8 14 5 0
BITMAP
1C
22
22
41
41
82
FE
82
82
82
82
84
4C
70
ENDCHAR
STARTCHAR 03B9
ENCODING 9577
SWIDTH 1800 0
DWIDTH 18 0
BBX 2 10 8 0
BITMAP
40
40
80
80
80
80
80
80
80
C0
ENDCHAR
STARTCHAR 03BA
ENCODING 9578
SWIDTH 1800 0
DWIDTH 18 0
BBX 8 10 5 0
BITMAP
23
24
48
50
68
48
48
44
84
84
ENDCHAR
STARTCHAR 03BB
ENCODING 9579
SWIDTH 1800 0
DWIDTH 18 0
BBX 8 13 5 0
BITMAP
18
0C
0C
0C
0C
1C
14
24
26
46
46
86
83
ENDCHAR
STARTCHAR 03BC
ENCODING 9580
SWIDTH 1800 0
DWIDTH 18 0
BBX 7 13 5 -3
BITMAP
22
22
42
42
42
42
44
44
4C
B2
80
80
80
ENDCHAR
STARTCHAR 03BD
ENCODING 9581
SWIDTH 1800 0
DWIDTH 18 0
BBX 7 10 5 0
BITMAP
C2
C4
44
44
48
48
50
50
60
60
ENDCHAR
STARTCHAR 03BE
ENCODING 9582
SWIDTH 1800 0
DWIDTH 18 0
BBX 8 16 5 -3
BITMAP
7F
10
20
20
20
10
1C
60
40
80
80
C0
78
04
04
38
ENDCHAR
STARTCHAR 03BF
ENCODING 9583
SWIDTH 1800 0
DWIDTH 18 0
BBX 7 10 5 0
BITMAP
1C
26
42
42
82
82
82
84
44
38
ENDCHAR
STARTCHAR 03C0
ENCODING 9584
SWIDTH 1800 0
DWIDTH 18 0
BBX 8 10 5 0
BITMAP
FF
42
42
42
44
44
84
84
84
84
ENDCHAR
STARTCHAR 03C1
ENCODING 9585
SWIDTH 1800 0
DWIDTH 18 0
BBX 8 13 5 -3
BITMAP
0C
12
21
21
41
41
42
42
44
BC
80
80
80
ENDCHAR
STARTCHAR 03C3
ENCODING 9586
SWIDTH 1800 0
DWIDTH 18 0
BBX 9 10 5 0
BITMAP
1F80
2200
4200
4200
8200
8200
8200
8400
4400
3800
ENDCHAR
STARTCHAR 03C4
ENCODING 9587
SWIDTH 1800 0
DWIDTH 18 0
BBX 6 10 6 0
BITMAP
FC
20
20
20
20
20
20
20
20
30
ENDCHAR
STARTCHAR 03C5
ENCODING 9588
SWIDTH 1800 0
DWIDTH 18 0
BBX 7 10 5 0
BITMAP
42
42
42
42
42
44
84
84
4C
78
ENDCHAR
STARTCHAR 03C6
ENCODING 9589
SWIDTH 1800 0
DWIDTH 18 0
BBX 9 13 4 -3
BITMAP
1300
2480
4880
4880
8880
8880
8880
8900
4B00
3C00
1000
1000
1000
ENDCHAR
STARTCHAR 03C7
ENCODING 9590
SWIDTH 1800 0
DWIDTH 18 0
BBX 7 13 5 -3
BITMAP
62
22
24
14
18
10
10
28
28
48
48
84
82
ENDCHAR
STARTCHAR 03C8
ENCODING 9591
SWIDTH 1800 0
DWIDTH 18 0
BBX 10 13 4 -3
BITMAP
4440
4440
4440
4880
8880
8880
8880
8880
C900
7E00
1000
1000
1000
ENDCHAR
STARTCHAR 03C9
ENCODING 9592
SWIDTH 1800 0
DWIDTH 18 0
BBX 9 10 4 0
BITMAP
1900
2180
4080
4480
4880
8880
8880
8880
5580
6700
ENDCHAR
STARTCHAR 2500
ENCODING 9761
SWIDTH 1800 0
DWIDTH 18 0
BBX 18 1 0 5
BITMAP
FFFFC0
ENDCHAR
STARTCHAR 2502
ENCODING 9762
SWIDTH 1800 0
DWIDTH 18 0
BBX 1 18 9 -4
BITMAP
80
80
80
80
80
80
80
80
80
80
80
80
80
80
80
80
80
80
ENDCHAR
STARTCHAR 250C
ENCODING 9763
SWIDTH 1800 0
DWIDTH 18 0
BBX 10 10 9 -4
BITMAP
FFC0
8000
8000
8000
8000
8000
8000
8000
8000
8000
ENDCHAR
STARTCHAR 2510
ENCODING 9764
SWIDTH 1800 0
DWIDTH 18 0
BBX 10 10 0 -4
BITMAP
FFC0
0040
0040
0040
0040
0040
0040
0040
0040
0040
ENDCHAR
STARTCHAR 2518
ENCODING 9765
SWIDTH 1800 0
DWIDTH 18 0
BBX 10 9 0 5
BITMAP
0040
0040
0040
0040
0040
0040
0040
0040
FFC0
ENDCHAR
STARTCHAR 2514
ENCODING 9766
SWIDTH 1800 0
DWIDTH 18 0
BBX 10 9 9 5
BITMAP
8000
8000
8000
8000
8000
8000
8000
8000
FFC0
ENDCHAR
STARTCHAR 251C
ENCODING 9767
SWIDTH 1800 0
DWIDTH 18 0
BBX 10 18 9 -4
BITMAP
8000
8000
8000
8000
8000
8000
8000
8000
FFC0
8000
8000
8000
8000
8000
8000
8000
8000
8000
ENDCHAR
STARTCHAR 252C
ENCODING 9768
SWIDTH 1800 0
DWIDTH 18 0
BBX 19 10 0 -4
BITMAP
FFFFE0
004000
004000
004000
004000
004000
004000
004000
004000
004000
ENDCHAR
STARTCHAR 2524
ENCODING 9769
SWIDTH 1800 0
DWIDTH 18 0
BBX 10 18 0 -4
BITMAP
0040
0040
0040
0040
0040
0040
0040
0040
FFC0
0040
0040
0040
0040
0040
0040
0040
0040
0040
ENDCHAR
STARTCHAR 2534
ENCODING 9770
SWIDTH 1800 0
DWIDTH 18 0
BBX 19 9 0 5
BITMAP
004000
004000
004000
004000
004000
004000
004000
004000
FFFFE0
ENDCHAR
STARTCHAR 253C
ENCODING 9771
SWIDTH 1800 0
DWIDTH 18 0
BBX 19 18 0 -4
BITMAP
004000
004000
004000
004000
004000
004000
004000
004000
FFFFE0
004000
004000
004000
004000
004000
004000
004000
004000
004000
ENDCHAR
STARTCHAR 2501
ENCODING 9772
SWIDTH 1800 0
DWIDTH 18 0
BBX 18 1 0 5
BITMAP
FFFFC0
ENDCHAR
STARTCHAR 2503
ENCODING 9773
SWIDTH 1800 0
DWIDTH 18 0
BBX 1 18 8 -4
BITMAP
80
80
80
80
80
80
80
80
80
80
80
80
80
80
80
80
80
80
ENDCHAR
STARTCHAR 250F
ENCODING 9774
SWIDTH 1800 0
DWIDTH 18 0
BBX 9 10 8 -4
BITMAP
FF80
8000
8000
8000
8000
8000
8000
8000
8000
8000
ENDCHAR
STARTCHAR 2513
ENCODING 9775
SWIDTH 1800 0
DWIDTH 18 0
BBX 9 10 0 -4
BITMAP
FF80
0080
0080
0080
0080
0080
0080
0080
0080
0080
ENDCHAR
STARTCHAR 251B
ENCODING 9776
SWIDTH 1800 0
DWIDTH 18 0
BBX 9 9 0 5
BITMAP
0080
0080
0080
0080
0080
0080
0080
0080
FF80
ENDCHAR
STARTCHAR 2517
ENCODING 9777
SWIDTH 1800 0
DWIDTH 18 0
BBX 9 9 8 5
BITMAP
8000
8000
8000
8000
8000
8000
8000
8000
FF80
ENDCHAR
STARTCHAR 2523
ENCODING 9778
SWIDTH 1800 0
DWIDTH 18 0
BBX 9 18 8 -4
BITMAP
8000
8000
8000
8000
8000
8000
8000
8000
FF80
8000
8000
8000
8000
8000
8000
8000
8000
8000
ENDCHAR
STARTCHAR 2533
ENCODING 9779
SWIDTH 1800 0
DWIDTH 18 0
BBX 17 10 0 -4
BITMAP
FFFF80
008000
008000
008000
008000
008000
008000
008000
008000
008000
ENDCHAR
STARTCHAR 252B
ENCODING 9780
SWIDTH 1800 0
DWIDTH 18 0
BBX 9 18 0 -4
BITMAP
0080
0080
0080
0080
0080
0080
0080
0080
FF80
0080
0080
0080
0080
0080
0080
0080
0080
0080
ENDCHAR
STARTCHAR 253B
ENCODING 9781
SWIDTH 1800 0
DWIDTH 18 0
BBX 17 9 0 5
BITMAP
008000
008000
008000
008000
008000
008000
008000
008000
FFFF80
ENDCHAR
STARTCHAR 254B
ENCODING 9782
SWIDTH 1800 0
DWIDTH 18 0
BBX 17 18 0 -4
BITMAP
008000
008000
008000
008000
008000
008000
008000
008000
FFFF80
008000
008000
008000
008000
008000
008000
008000
008000
008000
ENDCHAR
STARTCHAR 2520
ENCODING 9783
SWIDTH 1800 0
DWIDTH 18 0
BBX 9 18 8 -4
BITMAP
8000
8000
8000
8000
8000
8000
8000
8000
FF80
8000
8000
8000
8000
8000
8000
8000
8000
8000
ENDCHAR
STARTCHAR 252F
ENCODING 9784
SWIDTH 1800 0
DWIDTH 18 0
BBX 19 10 0 -4
BITMAP
FFFFE0
004000
004000
004000
004000
004000
004000
004000
004000
004000
ENDCHAR
STARTCHAR 2528
ENCODING 9785
SWIDTH 1800 0
DWIDTH 18 0
BBX 9 18 0 -4
BITMAP
0080
0080
0080
0080
0080
0080
0080
0080
FF80
0080
0080
0080
0080
0080
0080
0080
0080
0080
ENDCHAR
STARTCHAR 2537
ENCODING 9786
SWIDTH 1800 0
DWIDTH 18 0
BBX 19 9 0 5
BITMAP
004000
004000
004000
004000
004000
004000
004000
004000
FFFFE0
ENDCHAR
STARTCHAR 253F
ENCODING 9787
SWIDTH 1800 0
DWIDTH 18 0
BBX 19 18 0 -4
BITMAP
004000
004000
004000
004000
004000
004000
004000
004000
FFFFE0
004000
004000
004000
004000
004000
004000
004000
004000
004000
ENDCHAR
STARTCHAR 251D
ENCODING 9788
SWIDTH 1800 0
DWIDTH 18 0
BBX 10 18 9 -4
BITMAP
8000
8000
8000
8000
8000
8000
8000
8000
FFC0
8000
8000
8000
8000
8000
8000
8000
8000
8000
ENDCHAR
STARTCHAR 2530
ENCODING 9789
SWIDTH 1800 0
DWIDTH 18 0
BBX 17 10 0 -4
BITMAP
FFFF80
008000
008000
008000
008000
008000
008000
008000
008000
008000
ENDCHAR
STARTCHAR 2525
ENCODING 9790
SWIDTH 1800 0
DWIDTH 18 0
BBX 10 18 0 -4
BITMAP
0040
0040
0040
0040
0040
0040
0040
0040
FFC0
0040
0040
0040
0040
0040
0040
0040
0040
0040
ENDCHAR
STARTCHAR 2538
ENCODING 9791
SWIDTH 1800 0
DWIDTH 18 0
BBX 17 9 0 5
BITMAP
008000
008000
008000
008000
008000
008000
008000
008000
FFFF80
ENDCHAR
STARTCHAR 2542
ENCODING 9792
SWIDTH 1800 0
DWIDTH 18 0
BBX 17 18 0 -4
BITMAP
008000
008000
008000
008000
008000
008000
008000
008000
FFFF80
008000
008000
008000
008000
008000
008000
008000
008000
008000
ENDCHAR
STARTCHAR 2512
ENCODING 9793
SWIDTH 1800 0
DWIDTH 18 0
BBX 9 10 0 -4
BITMAP
FF80
0080
0080
0080
0080
0080
0080
0080
0080
0080
ENDCHAR
STARTCHAR 2511
ENCODING 9794
SWIDTH 1800 0
DWIDTH 18 0
BBX 10 10 0 -4
BITMAP
FFC0
0040
0040
0040
0040
0040
0040
0040
0040
0040
ENDCHAR
STARTCHAR 251A
ENCODING 9795
SWIDTH 1800 0
DWIDTH 18 0
BBX 9 9 0 5
BITMAP
0080
0080
0080
0080
0080
0080
0080
0080
FF80
ENDCHAR
STARTCHAR 2519
ENCODING 9796
SWIDTH 1800 0
DWIDTH 18 0
BBX 10 10 0 5
BITMAP
0040
0040
0040
0040
0040
0040
0040
0040
0040
FFC0
ENDCHAR
STARTCHAR 2516
ENCODING 9797
SWIDTH 1800 0
DWIDTH 18 0
BBX 9 9 8 5
BITMAP
8000
8000
8000
8000
8000
8000
8000
8000
FF80
ENDCHAR
STARTCHAR 2515
ENCODING 9798
SWIDTH 1800 0
DWIDTH 18 0
BBX 10 9 9 5
BITMAP
8000
8000
8000
8000
8000
8000
8000
8000
FFC0
ENDCHAR
STARTCHAR 250E
ENCODING 9799
SWIDTH 1800 0
DWIDTH 18 0
BBX 9 10 8 -4
BITMAP
FF80
8000
8000
8000
8000
8000
8000
8000
8000
8000
ENDCHAR
STARTCHAR 250D
ENCODING 9800
SWIDTH 1800 0
DWIDTH 18 0
BBX 10 10 9 -4
BITMAP
FFC0
8000
8000
8000
8000
8000
8000
8000
8000
8000
ENDCHAR
STARTCHAR 251E
ENCODING 9801
SWIDTH 1800 0
DWIDTH 18 0
BBX 9 18 8 -4
BITMAP
8000
8000
8000
8000
8000
8000
8000
8000
FF80
4000
4000
4000
4000
4000
4000
4000
4000
4000
ENDCHAR
STARTCHAR 251F
ENCODING 9802
SWIDTH 1800 0
DWIDTH 18 0
BBX 9 18 8 -4
BITMAP
4000
4000
4000
4000
4000
4000
4000
4000
7F80
8000
8000
8000
8000
8000
8000
8000
8000
8000
ENDCHAR
STARTCHAR 2521
ENCODING 9803
SWIDTH 1800 0
DWIDTH 18 0
BBX 9 18 8 -4
BITMAP
8000
8000
8000
8000
8000
8000
8000
8000
FF80
4000
4000
4000
4000
4000
4000
4000
4000
4000
ENDCHAR
STARTCHAR 2522
ENCODING 9804
SWIDTH 1800 0
DWIDTH 18 0
BBX 9 18 9 -4
BITMAP
8000
8000
8000
8000
8000
8000
8000
8000
FF80
8000
8000
8000
8000
8000
8000
8000
8000
8000
ENDCHAR
STARTCHAR 2526
ENCODING 9805
SWIDTH 1800 0
DWIDTH 18 0
BBX 10 18 0 -4
BITMAP
0080
0080
0080
0080
0080
0080
0080
0080
FF80
0040
0040
0040
0040
0040
0040
0040
0040
0040
ENDCHAR
STARTCHAR 2527
ENCODING 9806
SWIDTH 1800 0
DWIDTH 18 0
BBX 10 18 0 -4
BITMAP
0040
0040
0040
0040
0040
0040
0040
0040
FFC0
0080
0080
0080
0080
0080
0080
0080
0080
0080
ENDCHAR
STARTCHAR 2529
ENCODING 9807
SWIDTH 1800 0
DWIDTH 18 0
BBX 10 18 0 -4
BITMAP
0080
0080
0080
0080
0080
0080
0080
0080
FF80
0040
0040
0040
0040
0040
0040
0040
0040
0040
ENDCHAR
STARTCHAR 252A
ENCODING 9808
SWIDTH 1800 0
DWIDTH 18 0
BBX 10 18 0 -4
BITMAP
0040
0040
0040
0040
0040
0040
0040
0040
FFC0
0080
0080
0080
0080
0080
0080
0080
0080
0080
ENDCHAR
STARTCHAR 252D
ENCODING 9809
SWIDTH 1800 0
DWIDTH 18 0
BBX 19 10 0 -4
BITMAP
FFFFE0
004000
004000
004000
004000
004000
004000
004000
004000
004000
ENDCHAR
STARTCHAR 252E
ENCODING 9810
SWIDTH 1800 0
DWIDTH 18 0
BBX 19 10 0 -4
BITMAP
FFFFE0
004000
004000
004000
004000
004000
004000
004000
004000
004000
ENDCHAR
STARTCHAR 2531
ENCODING 9811
SWIDTH 1800 0
DWIDTH 18 0
BBX 17 10 0 -4
BITMAP
FFFF80
008000
008000
008000
008000
008000
008000
008000
008000
008000
ENDCHAR
STARTCHAR 2532
ENCODING 9812
SWIDTH 1800 0
DWIDTH 18 0
BBX 17 10 0 -4
BITMAP
FFFF80
008000
008000
008000
008000
008000
008000
008000
008000
008000
ENDCHAR
STARTCHAR 2535
ENCODING 9813
SWIDTH 1800 0
DWIDTH 18 0
BBX 19 9 0 5
BITMAP
004000
004000
004000
004000
004000
004000
004000
004000
FFFFE0
ENDCHAR
STARTCHAR 2536
ENCODING 9814
SWIDTH 1800 0
DWIDTH 18 0
BBX 19 9 0 5
BITMAP
004000
004000
004000
004000
004000
004000
004000
004000
FFFFE0
ENDCHAR
STARTCHAR 2539
ENCODING 9815
SWIDTH 1800 0
DWIDTH 18 0
BBX 17 9 0 5
BITMAP
008000
008000
008000
008000
008000
008000
008000
008000
FFFF80
ENDCHAR
STARTCHAR 253A
ENCODING 9816
SWIDTH 1800 0
DWIDTH 18 0
BBX 17 9 0 5
BITMAP
008000
008000
008000
008000
008000
008000
008000
008000
FFFF80
ENDCHAR
STARTCHAR 253D
ENCODING 9817
SWIDTH 1800 0
DWIDTH 18 0
BBX 19 18 0 -4
BITMAP
004000
004000
004000
004000
004000
004000
004000
004000
FFFFE0
004000
004000
004000
004000
004000
004000
004000
004000
004000
ENDCHAR
STARTCHAR 253E
ENCODING 9818
SWIDTH 1800 0
DWIDTH 18 0
BBX 19 18 0 -4
BITMAP
004000
004000
004000
004000
004000
004000
004000
004000
FFFFE0
004000
004000
004000
004000
004000
004000
004000
004000
004000
ENDCHAR
STARTCHAR 2540
ENCODING 9819
SWIDTH 1800 0
DWIDTH 18 0
BBX 17 18 0 -4
BITMAP
008000
008000
008000
008000
008000
008000
008000
008000
FFFF80
004000
004000
004000
004000
004000
004000
004000
004000
004000
ENDCHAR
STARTCHAR 2541
ENCODING 9820
SWIDTH 1800 0
DWIDTH 18 0
BBX 17 18 0 -4
BITMAP
004000
004000
004000
004000
004000
004000
004000
004000
FFFF80
008000
008000
008000
008000
008000
008000
008000
008000
008000
ENDCHAR
STARTCHAR 2543
ENCODING 9821
SWIDTH 1800 0
DWIDTH 18 0
BBX 17 18 0 -4
BITMAP
008000
008000
008000
008000
008000
008000
008000
008000
FFFF80
004000
004000
004000
004000
004000
004000
004000
004000
004000
ENDCHAR
STARTCHAR 2544
ENCODING 9822
SWIDTH 1800 0
DWIDTH 18 0
BBX 17 18 0 -4
BITMAP
008000
008000
008000
008000
008000
008000
008000
008000
FFFF80
004000
004000
004000
004000
004000
004000
004000
004000
004000
ENDCHAR
STARTCHAR 2545
ENCODING 9823
SWIDTH 1800 0
DWIDTH 18 0
BBX 17 18 0 -4
BITMAP
004000
004000
004000
004000
004000
004000
004000
004000
FFFF80
008000
008000
008000
008000
008000
008000
008000
008000
008000
ENDCHAR
STARTCHAR 2546
ENCODING 9824
SWIDTH 1800 0
DWIDTH 18 0
BBX 17 18 0 -4
BITMAP
004000
004000
004000
004000
004000
004000
004000
004000
FFFF80
008000
008000
008000
008000
008000
008000
008000
008000
008000
ENDCHAR
STARTCHAR 2547
ENCODING 9825
SWIDTH 1800 0
DWIDTH 18 0
BBX 17 18 0 -4
BITMAP
008000
008000
008000
008000
008000
008000
008000
008000
FFFF80
004000
004000
004000
004000
004000
004000
004000
004000
004000
ENDCHAR
STARTCHAR 2548
ENCODING 9826
SWIDTH 1800 0
DWIDTH 18 0
BBX 17 18 0 -4
BITMAP
004000
004000
004000
004000
004000
004000
004000
004000
FFFF80
008000
008000
008000
008000
008000
008000
008000
008000
008000
ENDCHAR
STARTCHAR 2549
ENCODING 9827
SWIDTH 1800 0
DWIDTH 18 0
BBX 17 18 0 -4
BITMAP
008000
008000
008000
008000
008000
008000
008000
008000
FFFF80
008000
008000
008000
008000
008000
008000
008000
008000
008000
ENDCHAR
STARTCHAR 254A
ENCODING 9828
SWIDTH 1800 0
DWIDTH 18 0
BBX 17 18 0 -4
BITMAP
008000
008000
008000
008000
008000
008000
008000
008000
FFFF80
008000
008000
008000
008000
008000
008000
008000
008000
008000
ENDCHAR
STARTCHAR 3395
ENCODING 10017
SWIDTH 1800 0
DWIDTH 18 0
BBX 14 14 2 -1
BITMAP
0038
0024
1144
1148
2188
2288
2290
4290
44A0
44C4
4584
C848
B878
8000
ENDCHAR
STARTCHAR 3396
ENCODING 10018
SWIDTH 1800 0
DWIDTH 18 0
BBX 14 13 2 0
BITMAP
0038
0068
0048
EC48
9488
9488
9490
9490
94A0
94C4
9584
9448
9470
ENDCHAR
STARTCHAR 3397
ENCODING 10019
SWIDTH 1800 0
DWIDTH 18 0
BBX 14 14 2 0
BITMAP
0200
0238
0268
1A48
2E48
4688
8688
8690
8690
86A0
86C4
4784
4648
3E70
ENDCHAR
STARTCHAR 2113
ENCODING 10020
SWIDTH 1800 0
DWIDTH 18 0
BBX 7 13 5 0
BITMAP
1C
34
24
24
44
44
48
48
50
62
C4
24
38
ENDCHAR
STARTCHAR 3398
ENCODING 10021
SWIDTH 1800 0
DWIDTH 18 0
BBX 14 13 2 0
BITMAP
8038
8024
8044
8448
8888
9888
9090
A090
A0A0
90C4
8984
8448
8478
ENDCHAR
STARTCHAR 33C4
ENCODING 10022
SWIDTH 1800 0
DWIDTH 18 0
BBX 13 11 2 0
BITMAP
3870
4C98
8508
8508
8100
8100
8100
8508
8508
4C88
3870
ENDCHAR
STARTCHAR 33A3
ENCODING 10023
SWIDTH 1800 0
DWIDTH 18 0
BBX 14 13 2 0
BITMAP
0004
0004
0004
FBE4
AAA8
AAA0
AAA0
AAA0
AAA0
AAA0
AAA0
AAA0
AAA0
ENDCHAR
STARTCHAR 33A4
ENCODING 10024
SWIDTH 1800 0
DWIDTH 18 0
BBX 15 13 1 0
BITMAP
0006
0002
0002
72B6
CB50
8A50
8A50
8250
8250
8A50
8A50
4A50
7250
ENDCHAR
STARTCHAR 33A5
ENCODING 10025
SWIDTH 1800 0
DWIDTH 18 0
BBX 14 13 2 0
BITMAP
000C
0004
0004
B9CC
CE20
8420
8420
8420
8420
8420
8420
8420
8420
ENDCHAR
STARTCHAR 33A6
ENCODING 10026
SWIDTH 1800 0
DWIDTH 18 0
BBX 14 14 2 -1
BITMAP
800C
8004
8004
976C
94A0
A4A0
A4A0
C4A0
C4A0
A4A0
A4A0
94A0
94A0
8000
ENDCHAR
STARTCHAR 3399
ENCODING 10027
SWIDTH 1800 0
DWIDTH 18 0
BBX 15 14 1 0
BITMAP
0400
1A00
1000
1000
FEBE
10D2
1092
1092
1092
1092
1092
1092
1092
1092
ENDCHAR
STARTCHAR 339A
ENCODING 10028
SWIDTH 1800 0
DWIDTH 18 0
BBX 14 10 2 0
BITMAP
F9DC
8924
8924
8924
8924
8924
8924
8924
8924
8924
ENDCHAR
STARTCHAR 339B
ENCODING 10029
SWIDTH 1800 0
DWIDTH 18 0
BBX 14 11 2 -1
BITMAP
12EC
2294
2294
2494
4494
4494
4494
4894
C894
B894
8000
ENDCHAR
STARTCHAR 339C
ENCODING 10030
SWIDTH 1800 0
DWIDTH 18 0
BBX 14 10 2 0
BITMAP
ECEC
94B4
94A4
94A4
94A4
94A4
94A4
94A4
94A4
94A4
ENDCHAR
STARTCHAR 339D
ENCODING 10031
SWIDTH 1800 0
DWIDTH 18 0
BBX 14 10 2 0
BITMAP
79FC
4D24
8524
8524
8124
8124
8524
8524
4D24
3924
ENDCHAR
STARTCHAR 339E
ENCODING 10032
SWIDTH 1800 0
DWIDTH 18 0
BBX 14 14 2 -1
BITMAP
8000
8000
8000
8ED8
8B24
9224
A224
A224
A224
B224
9224
8A24
8E24
8000
ENDCHAR
STARTCHAR 339F
ENCODING 10033
SWIDTH 1800 0
DWIDTH 18 0
BBX 14 14 2 0
BITMAP
000C
000C
0004
0008
FBEC
AAA0
AAA0
AAA0
AAA0
AAA0
AAA0
AAA0
AAA0
AAA0
ENDCHAR
STARTCHAR 33A0
ENCODING 10034
SWIDTH 1800 0
DWIDTH 18 0
BBX 15 14 2 0
BITMAP
000C
000C
0004
0008
67EE
D4A0
94A0
94A0
84A0
84A0
94A0
94A0
D4A0
64A0
ENDCHAR
STARTCHAR 33A1
ENCODING 10035
SWIDTH 1800 0
DWIDTH 18 0
BBX 14 14 2 0
BITMAP
000C
000C
0004
0008
B9CC
CE20
8420
8420
8420
8420
8420
8420
8420
8420
ENDCHAR
STARTCHAR 33A2
ENCODING 10036
SWIDTH 1800 0
DWIDTH 18 0
BBX 14 14 2 0
BITMAP
000C
800C
8004
8008
976C
94A0
A4A0
A4A0
C4A0
C4A0
A4A0
A4A0
94A0
94A0
ENDCHAR
STARTCHAR 33CA
ENCODING 10037
SWIDTH 1800 0
DWIDTH 18 0
BBX 14 14 2 -1
BITMAP
8000
8000
8000
9038
E844
8404
8404
843C
8444
8484
8484
848C
8474
0400
ENDCHAR
STARTCHAR 338D
ENCODING 10038
SWIDTH 1800 0
DWIDTH 18 0
BBX 14 12 2 -1
BITMAP
0004
22F8
2288
2488
2478
4480
44F0
488C
4904
D904
A8F8
8000
ENDCHAR
STARTCHAR 338E
ENCODING 10039
SWIDTH 1800 0
DWIDTH 18 0
BBX 14 11 2 0
BITMAP
0004
B8F8
E888
A888
A888
A970
A8E0
A898
A904
A904
A8F8
ENDCHAR
STARTCHAR 338F
ENCODING 10040
SWIDTH 1800 0
DWIDTH 18 0
BBX 14 14 2 -1
BITMAP
8000
8000
8008
84F8
8908
9188
A0F0
A100
A0F0
9108
9904
8904
84F8
8000
ENDCHAR
STARTCHAR 33CF
ENCODING 10041
SWIDTH 1800 0
DWIDTH 18 0
BBX 14 14 2 -1
BITMAP
8040
8040
8040
8440
85F8
8840
9040
A040
A040
9040
8840
8C44
8438
8000
ENDCHAR
STARTCHAR 3388
ENCODING 10042
SWIDTH 1800 0
DWIDTH 18 0
BBX 14 13 2 0
BITMAP
0004
0004
0004
71C4
4B24
8824
8824
81E4
8224
8A24
8C24
4A64
71E4
ENDCHAR
STARTCHAR 3389
ENCODING 10043
SWIDTH 1800 0
DWIDTH 18 0
BBX 14 13 2 0
BITMAP
8004
8004
8004
96E4
A514
A914
A934
C854
A894
A994
A994
9994
9674
ENDCHAR
STARTCHAR 33C8
ENCODING 10044
SWIDTH 1800 0
DWIDTH 18 0
BBX 14 14 2 0
BITMAP
05F8
050C
0504
0504
7D04
CD08
85F8
850C
8504
8504
8504
8504
4508
39F8
ENDCHAR
STARTCHAR 33A7
ENCODING 10045
SWIDTH 1800 0
DWIDTH 18 0
BBX 14 15 2 -2
BITMAP
EE00
9208
9210
9220
9240
9280
0100
0200
04F0
0888
1080
2078
4004
8084
0078
ENDCHAR
STARTCHAR 33A8
ENCODING 10046
SWIDTH 1800 0
DWIDTH 18 0
BBX 14 15 2 -2
BITMAP
FE04
9208
9210
9220
9240
9284
0108
020C
05C0
0B20
1100
20E0
4010
8210
01E0
ENDCHAR
STARTCHAR 33B0
ENCODING 10047
SWIDTH 1800 0
DWIDTH 18 0
BBX 14 12 2 -2
BITMAP
B078
C888
8480
8480
8460
8418
8404
8504
C88C
B878
8000
8000
ENDCHAR
STARTCHAR 33B1
ENCODING 10048
SWIDTH 1800 0
DWIDTH 18 0
BBX 14 10 2 0
BITMAP
BC78
C488
8580
8480
8460
8418
8404
8504
848C
8478
ENDCHAR
STARTCHAR 33B2
ENCODING 10049
SWIDTH 1800 0
DWIDTH 18 0
BBX 14 11 2 -1
BITMAP
2278
2284
2284
44C0
4430
440C
4404
8884
C884
B878
8000
ENDCHAR
STARTCHAR 33B3
ENCODING 10050
SWIDTH 1800 0
DWIDTH 18 0
BBX 14 10 2 0
BITMAP
F878
A888
A884
A880
A860
A818
A804
A884
A88C
A878
ENDCHAR
STARTCHAR 33B4
ENCODING 10051
SWIDTH 1800 0
DWIDTH 18 0
BBX 14 15 2 -2
BITMAP
0104
0104
0108
9088
EC88
8488
8288
8250
8250
8250
8250
C470
B820
8000
8000
ENDCHAR
STARTCHAR 33B5
ENCODING 10052
SWIDTH 1800 0
DWIDTH 18 0
BBX 14 13 2 0
BITMAP
0104
0104
0108
BE88
C288
8288
8288
8250
8250
8250
8250
8270
8220
ENDCHAR
STARTCHAR 33B6
ENCODING 10053
SWIDTH 1800 0
DWIDTH 18 0
BBX 14 14 2 -1
BITMAP
0104
0084
0084
2284
2288
2488
4448
4448
4448
4850
4830
C830
B830
8000
ENDCHAR
STARTCHAR 33B7
ENCODING 10054
SWIDTH 1800 0
DWIDTH 18 0
BBX 14 13 2 0
BITMAP
0104
0104
0088
EC88
9488
9488
9488
9450
9450
9450
9450
9430
9420
ENDCHAR
STARTCHAR 33B8
ENCODING 10055
SWIDTH 1800 0
DWIDTH 18 0
BBX 14 14 2 0
BITMAP
8000
8104
8104
8108
8488
8888
9088
A088
A050
A050
9050
8850
8C70
8620
ENDCHAR
STARTCHAR 33B9
ENCODING 10056
SWIDTH 1800 0
DWIDTH 18 0
BBX 14 14 2 0
BITMAP
0100
CD04
CD04
CC84
CC88
D488
D488
D488
D448
B450
B450
B450
B430
A420
ENDCHAR
STARTCHAR 3380
ENCODING 10057
SWIDTH 1800 0
DWIDTH 18 0
BBX 14 15 2 -2
BITMAP
0020
0030
0050
BC50
C450
8250
8288
8288
8288
82F8
C488
B904
8104
8004
8000
ENDCHAR
STARTCHAR 3381
ENCODING 10058
SWIDTH 1800 0
DWIDTH 18 0
BBX 14 14 2 -1
BITMAP
0020
0030
0050
BC50
C450
8450
8488
8488
8488
84F8
8488
8504
8504
0004
ENDCHAR
STARTCHAR 3382
ENCODING 10059
SWIDTH 1800 0
DWIDTH 18 0
BBX 14 14 2 -1
BITMAP
0030
0030
0050
2150
2148
2248
2248
4288
44F8
4484
4484
CC84
B400
8000
ENDCHAR
STARTCHAR 3383
ENCODING 10060
SWIDTH 1800 0
DWIDTH 18 0
BBX 14 14 2 -1
BITMAP
0020
0030
0050
EC50
9450
9450
9448
9488
9488
94F8
9488
9484
9504
0004
ENDCHAR
STARTCHAR 3384
ENCODING 10061
SWIDTH 1800 0
DWIDTH 18 0
BBX 14 14 2 -1
BITMAP
8020
8060
8050
8450
8850
9050
A090
A088
A088
90F8
9888
8908
8504
0004
ENDCHAR
STARTCHAR 33BA
ENCODING 10062
SWIDTH 1800 0
DWIDTH 18 0
BBX 14 15 2 -2
BITMAP
0324
0324
0364
B374
CB74
8554
8554
8554
855C
8598
8D88
C988
B188
8000
8000
ENDCHAR
STARTCHAR 33BB
ENCODING 10063
SWIDTH 1800 0
DWIDTH 18 0
BBX 14 13 2 0
BITMAP
0324
0324
0324
FF74
8774
8554
8554
8554
855C
8598
8588
8588
8588
ENDCHAR
STARTCHAR 33BC
ENCODING 10064
SWIDTH 1800 0
DWIDTH 18 0
BBX 14 14 2 -1
BITMAP
0334
0354
0354
4754
4754
4554
4554
8954
894C
8984
8984
C984
F984
8000
ENDCHAR
STARTCHAR 33BD
ENCODING 10065
SWIDTH 1800 0
DWIDTH 18 0
BBX 14 13 2 0
BITMAP
0324
0324
0364
AF64
D774
9554
9554
9554
9594
9598
9598
9588
9588
ENDCHAR
STARTCHAR 33BE
ENCODING 10066
SWIDTH 1800 0
DWIDTH 18 0
BBX 13 13 2 0
BITMAP
8448
84C8
84C8
8AC8
9AC8
92A8
A2A8
A2A8
A3B0
91B0
9130
8930
8510
ENDCHAR
STARTCHAR 33BF
ENCODING 10067
SWIDTH 1800 0
DWIDTH 18 0
BBX 14 13 2 0
BITMAP
CD34
CD34
CD54
CCD4
CCD4
CCD4
D4D8
D4D8
D4D8
B458
B458
B458
A458
ENDCHAR
STARTCHAR 3390
ENCODING 10068
SWIDTH 1800 0
DWIDTH 18 0
BBX 14 13 2 0
BITMAP
8400
8400
8400
84FC
8408
8410
FC10
8420
8440
8440
8480
8480
85FC
ENDCHAR
STARTCHAR 3391
ENCODING 10069
SWIDTH 1800 0
DWIDTH 18 0
BBX 14 14 2 -1
BITMAP
8480
8480
8480
94BC
A484
A488
C788
C488
C490
A490
A4A0
94A0
94BC
0480
ENDCHAR
STARTCHAR 3392
ENCODING 10070
SWIDTH 1800 0
DWIDTH 18 0
BBX 14 14 2 0
BITMAP
0200
8A40
9A40
9A40
9A7C
9A44
DBC8
DA48
DA48
DA50
DA50
EA50
AA60
AA5C
ENDCHAR
STARTCHAR 3393
ENCODING 10071
SWIDTH 1800 0
DWIDTH 18 0
BBX 14 14 2 -1
BITMAP
7440
4C40
8C40
8C5C
8444
8444
87C8
9C48
8C48
8C50
8C50
8C50
4C5C
3C40
ENDCHAR
STARTCHAR 3394
ENCODING 10072
SWIDTH 1800 0
DWIDTH 18 0
BBX 14 15 2 -1
BITMAP
F800
2240
2240
2240
227C
2244
2244
23C8
2248
2250
2250
2250
2260
227C
0240
ENDCHAR
STARTCHAR 2126
ENCODING 10073
SWIDTH 1800 0
DWIDTH 18 0
BBX 12 13 3 0
BITMAP
0F00
30C0
2040
4020
4020
4020
4020
6040
30C0
1980
0900
0900
F9F0
ENDCHAR
STARTCHAR 33C0
ENCODING 10074
SWIDTH 1800 0
DWIDTH 18 0
BBX 14 15 2 -1
BITMAP
00F0
8198
8108
8204
8A04
9204
9204
A204
A108
A088
A050
9050
8850
8DDC
8000
ENDCHAR
STARTCHAR 33C1
ENCODING 10075
SWIDTH 1800 0
DWIDTH 18 0
BBX 14 14 2 0
BITMAP
00F0
8D98
9508
9604
9604
9604
D604
D604
D508
D508
D490
E490
A490
A79C
ENDCHAR
STARTCHAR 338A
ENCODING 10076
SWIDTH 1800 0
DWIDTH 18 0
BBX 14 15 2 -2
BITMAP
01FC
0100
0100
9100
E900
85F8
8500
8500
8500
8500
8500
C900
B900
8000
8000
ENDCHAR
STARTCHAR 338B
ENCODING 10077
SWIDTH 1800 0
DWIDTH 18 0
BBX 14 14 2 0
BITMAP
00FC
0080
0080
0080
FC80
8480
84FC
8480
8480
8480
8480
8480
8480
8480
ENDCHAR
STARTCHAR 338C
ENCODING 10078
SWIDTH 1800 0
DWIDTH 18 0
BBX 14 15 2 -1
BITMAP
00FC
0080
0080
0080
2280
2280
22FC
4480
4480
4480
4480
4880
C880
F080
8080
ENDCHAR
STARTCHAR 33D6
ENCODING 10079
SWIDTH 1800 0
DWIDTH 18 0
BBX 14 13 2 0
BITMAP
0004
0004
0004
ECE4
94A4
9514
9514
9514
9514
9514
9514
94A4
94E4
ENDCHAR
STARTCHAR 33C5
ENCODING 10080
SWIDTH 1800 0
DWIDTH 18 0
BBX 14 13 2 0
BITMAP
0004
0004
0004
3C34
464C
8284
8284
8084
8084
8284
8484
444C
383C
ENDCHAR
STARTCHAR 33AD
ENCODING 10081
SWIDTH 1800 0
DWIDTH 18 0
BBX 14 14 2 -1
BITMAP
0004
0004
0004
B314
C4AC
84C4
81C4
82C4
84C4
88C4
88C4
84C4
87BC
0014
ENDCHAR
STARTCHAR 33AE
ENCODING 10082
SWIDTH 1800 0
DWIDTH 18 0
BBX 14 15 2 -2
BITMAP
0020
0020
ACE0
D520
8D20
B520
A5EC
9838
0060
0098
0324
0410
180C
2024
4018
ENDCHAR
STARTCHAR 33AF
ENCODING 10083
SWIDTH 1800 0
DWIDTH 18 0
BBX 16 15 1 -2
BITMAP
0020
0020
ACE0
D520
8D20
B522
A5E4
981A
0022
00DB
0128
0618
0828
1028
0010
ENDCHAR
STARTCHAR 33DB
ENCODING 10084
SWIDTH 1800 0
DWIDTH 18 0
BBX 13 10 3 0
BITMAP
78B8
8CC0
8480
8080
6080
1880
0480
8480
8C80
7880
ENDCHAR
STARTCHAR 33A9
ENCODING 10085
SWIDTH 1800 0
DWIDTH 18 0
BBX 14 13 2 0
BITMAP
F800
8400
8200
8278
8244
8284
8404
F83C
80C4
8084
8084
808C
8074
ENDCHAR
STARTCHAR 33AA
ENCODING 10086
SWIDTH 1800 0
DWIDTH 18 0
BBX 14 13 2 0
BITMAP
8780
8480
8480
94B8
A4C4
A4C4
A484
C71C
A424
A424
9424
9424
941C
ENDCHAR
STARTCHAR 33AB
ENCODING 10087
SWIDTH 1800 0
DWIDTH 18 0
BBX 14 14 2 -1
BITMAP
8B80
9A40
9A40
9A5C
9A64
DA64
DACC
DB94
DA24
DA24
EA24
AA24
AA1C
0200
ENDCHAR
STARTCHAR 33AC
ENCODING 10088
SWIDTH 1800 0
DWIDTH 18 0
BBX 14 14 2 0
BITMAP
3000
4BC0
4A40
8A40
8278
8244
8244
9A44
8B9C
8A24
8A24
8A24
5A24
7A3C
ENDCHAR
STARTCHAR 33DD
ENCODING 10089
SWIDTH 1800 0
DWIDTH 18 0
BBX 15 14 1 0
BITMAP
0040
CD40
D540
D540
D57C
D566
5542
5642
5642
5642
6642
6644
6664
6658
ENDCHAR
STARTCHAR 33D0
ENCODING 10090
SWIDTH 1800 0
DWIDTH 18 0
BBX 12 14 3 0
BITMAP
8000
8000
8000
8000
9760
9990
9110
9110
9110
9110
9110
9110
9110
9110
ENDCHAR
STARTCHAR 33D3
ENCODING 10091
SWIDTH 1800 0
DWIDTH 18 0
BBX 10 14 4 -1
BITMAP
8000
8000
8000
9040
8880
8480
8500
8300
8300
8300
8480
8880
8840
8000
ENDCHAR
STARTCHAR 33C3
ENCODING 10092
SWIDTH 1800 0
DWIDTH 18 0
BBX 14 15 2 -1
BITMAP
F800
8C00
8400
8404
84FC
888C
F904
8504
8504
8304
8284
828C
8474
F804
0004
ENDCHAR
STARTCHAR 33C9
ENCODING 10093
SWIDTH 1800 0
DWIDTH 18 0
BBX 14 16 2 -2
BITMAP
3800
4400
8200
8200
8084
8084
8088
8E88
8248
8250
8250
8250
4620
3A20
0020
00C0
ENDCHAR
STARTCHAR 33DC
ENCODING 10094
SWIDTH 1800 0
DWIDTH 18 0
BBX 14 14 2 0
BITMAP
3800
4400
8200
8000
8084
4084
3048
0C48
0248
0248
8230
8230
4630
3C10
ENDCHAR
STARTCHAR 33C6
ENCODING 10095
SWIDTH 1800 0
DWIDTH 18 0
BBX 14 15 2 -2
BITMAP
6000
8400
8400
8800
8800
8C00
7400
1494
2538
2538
2538
44A0
44DC
8044
803C
ENDCHAR
STARTCHAR 00C6
ENCODING 10273
SWIDTH 1800 0
DWIDTH 18 0
BBX 14 12 2 0
BITMAP
03F8
0600
0A00
0A00
1200
13F8
2200
3E00
4200
4200
8200
03FC
ENDCHAR
STARTCHAR 00D0
ENCODING 10274
SWIDTH 1800 0
DWIDTH 18 0
BBX 10 12 4 0
BITMAP
3E00
2180
2080
2040
2040
FC40
2040
2040
2040
2080
2180
3F00
ENDCHAR
STARTCHAR 00AA
ENCODING 10275
SWIDTH 1800 0
DWIDTH 18 0
BBX 8 12 5 0
BITMAP
38
46
82
02
3E
42
82
82
CE
31
00
FF
ENDCHAR
STARTCHAR 0126
ENCODING 10276
SWIDTH 1800 0
DWIDTH 18 0
BBX 12 12 3 0
BITMAP
2040
2040
FFF0
2040
2040
3FC0
2040
2040
2040
2040
2040
2040
ENDCHAR
STARTCHAR 0132
ENCODING 10278
SWIDTH 1800 0
DWIDTH 18 0
BBX 8 12 5 0
BITMAP
81
81
81
81
81
81
81
81
A1
A1
A3
9E
ENDCHAR
STARTCHAR 013F
ENCODING 10280
SWIDTH 1800 0
DWIDTH 18 0
BBX 7 12 6 0
BITMAP
80
80
80
80
80
90
90
80
80
80
80
FE
ENDCHAR
STARTCHAR 0141
ENCODING 10281
SWIDTH 1800 0
DWIDTH 18 0
BBX 9 12 4 0
BITMAP
2000
2400
2800
2800
3000
2000
2000
6000
A000
2000
2000
3F80
ENDCHAR
STARTCHAR 00D8
ENCODING 10282
SWIDTH 1800 0
DWIDTH 18 0
BBX 11 13 3 -1
BITMAP
1F20
30C0
20C0
4140
4240
4220
4420
4840
5040
2040
3080
5F00
8000
ENDCHAR
STARTCHAR 0152
ENCODING 10283
SWIDTH 1800 0
DWIDTH 18 0
BBX 14 12 2 0
BITMAP
3FFC
6200
4200
8200
8200
83F8
8200
8200
8200
4200
4200
3FFC
ENDCHAR
STARTCHAR 00BA
ENCODING 10284
SWIDTH 1800 0
DWIDTH 18 0
BBX 8 12 5 0
BITMAP
18
66
C3
81
81
81
81
C2
66
18
00
FF
ENDCHAR
STARTCHAR 00DE
ENCODING 10285
SWIDTH 1800 0
DWIDTH 18 0
BBX 8 12 5 0
BITMAP
80
80
80
FE
83
81
81
81
FE
80
80
80
ENDCHAR
STARTCHAR 0166
ENCODING 10286
SWIDTH 1800 0
DWIDTH 18 0
BBX 9 11 4 0
BITMAP
FF80
0800
0800
0800
0800
7F00
7F00
0800
0800
0800
0800
ENDCHAR
STARTCHAR 014A
ENCODING 10287
SWIDTH 1800 0
DWIDTH 18 0
BBX 7 12 5 0
BITMAP
BC
C2
82
82
82
82
82
82
82
82
82
9C
ENDCHAR
STARTCHAR 3260
ENCODING 10289
SWIDTH 1800 0
DWIDTH 18 0
BBX 15 15 1 -2
BITMAP
07C0
1830
2008
4004
5FF4
8012
8012
8012
8012
8012
4024
4004
2008
1830
07C0
ENDCHAR
STARTCHAR 3261
ENCODING 10290
SWIDTH 1800 0
DWIDTH 18 0
BBX 15 15 1 -2
BITMAP
07C0
1830
2008
4004
4804
8802
8802
8802
8802
8802
4FF4
4004
2008
1830
07C0
ENDCHAR
STARTCHAR 3262
ENCODING 10291
SWIDTH 1800 0
DWIDTH 18 0
BBX 15 15 1 -2
BITMAP
07C0
1830
2008
4004
4FF4
8802
8802
8802
8802
8802
4FF4
4004
2008
1830
07C0
ENDCHAR
STARTCHAR 3263
ENCODING 10292
SWIDTH 1800 0
DWIDTH 18 0
BBX 15 15 1 -2
BITMAP
07C0
1830
2008
4004
4FF4
8012
8012
8FF2
8802
8802
4FF4
4004
2008
1830
07C0
ENDCHAR
STARTCHAR 3264
ENCODING 10293
SWIDTH 1800 0
DWIDTH 18 0
BBX 15 15 1 -2
BITMAP
07C0
1830
2008
4004
4FF4
8812
8812
8812
8812
8812
4FF4
4004
2008
1830
07C0
ENDCHAR
STARTCHAR 3265
ENCODING 10294
SWIDTH 1800 0
DWIDTH 18 0
BBX 15 15 1 -2
BITMAP
07C0
1830
2008
4004
4814
8812
8FF2
8812
8812
8812
4FF4
4004
2008
1830
07C0
ENDCHAR
STARTCHAR 3266
ENCODING 10295
SWIDTH 1800 0
DWIDTH 18 0
BBX 15 15 1 -2
BITMAP
07C0
1830
2008
4104
4104
8102
8102
8282
8642
8C62
503C
4004
2008
1830
07C0
ENDCHAR
STARTCHAR 3267
ENCODING 10296
SWIDTH 1800 0
DWIDTH 18 0
BBX 15 15 1 -2
BITMAP
07C0
1830
2008
43C4
4424
8C32
8812
8812
8812
8C32
4424
43C4
2008
1830
07C0
ENDCHAR
STARTCHAR 3268
ENCODING 10297
SWIDTH 1800 0
DWIDTH 18 0
BBX 15 15 1 -2
BITMAP
07C0
1830
2008
4004
5FFC
8102
8182
8282
8242
8422
581C
4004
2008
1830
07C0
ENDCHAR
STARTCHAR 3269
ENCODING 10298
SWIDTH 1800 0
DWIDTH 18 0
BBX 15 15 1 -2
BITMAP
07C0
1830
2008
47C4
4004
9FFA
8102
8182
8242
8422
581C
4004
2008
1830
07C0
ENDCHAR
STARTCHAR 326A
ENCODING 10299
SWIDTH 1800 0
DWIDTH 18 0
BBX 15 15 1 -2
BITMAP
07C0
1830
2008
4004
4FF4
8012
8012
8052
8F92
8022
4024
4004
2008
1830
07C0
ENDCHAR
STARTCHAR 326B
ENCODING 10300
SWIDTH 1800 0
DWIDTH 18 0
BBX 15 15 1 -2
BITMAP
07C0
1830
2008
4004
4FF4
8802
8802
8FF2
8802
8802
4FF4
4004
2008
1830
07C0
ENDCHAR
STARTCHAR 326C
ENCODING 10301
SWIDTH 1800 0
DWIDTH 18 0
BBX 15 15 1 -2
BITMAP
07C0
1830
2008
4004
4FF4
8002
8422
8442
8442
8442
5FFC
4004
2008
1830
07C0
ENDCHAR
STARTCHAR 326D
ENCODING 10302
SWIDTH 1800 0
DWIDTH 18 0
BBX 15 15 1 -2
BITMAP
07C0
1830
2008
47C4
4004
9FF2
8002
87C2
8C62
8822
4824
4C64
27C8
1830
07C0
ENDCHAR
STARTCHAR 326E
ENCODING 10303
SWIDTH 1800 0
DWIDTH 18 0
BBX 15 15 1 -2
BITMAP
07C0
1830
2028
4024
5F24
8122
8122
823A
8222
8422
5824
4024
2028
1830
07C0
ENDCHAR
STARTCHAR 326F
ENCODING 10304
SWIDTH 1800 0
DWIDTH 18 0
BBX 15 15 1 -2
BITMAP
07C0
1830
2028
4024
5024
9022
9022
903A
9022
90A2
5F24
4024
2028
1830
07C0
ENDCHAR
STARTCHAR 3270
ENCODING 10305
SWIDTH 1800 0
DWIDTH 18 0
BBX 15 15 1 -2
BITMAP
07C0
1830
2028
4024
5F24
9022
9022
903A
9022
9022
5FA4
4024
2028
1830
07C0
ENDCHAR
STARTCHAR 3271
ENCODING 10306
SWIDTH 1800 0
DWIDTH 18 0
BBX 15 15 1 -2
BITMAP
07C0
1830
2028
4024
4FA4
80A2
80A2
8FBA
8822
8822
4FA4
4024
2028
1830
07C0
ENDCHAR
STARTCHAR 3272
ENCODING 10307
SWIDTH 1800 0
DWIDTH 18 0
BBX 15 15 1 -2
BITMAP
07C0
1830
2028
4024
5F24
9122
9122
913A
9122
9122
5F24
4024
2028
1830
07C0
ENDCHAR
STARTCHAR 3273
ENCODING 10308
SWIDTH 1800 0
DWIDTH 18 0
BBX 15 15 1 -2
BITMAP
07C0
1830
2028
4024
5124
9122
9122
9F3A
9122
9122
5F24
4024
2028
1830
07C0
ENDCHAR
STARTCHAR 3274
ENCODING 10309
SWIDTH 1800 0
DWIDTH 18 0
BBX 15 15 1 -2
BITMAP
07C0
1830
2028
4024
4424
8422
8422
843A
8A22
9122
60A4
4024
2028
1830
07C0
ENDCHAR
STARTCHAR 3275
ENCODING 10310
SWIDTH 1800 0
DWIDTH 18 0
BBX 15 15 1 -2
BITMAP
07C0
1830
2028
4024
4E24
9122
9122
913A
9122
9122
4E24
4024
2028
1830
07C0
ENDCHAR
STARTCHAR 3276
ENCODING 10311
SWIDTH 1800 0
DWIDTH 18 0
BBX 15 15 1 -2
BITMAP
07C0
1830
2028
4024
5F24
8422
8422
843A
8A22
8A22
5124
4024
2028
1830
07C0
ENDCHAR
STARTCHAR 3277
ENCODING 10312
SWIDTH 1800 0
DWIDTH 18 0
BBX 15 15 1 -2
BITMAP
07C0
1830
2028
4724
4024
8FA2
8222
823A
8622
8522
48A4
4024
2028
1830
07C0
ENDCHAR
STARTCHAR 3278
ENCODING 10313
SWIDTH 1800 0
DWIDTH 18 0
BBX 15 15 1 -2
BITMAP
07C0
1830
2028
4024
5F24
8122
8122
9F3A
8122
8222
4424
4824
2028
1830
07C0
ENDCHAR
STARTCHAR 3279
ENCODING 10314
SWIDTH 1800 0
DWIDTH 18 0
BBX 15 15 1 -2
BITMAP
07C0
1830
2028
4024
5F24
9022
9022
9F3A
9022
90A2
5F24
4024
2028
1830
07C0
ENDCHAR
STARTCHAR 327A
ENCODING 10315
SWIDTH 1800 0
DWIDTH 18 0
BBX 15 15 1 -2
BITMAP
07C0
1830
2028
4024
5FA4
8922
8922
893A
8922
9FA2
4024
4024
2028
1830
07C0
ENDCHAR
STARTCHAR 327B
ENCODING 10316
SWIDTH 1800 0
DWIDTH 18 0
BBX 15 15 1 -2
BITMAP
07C0
1830
2028
4F24
4024
BFA2
8022
8E3A
9122
9122
5924
4E24
2028
1830
07C0
ENDCHAR
STARTCHAR 24D0
ENCODING 10317
SWIDTH 1800 0
DWIDTH 18 0
BBX 15 15 1 -2
BITMAP
07C0
1830
2008
4004
4384
8442
8442
83C2
8442
8442
44C4
4364
2008
1830
07C0
ENDCHAR
STARTCHAR 24D1
ENCODING 10318
SWIDTH 1800 0
DWIDTH 18 0
BBX 15 15 1 -2
BITMAP
07C0
1830
2808
4804
4804
8B82
8C42
8822
8822
8822
4824
4C44
2B88
1830
07C0
ENDCHAR
STARTCHAR 24D2
ENCODING 10319
SWIDTH 1800 0
DWIDTH 18 0
BBX 15 15 1 -2
BITMAP
07C0
1830
2008
4004
43C4
8262
8422
8402
8402
8422
4264
43C4
2008
1830
07C0
ENDCHAR
STARTCHAR 24D3
ENCODING 10320
SWIDTH 1800 0
DWIDTH 18 0
BBX 15 15 1 -2
BITMAP
07C0
1830
2028
4024
4024
83A2
8262
8422
8422
8422
4424
4264
23A8
1830
07C0
ENDCHAR
STARTCHAR 24D4
ENCODING 10321
SWIDTH 1800 0
DWIDTH 18 0
BBX 15 15 1 -2
BITMAP
07C0
1830
2008
4004
43C4
8622
8422
87E2
8402
8422
4224
43C4
2008
1830
07C0
ENDCHAR
STARTCHAR 24D5
ENCODING 10322
SWIDTH 1800 0
DWIDTH 18 0
BBX 15 15 1 -2
BITMAP
07C0
1830
20C8
4104
4104
87C2
8102
8102
8102
8102
4104
4104
2108
1830
07C0
ENDCHAR
STARTCHAR 24D6
ENCODING 10323
SWIDTH 1800 0
DWIDTH 18 0
BBX 15 15 1 -2
BITMAP
07C0
1830
23A8
4264
4424
8422
8422
8422
8422
8662
43A4
4444
2388
1830
07C0
ENDCHAR
STARTCHAR 24D7
ENCODING 10324
SWIDTH 1800 0
DWIDTH 18 0
BBX 15 15 1 -2
BITMAP
07C0
1830
2408
4404
4404
85C2
8622
8422
8422
8422
4424
4424
2428
1830
07C0
ENDCHAR
STARTCHAR 24D8
ENCODING 10325
SWIDTH 1800 0
DWIDTH 18 0
BBX 15 15 1 -2
BITMAP
07C0
1830
2008
4104
4004
8102
8102
8102
8102
8102
4104
4104
2108
1830
07C0
ENDCHAR
STARTCHAR 24D9
ENCODING 10326
SWIDTH 1800 0
DWIDTH 18 0
BBX 15 15 1 -2
BITMAP
07C0
1930
2108
4004
4104
8102
8102
8102
8102
8102
4104
4104
2108
1F30
07C0
ENDCHAR
STARTCHAR 24DA
ENCODING 10327
SWIDTH 1800 0
DWIDTH 18 0
BBX 15 15 1 -2
BITMAP
07C0
1830
2208
4204
4204
8222
8242
8282
8382
8242
4244
4224
2208
1830
07C0
ENDCHAR
STARTCHAR 24DB
ENCODING 10328
SWIDTH 1800 0
DWIDTH 18 0
BBX 15 15 1 -2
BITMAP
07C0
1830
2108
4104
4104
8102
8102
8102
8102
8102
4104
4104
2108
1830
07C0
ENDCHAR
STARTCHAR 24DC
ENCODING 10329
SWIDTH 1800 0
DWIDTH 18 0
BBX 15 15 1 -2
BITMAP
07C0
1830
2008
4004
5EF4
9112
9112
9112
9112
9112
5114
5114
2008
1830
07C0
ENDCHAR
STARTCHAR 24DD
ENCODING 10330
SWIDTH 1800 0
DWIDTH 18 0
BBX 15 15 1 -2
BITMAP
07C0
1830
2008
4004
45C4
8622
8422
8422
8422
8422
4424
4424
2008
1830
07C0
ENDCHAR
STARTCHAR 24DE
ENCODING 10331
SWIDTH 1800 0
DWIDTH 18 0
BBX 15 15 1 -2
BITMAP
07C0
1830
2008
4004
43C4
8242
8422
8422
8422
8422
4244
43C4
2008
1830
07C0
ENDCHAR
STARTCHAR 24DF
ENCODING 10332
SWIDTH 1800 0
DWIDTH 18 0
BBX 15 15 1 -2
BITMAP
07C0
1830
2008
4B84
4C44
8822
8822
8822
8822
8C42
4B84
4804
2808
1830
07C0
ENDCHAR
STARTCHAR 24E0
ENCODING 10333
SWIDTH 1800 0
DWIDTH 18 0
BBX 15 15 1 -2
BITMAP
07C0
1830
23A8
4264
4424
8422
8422
8422
8662
83A2
4024
4024
2028
1830
07C0
ENDCHAR
STARTCHAR 24E1
ENCODING 10334
SWIDTH 1800 0
DWIDTH 18 0
BBX 15 15 1 -2
BITMAP
07C0
1830
2008
4004
42C4
8302
8202
8202
8202
8202
4204
4204
2008
1830
07C0
ENDCHAR
STARTCHAR 24E2
ENCODING 10335
SWIDTH 1800 0
DWIDTH 18 0
BBX 15 15 1 -2
BITMAP
07C0
1830
2008
4384
4244
8402
8302
81C2
8042
8422
4444
43C4
2008
1830
07C0
ENDCHAR
STARTCHAR 24E3
ENCODING 10336
SWIDTH 1800 0
DWIDTH 18 0
BBX 15 15 1 -2
BITMAP
07C0
1830
2108
4104
4104
87C2
8102
8102
8102
8102
4104
4104
20C8
1830
07C0
ENDCHAR
STARTCHAR 24E4
ENCODING 10337
SWIDTH 1800 0
DWIDTH 18 0
BBX 15 15 1 -2
BITMAP
07C0
1830
2008
4004
4424
8422
8422
8422
8422
8422
4464
43A4
2008
1830
07C0
ENDCHAR
STARTCHAR 24E5
ENCODING 10338
SWIDTH 1800 0
DWIDTH 18 0
BBX 15 15 1 -2
BITMAP
07C0
1830
2008
4004
4424
8442
8442
8242
8282
8282
4184
4104
2008
1830
07C0
ENDCHAR
STARTCHAR 24E6
ENCODING 10339
SWIDTH 1800 0
DWIDTH 18 0
BBX 15 15 1 -2
BITMAP
07C0
1830
2008
4004
5104
9192
8992
8A92
8AA2
8662
4664
4444
2008
1830
07C0
ENDCHAR
STARTCHAR 24E7
ENCODING 10340
SWIDTH 1800 0
DWIDTH 18 0
BBX 15 15 1 -2
BITMAP
07C0
1830
2008
4404
4444
82C2
8182
8102
8182
8242
4444
4424
2008
1830
07C0
ENDCHAR
STARTCHAR 24E8
ENCODING 10341
SWIDTH 1800 0
DWIDTH 18 0
BBX 15 15 1 -2
BITMAP
07C0
1830
2408
4404
4444
8242
8242
8282
8182
8182
4104
4104
2708
1830
07C0
ENDCHAR
STARTCHAR 24E9
ENCODING 10342
SWIDTH 1800 0
DWIDTH 18 0
BBX 15 15 1 -2
BITMAP
07C0
1830
2008
4004
47E4
8042
8082
8102
8202
8402
47E4
4004
2008
1830
07C0
ENDCHAR
STARTCHAR 2460
ENCODING 10343
SWIDTH 1800 0
DWIDTH 18 0
BBX 15 15 1 -2
BITMAP
07C0
1830
2008
4084
4084
8782
8082
8082
8082
8082
4084
4084
2088
1830
07C0
ENDCHAR
STARTCHAR 2461
ENCODING 10344
SWIDTH 1800 0
DWIDTH 18 0
BBX 15 15 1 -2
BITMAP
07C0
1830
23C8
4664
4424
8422
8022
8042
8082
8302
4204
4404
27E8
1830
07C0
ENDCHAR
STARTCHAR 2462
ENCODING 10345
SWIDTH 1800 0
DWIDTH 18 0
BBX 15 15 1 -2
BITMAP
07C0
1830
2388
4444
4444
8442
80C2
8382
8062
8822
4824
4464
2388
1830
07C0
ENDCHAR
STARTCHAR 2463
ENCODING 10346
SWIDTH 1800 0
DWIDTH 18 0
BBX 15 15 1 -2
BITMAP
07C0
1830
2088
4184
4184
8282
8482
8482
8882
8FE2
4084
4084
2088
1830
07C0
ENDCHAR
STARTCHAR 2464
ENCODING 10347
SWIDTH 1800 0
DWIDTH 18 0
BBX 15 15 1 -2
BITMAP
07C0
1830
23E8
4204
4404
8402
85C2
8662
8022
8022
4424
4444
2388
1830
07C0
ENDCHAR
STARTCHAR 2465
ENCODING 10348
SWIDTH 1800 0
DWIDTH 18 0
BBX 15 15 1 -2
BITMAP
07C0
1830
21C8
4224
4424
8402
85C2
8662
8422
8422
4424
4264
21C8
1830
07C0
ENDCHAR
STARTCHAR 2466
ENCODING 10349
SWIDTH 1800 0
DWIDTH 18 0
BBX 15 15 1 -2
BITMAP
07C0
1830
27E8
4024
4044
8082
8082
8102
8102
8102
4204
4204
2208
1830
07C0
ENDCHAR
STARTCHAR 2467
ENCODING 10350
SWIDTH 1800 0
DWIDTH 18 0
BBX 15 15 1 -2
BITMAP
07C0
1830
23C8
4664
4424
8422
8242
83C2
8662
8422
4424
4664
23C8
1830
07C0
ENDCHAR
STARTCHAR 2468
ENCODING 10351
SWIDTH 1800 0
DWIDTH 18 0
BBX 15 15 1 -2
BITMAP
07C0
1830
2388
4644
4424
8422
8422
8662
83A2
8022
4424
4444
2388
1830
07C0
ENDCHAR
STARTCHAR 2469
ENCODING 10352
SWIDTH 1800 0
DWIDTH 18 0
BBX 15 15 1 -2
BITMAP
07C0
1830
2008
4474
44D4
9C8A
848A
848A
848A
848A
4454
4474
2008
1830
07C0
ENDCHAR
STARTCHAR 246A
ENCODING 10353
SWIDTH 1800 0
DWIDTH 18 0
BBX 15 15 1 -2
BITMAP
07C0
1830
2008
4424
4424
9CE2
8422
8422
8422
8422
4424
4424
2008
1830
07C0
ENDCHAR
STARTCHAR 246B
ENCODING 10354
SWIDTH 1800 0
DWIDTH 18 0
BBX 15 15 1 -2
BITMAP
07C0
1830
2008
4424
445C
9C8A
848A
8412
8422
8442
4484
44FC
2008
1830
07C0
ENDCHAR
STARTCHAR 246C
ENCODING 10355
SWIDTH 1800 0
DWIDTH 18 0
BBX 15 15 1 -2
BITMAP
07C0
1830
2008
4424
44D4
9C8A
8492
8472
840A
848A
448C
4474
2008
1830
07C0
ENDCHAR
STARTCHAR 246D
ENCODING 10356
SWIDTH 1800 0
DWIDTH 18 0
BBX 15 15 1 -2
BITMAP
07C0
1830
2008
4404
4414
9C32
8452
8452
8492
84FA
4414
4414
2008
1830
07C0
ENDCHAR
STARTCHAR 246E
ENCODING 10357
SWIDTH 1800 0
DWIDTH 18 0
BBX 15 15 1 -2
BITMAP
07C0
1830
2008
447C
4484
9C82
84F2
840A
840A
848A
44D4
4464
2008
1830
07C0
ENDCHAR
STARTCHAR 00BD
ENCODING 10358
SWIDTH 1800 0
DWIDTH 18 0
BBX 12 12 3 0
BITMAP
2000
E100
E200
2200
24E0
2590
2910
2810
1020
10C0
2080
21F0
ENDCHAR
STARTCHAR 2153
ENCODING 10359
SWIDTH 1800 0
DWIDTH 18 0
BBX 12 12 3 0
BITMAP
2000
6100
E200
2200
2260
2490
2510
2820
0860
1110
1110
20E0
ENDCHAR
STARTCHAR 2154
ENCODING 10360
SWIDTH 1800 0
DWIDTH 18 0
BBX 13 12 2 0
BITMAP
7040
8840
8880
1880
3130
4148
C288
FA10
0430
0488
0888
0870
ENDCHAR
STARTCHAR 00BC
ENCODING 10361
SWIDTH 1800 0
DWIDTH 18 0
BBX 12 12 3 0
BITMAP
2000
E100
2200
2220
2460
2460
28A0
2920
1120
13F0
2020
2020
ENDCHAR
STARTCHAR 00BE
ENCODING 10362
SWIDTH 1800 0
DWIDTH 18 0
BBX 12 12 3 0
BITMAP
F080
8880
1100
3120
1260
8A60
D4A0
6520
0920
0BF0
1020
1020
ENDCHAR
STARTCHAR 215B
ENCODING 10363
SWIDTH 1800 0
DWIDTH 18 0
BBX 12 12 3 0
BITMAP
2080
6100
E100
2200
2260
24B0
2510
28A0
08E0
1110
1110
20E0
ENDCHAR
STARTCHAR 215C
ENCODING 10364
SWIDTH 1800 0
DWIDTH 18 0
BBX 12 12 3 0
BITMAP
F080
9100
1100
6200
1260
1490
9510
68A0
08E0
1110
1110
20E0
ENDCHAR
STARTCHAR 215D
ENCODING 10365
SWIDTH 1800 0
DWIDTH 18 0
BBX 13 12 2 0
BITMAP
7840
8080
A080
D900
0930
8A48
9A88
7450
0470
0888
0888
1070
ENDCHAR
STARTCHAR 215E
ENCODING 10366
SWIDTH 1800 0
DWIDTH 18 0
BBX 12 12 3 0
BITMAP
F880
1900
1100
2200
2260
2490
4510
48A0
08E0
1110
1110
20E0
ENDCHAR
STARTCHAR 00E6
ENCODING 10529
SWIDTH 1800 0
DWIDTH 18 0
BBX 12 9 3 0
BITMAP
79C0
8620
8410
0C10
77F0
8400
8410
8A30
F1E0
ENDCHAR
STARTCHAR 0111
ENCODING 10530
SWIDTH 1800 0
DWIDTH 18 0
BBX 9 12 5 0
BITMAP
0200
1F80
0200
3A00
4600
8200
8200
8200
8200
8200
4600
7A00
ENDCHAR
STARTCHAR 00F0
ENCODING 10531
SWIDTH 1800 0
DWIDTH 18 0
BBX 7 12 5 0
BITMAP
6C
10
68
04
04
7E
C6
82
82
82
44
78
ENDCHAR
STARTCHAR 0127
ENCODING 10532
SWIDTH 1800 0
DWIDTH 18 0
BBX 9 12 4 0
BITMAP
2000
3000
FC00
2000
2F00
3080
2080
2080
2080
2080
2080
2080
ENDCHAR
STARTCHAR 0131
ENCODING 10533
SWIDTH 1800 0
DWIDTH 18 0
BBX 1 8 8 0
BITMAP
80
80
80
80
80
80
80
80
ENDCHAR
STARTCHAR 0133
ENCODING 10534
SWIDTH 1800 0
DWIDTH 18 0
BBX 5 14 6 -2
BITMAP
88
00
00
08
88
88
88
88
88
88
88
88
08
38
ENDCHAR
STARTCHAR 0138
ENCODING 10535
SWIDTH 1800 0
DWIDTH 18 0
BBX 6 8 6 0
BITMAP
88
90
A0
D0
88
88
84
84
ENDCHAR
STARTCHAR 0140
ENCODING 10536
SWIDTH 1800 0
DWIDTH 18 0
BBX 3 12 7 0
BITMAP
80
80
80
80
80
A0
A0
80
80
80
80
80
ENDCHAR
STARTCHAR 0142
ENCODING 10537
SWIDTH 1800 0
DWIDTH 18 0
BBX 7 12 5 0
BITMAP
10
10
12
14
18
10
10
30
50
90
10
10
ENDCHAR
STARTCHAR 00F8
ENCODING 10538
SWIDTH 1800 0
DWIDTH 18 0
BBX 10 9 4 0
BITMAP
1F40
2180
4240
4440
4840
5040
6040
6080
9F00
ENDCHAR
STARTCHAR 0153
ENCODING 10539
SWIDTH 1800 0
DWIDTH 18 0
BBX 13 9 2 0
BITMAP
38E0
4590
8308
8208
83F8
8200
8208
4508
78F0
ENDCHAR
STARTCHAR 00DF
ENCODING 10540
SWIDTH 1800 0
DWIDTH 18 0
BBX 7 12 6 0
BITMAP
7C
C4
82
84
88
9C
82
82
82
82
82
9C
ENDCHAR
STARTCHAR 00FE
ENCODING 10541
SWIDTH 1800 0
DWIDTH 18 0
BBX 8 14 5 -2
BITMAP
80
80
80
9C
E2
81
81
81
81
81
C2
BC
80
80
ENDCHAR
STARTCHAR 0167
ENCODING 10542
SWIDTH 1800 0
DWIDTH 18 0
BBX 5 11 6 0
BITMAP
20
20
30
78
20
F8
20
20
20
20
38
ENDCHAR
STARTCHAR 014B
ENCODING 10543
SWIDTH 1800 0
DWIDTH 18 0
BBX 7 11 5 -2
BITMAP
9C
E6
82
82
82
82
82
82
82
02
0E
ENDCHAR
STARTCHAR 0149
ENCODING 10544
SWIDTH 1800 0
DWIDTH 18 0
BBX 9 10 4 0
BITMAP
4000
D700
9980
1080
1080
1080
1080
1080
1080
1080
ENDCHAR
STARTCHAR 3200
ENCODING 10545
SWIDTH 1800 0
DWIDTH 18 0
BBX 14 14 2 -2
BITMAP
2010
4008
4008
9FE4
8024
8024
8024
8024
8024
8044
4008
4008
2010
0020
ENDCHAR
STARTCHAR 3201
ENCODING 10546
SWIDTH 1800 0
DWIDTH 18 0
BBX 14 14 2 -2
BITMAP
2010
4008
4008
9004
9004
9004
9004
9004
9004
9FE4
4008
4008
2010
0020
ENDCHAR
STARTCHAR 3202
ENCODING 10547
SWIDTH 1800 0
DWIDTH 18 0
BBX 14 14 2 -2
BITMAP
2010
4008
4008
9FE4
9004
9004
9004
9004
9004
9FE4
4008
4008
2010
0020
ENDCHAR
STARTCHAR 3203
ENCODING 10548
SWIDTH 1800 0
DWIDTH 18 0
BBX 14 14 2 -2
BITMAP
2010
4008
4008
9FE4
8024
8024
9FE4
9004
9004
9FE4
4008
4008
2010
0020
ENDCHAR
STARTCHAR 3204
ENCODING 10549
SWIDTH 1800 0
DWIDTH 18 0
BBX 14 14 2 -2
BITMAP
2010
4008
4008
9FE4
9024
9024
9024
9024
9024
9FE4
4008
4008
2010
0020
ENDCHAR
STARTCHAR 3205
ENCODING 10550
SWIDTH 1800 0
DWIDTH 18 0
BBX 14 14 2 -2
BITMAP
2010
4008
4008
9024
9024
9024
9FE4
9024
9024
9FE4
4008
4008
2010
0020
ENDCHAR
STARTCHAR 3206
ENCODING 10551
SWIDTH 1800 0
DWIDTH 18 0
BBX 14 14 2 -2
BITMAP
2010
4008
4208
8204
8204
8204
8504
8504
8884
B064
4008
4008
2010
0020
ENDCHAR
STARTCHAR 3207
ENCODING 10552
SWIDTH 1800 0
DWIDTH 18 0
BBX 14 14 2 -2
BITMAP
2010
4008
4788
8844
9864
9024
9024
9024
9864
8844
4788
4008
2010
0020
ENDCHAR
STARTCHAR 3208
ENCODING 10553
SWIDTH 1800 0
DWIDTH 18 0
BBX 14 14 2 -2
BITMAP
2010
4008
4008
BFE4
8204
8204
8504
8584
98C4
B024
4008
4008
2010
0020
ENDCHAR
STARTCHAR 3209
ENCODING 10554
SWIDTH 1800 0
DWIDTH 18 0
BBX 14 14 2 -2
BITMAP
2010
4008
4F88
8004
BFF4
8204
8304
8504
8C84
B064
4008
4008
2010
0020
ENDCHAR
STARTCHAR 320A
ENCODING 10555
SWIDTH 1800 0
DWIDTH 18 0
BBX 14 14 2 -2
BITMAP
2010
4008
4008
9FE4
8024
8024
87A4
9824
8024
8044
4008
4008
2010
0020
ENDCHAR
STARTCHAR 320B
ENCODING 10556
SWIDTH 1800 0
DWIDTH 18 0
BBX 14 14 2 -2
BITMAP
2010
4008
4008
9FE4
9004
9004
9FE4
9004
9004
9FE4
4008
4008
2010
0020
ENDCHAR
STARTCHAR 320C
ENCODING 10557
SWIDTH 1800 0
DWIDTH 18 0
BBX 14 14 2 -2
BITMAP
2010
4008
4008
9FE4
8004
8884
8884
8884
8884
BFE4
4008
4008
2010
0020
ENDCHAR
STARTCHAR 320D
ENCODING 10558
SWIDTH 1800 0
DWIDTH 18 0
BBX 14 14 2 -2
BITMAP
2010
4008
4F88
8004
BFE4
8004
8784
8844
8844
8844
4788
4008
2010
0020
ENDCHAR
STARTCHAR 320E
ENCODING 10559
SWIDTH 1800 0
DWIDTH 18 0
BBX 14 13 2 -1
BITMAP
2010
4048
4048
BE44
8244
8244
8474
8444
8844
B048
4048
4050
2010
ENDCHAR
STARTCHAR 320F
ENCODING 10560
SWIDTH 1800 0
DWIDTH 18 0
BBX 14 13 2 -1
BITMAP
2010
4048
4048
A044
A044
A044
A074
A044
A144
BE48
4048
4050
2010
ENDCHAR
STARTCHAR 3210
ENCODING 10561
SWIDTH 1800 0
DWIDTH 18 0
BBX 14 13 2 -1
BITMAP
2010
4048
4048
BE44
A044
A044
A074
A044
A144
BE48
4048
4050
2010
ENDCHAR
STARTCHAR 3211
ENCODING 10562
SWIDTH 1800 0
DWIDTH 18 0
BBX 14 14 2 -2
BITMAP
2010
4048
4048
9F44
8144
8144
9F74
9044
9044
9F44
4048
4048
2010
1020
ENDCHAR
STARTCHAR 3212
ENCODING 10563
SWIDTH 1800 0
DWIDTH 18 0
BBX 14 13 2 -1
BITMAP
2010
4048
4048
BE44
A244
A244
A274
A244
A244
BE48
4048
4050
2010
ENDCHAR
STARTCHAR 3213
ENCODING 10564
SWIDTH 1800 0
DWIDTH 18 0
BBX 14 13 2 -1
BITMAP
2010
4048
4048
A244
A244
A244
BE74
A244
A244
BE48
4048
4050
2010
ENDCHAR
STARTCHAR 3214
ENCODING 10565
SWIDTH 1800 0
DWIDTH 18 0
BBX 14 13 2 -1
BITMAP
2010
4048
4048
8844
8844
8844
8874
9444
9444
A248
4048
4050
2010
ENDCHAR
STARTCHAR 3215
ENCODING 10566
SWIDTH 1800 0
DWIDTH 18 0
BBX 14 13 2 -1
BITMAP
2010
4048
4048
9C44
A244
A244
A274
A244
A244
9C48
4048
4050
2010
ENDCHAR
STARTCHAR 3216
ENCODING 10567
SWIDTH 1800 0
DWIDTH 18 0
BBX 14 13 2 -1
BITMAP
2010
4048
4048
BE44
8844
8844
8874
9444
9444
A248
4048
4050
2010
ENDCHAR
STARTCHAR 3217
ENCODING 10568
SWIDTH 1800 0
DWIDTH 18 0
BBX 14 13 2 -1
BITMAP
2010
4048
4E48
8044
BF44
8444
8C74
8C44
9244
A148
4048
4050
2010
ENDCHAR
STARTCHAR 3218
ENCODING 10569
SWIDTH 1800 0
DWIDTH 18 0
BBX 14 13 2 -1
BITMAP
2010
4048
4048
BE44
8244
8244
BE74
8244
8444
8848
7048
4050
2010
ENDCHAR
STARTCHAR 3219
ENCODING 10570
SWIDTH 1800 0
DWIDTH 18 0
BBX 14 13 2 -1
BITMAP
2010
4048
4048
BE44
A044
A044
BE74
A044
A144
BE48
4048
4050
2010
ENDCHAR
STARTCHAR 321A
ENCODING 10571
SWIDTH 1800 0
DWIDTH 18 0
BBX 14 13 2 -1
BITMAP
2010
4048
4048
BF44
9244
9244
9274
9244
BF44
8048
4048
4050
2010
ENDCHAR
STARTCHAR 321B
ENCODING 10572
SWIDTH 1800 0
DWIDTH 18 0
BBX 14 13 2 -1
BITMAP
2010
4048
5E48
8044
FF44
8044
9C74
A244
A244
B248
5C48
4050
2010
ENDCHAR
STARTCHAR 249C
ENCODING 10573
SWIDTH 1800 0
DWIDTH 18 0
BBX 14 14 2 -2
BITMAP
2010
4008
4008
8704
8884
8884
8784
8884
8884
8984
46C8
4008
2010
0020
ENDCHAR
STARTCHAR 249D
ENCODING 10574
SWIDTH 1800 0
DWIDTH 18 0
BBX 14 14 2 -2
BITMAP
2010
4808
4808
8804
8B84
8C84
8844
8844
8844
8844
4C88
4B88
2010
0020
ENDCHAR
STARTCHAR 249E
ENCODING 10575
SWIDTH 1800 0
DWIDTH 18 0
BBX 14 14 2 -2
BITMAP
2010
4008
4008
8784
84C4
8844
8804
8804
8844
84C4
4788
4008
2010
0020
ENDCHAR
STARTCHAR 249F
ENCODING 10576
SWIDTH 1800 0
DWIDTH 18 0
BBX 14 14 2 -2
BITMAP
2010
4048
4048
8044
8744
88C4
9044
9044
9044
9044
48C8
4748
2010
0020
ENDCHAR
STARTCHAR 24A0
ENCODING 10577
SWIDTH 1800 0
DWIDTH 18 0
BBX 14 14 2 -2
BITMAP
2010
4008
4008
8784
84C4
8844
8FC4
8804
8844
8C44
4788
4008
2010
0020
ENDCHAR
STARTCHAR 24A1
ENCODING 10578
SWIDTH 1800 0
DWIDTH 18 0
BBX 14 14 2 -2
BITMAP
2010
4188
4208
8204
8F84
8204
8204
8204
8204
8204
4208
4208
2010
0020
ENDCHAR
STARTCHAR 24A2
ENCODING 10579
SWIDTH 1800 0
DWIDTH 18 0
BBX 14 14 2 -2
BITMAP
2010
4748
44C8
8844
8844
8844
8844
8844
8CC4
8744
4888
4788
2010
0020
ENDCHAR
STARTCHAR 24A3
ENCODING 10580
SWIDTH 1800 0
DWIDTH 18 0
BBX 14 14 2 -2
BITMAP
2010
4808
4808
8804
8F84
8C44
8844
8844
8844
8844
4848
4848
2010
0020
ENDCHAR
STARTCHAR 24A4
ENCODING 10581
SWIDTH 1800 0
DWIDTH 18 0
BBX 14 14 2 -2
BITMAP
2010
4208
4208
8004
8204
8204
8204
8204
8204
8204
4208
4208
2010
0020
ENDCHAR
STARTCHAR 24A5
ENCODING 10582
SWIDTH 1800 0
DWIDTH 18 0
BBX 14 14 2 -2
BITMAP
2210
4208
4008
8204
8204
8204
8204
8204
8204
8204
4208
4208
2E10
0020
ENDCHAR
STARTCHAR 24A6
ENCODING 10583
SWIDTH 1800 0
DWIDTH 18 0
BBX 14 14 2 -2
BITMAP
2010
4808
4808
8804
8884
8904
8A04
8E04
8904
8904
4888
4808
2010
0020
ENDCHAR
STARTCHAR 24A7
ENCODING 10584
SWIDTH 1800 0
DWIDTH 18 0
BBX 14 14 2 -2
BITMAP
2010
4208
4208
8204
8204
8204
8204
8204
8204
8204
4208
4208
2010
0020
ENDCHAR
STARTCHAR 24A8
ENCODING 10585
SWIDTH 1800 0
DWIDTH 18 0
BBX 14 14 2 -2
BITMAP
2010
4008
4008
BEF4
A314
A214
A214
A214
A214
A214
6218
4008
2010
0020
ENDCHAR
STARTCHAR 24A9
ENCODING 10586
SWIDTH 1800 0
DWIDTH 18 0
BBX 14 14 2 -2
BITMAP
2010
4008
4008
8F84
8C44
8844
8844
8844
8844
8844
4848
4008
2010
0020
ENDCHAR
STARTCHAR 24AA
ENCODING 10587
SWIDTH 1800 0
DWIDTH 18 0
BBX 14 14 2 -2
BITMAP
2010
4008
4008
8784
8484
8844
8844
8844
8844
8484
4788
4008
2010
0020
ENDCHAR
STARTCHAR 24AB
ENCODING 10588
SWIDTH 1800 0
DWIDTH 18 0
BBX 14 14 2 -2
BITMAP
2010
4008
4B88
8C44
8824
8824
8824
8824
8C44
8B84
4808
4808
2810
0020
ENDCHAR
STARTCHAR 24AC
ENCODING 10589
SWIDTH 1800 0
DWIDTH 18 0
BBX 14 14 2 -2
BITMAP
2010
4748
48C8
9044
9044
9044
9044
88C4
8744
8044
4048
4048
2010
0020
ENDCHAR
STARTCHAR 24AD
ENCODING 10590
SWIDTH 1800 0
DWIDTH 18 0
BBX 14 14 2 -2
BITMAP
2010
4008
4008
8584
8604
8404
8404
8404
8404
8404
4408
4008
2010
0020
ENDCHAR
STARTCHAR 24AE
ENCODING 10591
SWIDTH 1800 0
DWIDTH 18 0
BBX 14 14 2 -2
BITMAP
2010
4008
4708
8484
8804
8604
8384
8084
8844
8884
4788
4008
2010
0020
ENDCHAR
STARTCHAR 24AF
ENCODING 10592
SWIDTH 1800 0
DWIDTH 18 0
BBX 14 14 2 -2
BITMAP
2010
4208
4208
8204
8F84
8204
8204
8204
8204
8204
4208
4188
2010
0020
ENDCHAR
STARTCHAR 24B0
ENCODING 10593
SWIDTH 1800 0
DWIDTH 18 0
BBX 14 14 2 -2
BITMAP
2010
4008
4008
8844
8844
8844
8844
8844
8844
88C4
47C8
4008
2010
0020
ENDCHAR
STARTCHAR 24B1
ENCODING 10594
SWIDTH 1800 0
DWIDTH 18 0
BBX 14 14 2 -2
BITMAP
2010
4008
4008
8844
8884
8884
8484
8504
8504
8304
4208
4008
2010
0020
ENDCHAR
STARTCHAR 24B2
ENCODING 10595
SWIDTH 1800 0
DWIDTH 18 0
BBX 14 14 2 -2
BITMAP
2010
4008
4008
A204
A324
9324
9524
9544
8CC4
8CC4
48C8
4808
2010
0020
ENDCHAR
STARTCHAR 24B3
ENCODING 10596
SWIDTH 1800 0
DWIDTH 18 0
BBX 14 14 2 -2
BITMAP
2010
4008
4008
8884
8504
8504
8204
8304
8504
8884
4848
4008
2010
0020
ENDCHAR
STARTCHAR 24B4
ENCODING 10597
SWIDTH 1800 0
DWIDTH 18 0
BBX 14 14 2 -2
BITMAP
2010
4008
4848
8884
8484
8484
8504
8504
8304
8204
4208
4A08
2410
0020
ENDCHAR
STARTCHAR 24B5
ENCODING 10598
SWIDTH 1800 0
DWIDTH 18 0
BBX 14 14 2 -2
BITMAP
2010
4008
4008
8FC4
8084
8104
8204
8404
8804
8FC4
4008
4008
2010
0020
ENDCHAR
STARTCHAR 2474
ENCODING 10599
SWIDTH 1800 0
DWIDTH 18 0
BBX 14 14 2 -2
BITMAP
2010
4008
4108
8104
8F04
8104
8104
8104
8104
8104
4108
4108
2010
0020
ENDCHAR
STARTCHAR 2475
ENCODING 10600
SWIDTH 1800 0
DWIDTH 18 0
BBX 14 14 2 -2
BITMAP
2010
4788
4CC8
8844
8844
8044
8084
8104
8604
8404
4808
4FC8
2010
0020
ENDCHAR
STARTCHAR 2476
ENCODING 10601
SWIDTH 1800 0
DWIDTH 18 0
BBX 14 14 2 -2
BITMAP
2010
4788
4CC8
8844
8844
80C4
8384
8044
8844
8844
4CC8
4788
2010
0020
ENDCHAR
STARTCHAR 2477
ENCODING 10602
SWIDTH 1800 0
DWIDTH 18 0
BBX 14 14 2 -2
BITMAP
2010
4108
4308
8304
8504
8904
8904
9104
9FC4
8104
4108
4108
2010
0020
ENDCHAR
STARTCHAR 2478
ENCODING 10603
SWIDTH 1800 0
DWIDTH 18 0
BBX 14 14 2 -2
BITMAP
2010
47C8
4408
8804
8804
8B84
8CC4
8044
8044
8844
4888
4708
2010
0020
ENDCHAR
STARTCHAR 2479
ENCODING 10604
SWIDTH 1800 0
DWIDTH 18 0
BBX 14 14 2 -2
BITMAP
2010
4388
4448
8844
8804
8B84
8CC4
8844
8844
8844
44C8
4388
2010
0020
ENDCHAR
STARTCHAR 247A
ENCODING 10605
SWIDTH 1800 0
DWIDTH 18 0
BBX 14 14 2 -2
BITMAP
2010
4008
4FC8
8044
8084
8104
8104
8204
8204
8204
4408
4408
2010
0020
ENDCHAR
STARTCHAR 247B
ENCODING 10606
SWIDTH 1800 0
DWIDTH 18 0
BBX 14 14 2 -2
BITMAP
2010
4788
4CC8
8844
8844
8484
8784
8CC4
8844
8844
4CC8
4788
2010
0020
ENDCHAR
STARTCHAR 247C
ENCODING 10607
SWIDTH 1800 0
DWIDTH 18 0
BBX 14 14 2 -2
BITMAP
2010
4708
4C88
8844
8844
8844
8CC4
8744
8044
8844
4888
4708
2010
0020
ENDCHAR
STARTCHAR 247D
ENCODING 10608
SWIDTH 1800 0
DWIDTH 18 0
BBX 14 14 2 -2
BITMAP
2010
48E8
49B8
B914
8914
8914
8914
8914
8914
8914
4918
48A8
2850
0020
ENDCHAR
STARTCHAR 247E
ENCODING 10609
SWIDTH 1800 0
DWIDTH 18 0
BBX 14 14 2 -2
BITMAP
2010
4848
4848
B9C4
8844
8844
8844
8844
8844
8844
4848
4848
2850
0020
ENDCHAR
STARTCHAR 247F
ENCODING 10610
SWIDTH 1800 0
DWIDTH 18 0
BBX 14 14 2 -2
BITMAP
2010
48C8
4928
B924
8924
8864
88C4
8884
8904
8A04
4A08
4A08
2BD0
0020
ENDCHAR
STARTCHAR 2480
ENCODING 10611
SWIDTH 1800 0
DWIDTH 18 0
BBX 14 14 2 -2
BITMAP
2010
48C8
4928
B924
8824
8844
88C4
8824
8824
8924
4928
49E8
2890
0020
ENDCHAR
STARTCHAR 2481
ENCODING 10612
SWIDTH 1800 0
DWIDTH 18 0
BBX 14 14 2 -2
BITMAP
2010
48C8
48C8
B8C4
8944
8944
8A44
8A44
8A44
8BE4
4848
4848
2850
0020
ENDCHAR
STARTCHAR 2482
ENCODING 10613
SWIDTH 1800 0
DWIDTH 18 0
BBX 14 14 2 -2
BITMAP
2010
49E8
4908
B904
8904
89C4
8924
8924
8824
8824
4928
4928
28D0
0020
ENDCHAR
STARTCHAR 00B9
ENCODING 10614
SWIDTH 1800 0
DWIDTH 18 0
BBX 3 7 7 6
BITMAP
20
E0
20
20
20
20
20
ENDCHAR
STARTCHAR 00B2
ENCODING 10615
SWIDTH 1800 0
DWIDTH 18 0
BBX 5 7 6 6
BITMAP
30
48
48
10
20
40
F8
ENDCHAR
STARTCHAR 00B3
ENCODING 10616
SWIDTH 1800 0
DWIDTH 18 0
BBX 5 7 6 6
BITMAP
70
88
08
30
88
88
70
ENDCHAR
STARTCHAR 2074
ENCODING 10617
SWIDTH 1800 0
DWIDTH 18 0
BBX 6 8 5 6
BITMAP
08
18
28
28
48
FC
08
08
ENDCHAR
STARTCHAR 207F
ENCODING 10618
SWIDTH 1800 0
DWIDTH 18 0
BBX 4 6 7 7
BITMAP
A0
D0
90
90
90
90
ENDCHAR
STARTCHAR 2081
ENCODING 10619
SWIDTH 1800 0
DWIDTH 18 0
BBX 3 7 7 -2
BITMAP
20
E0
20
20
20
20
20
ENDCHAR
STARTCHAR 2082
ENCODING 10620
SWIDTH 1800 0
DWIDTH 18 0
BBX 5 7 6 -2
BITMAP
78
48
08
10
60
C0
F8
ENDCHAR
STARTCHAR 2083
ENCODING 10621
SWIDTH 1800 0
DWIDTH 18 0
BBX 5 8 6 -2
BITMAP
70
88
08
30
10
88
88
70
ENDCHAR
STARTCHAR 2084
ENCODING 10622
SWIDTH 1800 0
DWIDTH 18 0
BBX 5 8 6 -2
BITMAP
10
30
70
50
90
F8
10
10
ENDCHAR
STARTCHAR 3041
ENCODING 10785
SWIDTH 1800 0
DWIDTH 18 0
BBX 9 9 4 -2
BITMAP
1200
7C00
1200
1E00
7580
9880
8880
F080
4300
ENDCHAR
STARTCHAR 3042
ENCODING 10786
SWIDTH 1800 0
DWIDTH 18 0
BBX 12 15 3 -2
BITMAP
0800
0800
0980
7E00
0800
1100
0F80
1160
7210
9210
8C10
8810
9820
E440
0180
ENDCHAR
STARTCHAR 3043
ENCODING 10787
SWIDTH 1800 0
DWIDTH 18 0
BBX 8 8 5 -2
BITMAP
80
82
82
81
81
40
50
20
ENDCHAR
STARTCHAR 3044
ENCODING 10788
SWIDTH 1800 0
DWIDTH 18 0
BBX 12 11 3 0
BITMAP
8000
8080
8040
8020
8020
8010
8010
4400
4400
2800
1000
ENDCHAR
STARTCHAR 3045
ENCODING 10789
SWIDTH 1800 0
DWIDTH 18 0
BBX 5 10 6 -2
BITMAP
30
08
38
C8
08
08
08
08
10
20
ENDCHAR
STARTCHAR 3046
ENCODING 10790
SWIDTH 1800 0
DWIDTH 18 0
BBX 8 15 4 -2
BITMAP
20
18
06
00
0C
32
C1
01
01
01
01
02
02
04
08
ENDCHAR
STARTCHAR 3047
ENCODING 10791
SWIDTH 1800 0
DWIDTH 18 0
BBX 7 10 5 -2
BITMAP
10
0C
00
78
10
10
28
48
48
86
ENDCHAR
STARTCHAR 3048
ENCODING 10792
SWIDTH 1800 0
DWIDTH 18 0
BBX 12 13 3 -1
BITMAP
0C00
0300
0000
0300
3F00
0200
0400
0400
0E00
1200
2200
6100
C1F0
ENDCHAR
STARTCHAR 3049
ENCODING 10793
SWIDTH 1800 0
DWIDTH 18 0
BBX 9 10 4 -2
BITMAP
1000
1100
7C80
1000
1700
1900
7080
9080
5100
2200
ENDCHAR
STARTCHAR 304A
ENCODING 10794
SWIDTH 1800 0
DWIDTH 18 0
BBX 12 13 3 -1
BITMAP
1000
1040
1620
F810
1000
1000
1FC0
1020
7020
A020
A020
A0C0
6380
ENDCHAR
STARTCHAR 304B
ENCODING 10795
SWIDTH 1800 0
DWIDTH 18 0
BBX 13 13 3 -1
BITMAP
1000
1000
1040
1E20
F120
1110
2118
2100
4100
4100
C200
8200
1C00
ENDCHAR
STARTCHAR 304C
ENCODING 10796
SWIDTH 1800 0
DWIDTH 18 0
BBX 13 14 3 -1
BITMAP
0010
1028
1010
1040
1E20
F120
1110
2108
2100
4100
4100
C200
8200
1C00
ENDCHAR
STARTCHAR 304D
ENCODING 10797
SWIDTH 1800 0
DWIDTH 18 0
BBX 9 14 4 -1
BITMAP
1000
0900
0E00
7800
0580
0E00
F200
0200
0100
7F80
8000
8000
4000
3E00
ENDCHAR
STARTCHAR 304E
ENCODING 10798
SWIDTH 1800 0
DWIDTH 18 0
BBX 12 14 4 -1
BITMAP
1020
0910
0E40
7820
0580
0E00
F200
0200
0100
7F80
8000
8000
4000
3E00
ENDCHAR
STARTCHAR 304F
ENCODING 10799
SWIDTH 1800 0
DWIDTH 18 0
BBX 5 15 6 -2
BITMAP
08
08
10
20
20
40
80
80
80
40
20
20
10
08
08
ENDCHAR
STARTCHAR 3050
ENCODING 10800
SWIDTH 1800 0
DWIDTH 18 0
BBX 9 15 6 -2
BITMAP
0800
1800
1000
2100
4280
4000
8000
8000
8000
4000
2000
2000
1000
1800
0800
ENDCHAR
STARTCHAR 3051
ENCODING 10801
SWIDTH 1800 0
DWIDTH 18 0
BBX 13 13 3 -1
BITMAP
4040
4040
8058
87E0
8040
8040
8040
8040
A040
C040
C080
4080
4100
ENDCHAR
STARTCHAR 3052
ENCODING 10802
SWIDTH 1800 0
DWIDTH 18 0
BBX 13 15 3 -1
BITMAP
0010
0028
4050
4040
8058
87E0
8040
8040
8040
8040
A040
C040
C080
4080
4100
ENDCHAR
STARTCHAR 3053
ENCODING 10803
SWIDTH 1800 0
DWIDTH 18 0
BBX 9 12 3 0
BITMAP
2000
3F80
0000
0000
0000
0000
0000
0000
0000
C000
6000
1F80
ENDCHAR
STARTCHAR 3054
ENCODING 10804
SWIDTH 1800 0
DWIDTH 18 0
BBX 13 12 3 0
BITMAP
2000
3F90
0008
0020
0010
0000
0000
0000
0000
C000
6000
1FC0
ENDCHAR
STARTCHAR 3055
ENCODING 10805
SWIDTH 1800 0
DWIDTH 18 0
BBX 9 13 4 -1
BITMAP
0800
0800
0780
FC00
0200
0200
0100
7F80
4180
8000
8000
4000
3E00
ENDCHAR
STARTCHAR 3056
ENCODING 10806
SWIDTH 1800 0
DWIDTH 18 0
BBX 12 14 4 -1
BITMAP
0020
0850
08A0
0F00
F400
0200
0100
1900
6780
80C0
8000
8000
6000
1E00
ENDCHAR
STARTCHAR 3057
ENCODING 10807
SWIDTH 1800 0
DWIDTH 18 0
BBX 9 13 5 -1
BITMAP
8000
8000
8000
8000
8000
8000
8000
8000
8000
8080
8180
4300
7C00
ENDCHAR
STARTCHAR 3058
ENCODING 10808
SWIDTH 1800 0
DWIDTH 18 0
BBX 9 13 5 -1
BITMAP
8200
8100
8400
8200
8000
8000
8000
8000
8000
8080
8180
4300
7C00
ENDCHAR
STARTCHAR 3059
ENCODING 10809
SWIDTH 1800 0
DWIDTH 18 0
BBX 13 14 2 -2
BITMAP
0100
0100
FFF8
0100
0100
0F00
1100
1100
0900
0F00
0100
0200
0600
0C00
ENDCHAR
STARTCHAR 305A
ENCODING 10810
SWIDTH 1800 0
DWIDTH 18 0
BBX 13 16 2 -2
BITMAP
0010
0028
0110
0100
FFF8
0100
0100
0F00
1100
1100
0900
0F00
0100
0200
0600
0C00
ENDCHAR
STARTCHAR 305B
ENCODING 10811
SWIDTH 1800 0
DWIDTH 18 0
BBX 13 13 3 -1
BITMAP
2080
2080
2080
2080
7FF8
9080
2080
2080
2300
2000
2000
3000
1FC0
ENDCHAR
STARTCHAR 305C
ENCODING 10812
SWIDTH 1800 0
DWIDTH 18 0
BBX 13 13 3 -1
BITMAP
2088
2090
2080
2080
7FF8
9080
2080
2080
2300
2000
2000
3000
1FC0
ENDCHAR
STARTCHAR 305D
ENCODING 10813
SWIDTH 1800 0
DWIDTH 18 0
BBX 10 14 3 -1
BITMAP
0080
2100
1100
0A00
0600
0FC0
F300
0400
0800
0800
0800
0800
0600
0180
ENDCHAR
STARTCHAR 305E
ENCODING 10814
SWIDTH 1800 0
DWIDTH 18 0
BBX 13 14 3 -1
BITMAP
0080
2110
1128
0A10
0600
0FC0
F300
0400
0800
0800
0800
0800
0600
0180
ENDCHAR
STARTCHAR 305F
ENCODING 10815
SWIDTH 1800 0
DWIDTH 18 0
BBX 12 13 3 -1
BITMAP
1000
1000
1000
FC00
1000
13F0
2000
2000
2000
2000
4000
4700
80F0
ENDCHAR
STARTCHAR 3060
ENCODING 10816
SWIDTH 1800 0
DWIDTH 18 0
BBX 13 13 3 -1
BITMAP
1010
1008
1020
FC10
1000
13F0
2000
2000
2000
2000
4000
4700
80F0
ENDCHAR
STARTCHAR 3061
ENCODING 10817
SWIDTH 1800 0
DWIDTH 18 0
BBX 11 13 3 -1
BITMAP
1000
1000
9700
7800
1000
1000
13C0
2C60
3020
2020
0020
0040
0F80
ENDCHAR
STARTCHAR 3062
ENCODING 10818
SWIDTH 1800 0
DWIDTH 18 0
BBX 13 13 3 -1
BITMAP
1000
1050
9728
7800
1000
1000
13C0
2C60
3020
2020
0020
0040
0F80
ENDCHAR
STARTCHAR 3063
ENCODING 10819
SWIDTH 1800 0
DWIDTH 18 0
BBX 8 7 5 -1
BITMAP
1C
E2
01
01
01
02
0C
ENDCHAR
STARTCHAR 3064
ENCODING 10820
SWIDTH 1800 0
DWIDTH 18 0
BBX 12 10 3 0
BITMAP
0F80
F060
0020
0010
0010
0010
0020
0060
0080
0F00
ENDCHAR
STARTCHAR 3065
ENCODING 10821
SWIDTH 1800 0
DWIDTH 18 0
BBX 13 13 3 0
BITMAP
0010
0008
0010
1FC0
E060
0020
0010
0010
0020
0020
0040
0180
0E00
ENDCHAR
STARTCHAR 3066
ENCODING 10822
SWIDTH 1800 0
DWIDTH 18 0
BBX 12 12 3 -1
BITMAP
03F0
7D00
8200
0400
0400
0800
0800
0800
0800
0400
0200
01C0
ENDCHAR
STARTCHAR 3067
ENCODING 10823
SWIDTH 1800 0
DWIDTH 18 0
BBX 13 12 3 -1
BITMAP
03F0
7D00
8210
0428
0410
0800
0800
0800
0800
0400
0200
01C0
ENDCHAR
STARTCHAR 3068
ENCODING 10824
SWIDTH 1800 0
DWIDTH 18 0
BBX 9 13 4 -1
BITMAP
2000
2000
1000
1300
1C00
1800
2000
4000
4000
8000
4000
6080
3F00
ENDCHAR
STARTCHAR 3069
ENCODING 10825
SWIDTH 1800 0
DWIDTH 18 0
BBX 12 13 4 -1
BITMAP
2020
2050
1000
1300
1C00
1800
2000
4000
4000
8000
4000
4080
3F00
ENDCHAR
STARTCHAR 306A
ENCODING 10826
SWIDTH 1800 0
DWIDTH 18 0
BBX 12 15 3 -2
BITMAP
1000
1000
1000
FC40
1020
2110
2100
4100
4100
8100
0100
1F80
1160
1900
0600
ENDCHAR
STARTCHAR 306B
ENCODING 10827
SWIDTH 1800 0
DWIDTH 18 0
BBX 12 12 3 -1
BITMAP
4000
47E0
4000
8000
8000
8000
8000
A000
C400
C730
C0C0
4000
ENDCHAR
STARTCHAR 306C
ENCODING 10828
SWIDTH 1800 0
DWIDTH 18 0
BBX 14 13 2 -1
BITMAP
0200
0200
0200
2FE0
3210
2210
5208
5408
8C10
8CF0
9110
612C
00C0
ENDCHAR
STARTCHAR 306D
ENCODING 10829
SWIDTH 1800 0
DWIDTH 18 0
BBX 13 14 2 -2
BITMAP
1000
1000
1000
18E0
F320
1410
1810
3010
3010
50D0
9330
1328
11C0
1000
ENDCHAR
STARTCHAR 306E
ENCODING 10830
SWIDTH 1800 0
DWIDTH 18 0
BBX 13 12 2 -1
BITMAP
0780
1A60
2210
6208
4208
8408
8408
8408
4810
4820
3060
0080
ENDCHAR
STARTCHAR 306F
ENCODING 10831
SWIDTH 1800 0
DWIDTH 18 0
BBX 12 13 3 -1
BITMAP
4080
4080
4090
8FE0
8080
8080
8080
8080
8080
A7C0
C8B0
C880
4700
ENDCHAR
STARTCHAR 3070
ENCODING 10832
SWIDTH 1800 0
DWIDTH 18 0
BBX 13 14 3 -1
BITMAP
0010
40A8
4090
4090
8FE0
8080
8080
8080
8080
8080
A7C0
C8B0
C880
4700
ENDCHAR
STARTCHAR 3071
ENCODING 10833
SWIDTH 1800 0
DWIDTH 18 0
BBX 13 15 3 -1
BITMAP
0038
0028
40A8
40B8
4090
8FE0
8080
8080
8080
8080
8080
A7C0
C8B0
C880
4700
ENDCHAR
STARTCHAR 3072
ENCODING 10834
SWIDTH 1800 0
DWIDTH 18 0
BBX 12 13 3 -1
BITMAP
0080
7080
A0C0
20C0
40A0
4090
8080
8080
8080
8100
8100
6200
1C00
ENDCHAR
STARTCHAR 3073
ENCODING 10835
SWIDTH 1800 0
DWIDTH 18 0
BBX 13 14 3 -1
BITMAP
0010
0088
70A0
A0D0
20C0
40A0
4090
8080
8080
8080
8100
8100
6200
1C00
ENDCHAR
STARTCHAR 3074
ENCODING 10836
SWIDTH 1800 0
DWIDTH 18 0
BBX 13 14 3 -1
BITMAP
0038
00A8
70A8
A0F8
20C0
40A0
4090
8080
8080
8080
8100
8100
6200
1C00
ENDCHAR
STARTCHAR 3075
ENCODING 10837
SWIDTH 1800 0
DWIDTH 18 0
BBX 13 13 2 -1
BITMAP
0400
0300
0000
0000
0400
0400
0400
0220
0110
8108
9080
6500
0200
ENDCHAR
STARTCHAR 3076
ENCODING 10838
SWIDTH 1800 0
DWIDTH 18 0
BBX 13 13 2 -1
BITMAP
0400
0300
0000
0028
0410
0400
0400
0220
0110
8108
9080
6500
0200
ENDCHAR
STARTCHAR 3077
ENCODING 10839
SWIDTH 1800 0
DWIDTH 18 0
BBX 13 13 2 -1
BITMAP
0400
0300
0038
0028
0438
0400
0400
0220
0110
8108
9080
6500
0200
ENDCHAR
STARTCHAR 3078
ENCODING 10840
SWIDTH 1800 0
DWIDTH 18 0
BBX 14 7 2 2
BITMAP
0C00
1A00
2100
4080
8040
0030
000C
ENDCHAR
STARTCHAR 3079
ENCODING 10841
SWIDTH 1800 0
DWIDTH 18 0
BBX 14 7 2 2
BITMAP
0C50
1E20
2100
4080
8040
0030
000C
ENDCHAR
STARTCHAR 307A
ENCODING 10842
SWIDTH 1800 0
DWIDTH 18 0
BBX 14 8 2 2
BITMAP
0070
0C50
1E50
2120
4080
8040
0030
000C
ENDCHAR
STARTCHAR 307B
ENCODING 10843
SWIDTH 1800 0
DWIDTH 18 0
BBX 12 14 3 -2
BITMAP
4010
4FE0
4080
8080
8FF0
8080
8080
8080
A080
C780
C8E0
C890
4700
4000
ENDCHAR
STARTCHAR 307C
ENCODING 10844
SWIDTH 1800 0
DWIDTH 18 0
BBX 14 13 2 -1
BITMAP
4010
4FE4
4080
8088
8FE0
8080
8080
8080
A080
C7C0
C8B0
C890
4700
ENDCHAR
STARTCHAR 307D
ENCODING 10845
SWIDTH 1800 0
DWIDTH 18 0
BBX 14 13 2 -1
BITMAP
4010
4FE0
409C
8094
8FE8
8080
8080
8080
A080
C7C0
C8B0
C890
4700
ENDCHAR
STARTCHAR 307E
ENCODING 10846
SWIDTH 1800 0
DWIDTH 18 0
BBX 8 14 4 -1
BITMAP
08
08
09
7E
08
08
FF
08
08
08
FC
8B
88
70
ENDCHAR
STARTCHAR 307F
ENCODING 10847
SWIDTH 1800 0
DWIDTH 18 0
BBX 13 12 2 -1
BITMAP
1F00
0100
0200
0220
0420
1E20
29E0
4870
9048
9080
6100
0300
ENDCHAR
STARTCHAR 3080
ENCODING 10848
SWIDTH 1800 0
DWIDTH 18 0
BBX 13 14 2 -1
BITMAP
1000
1000
1000
FE30
1018
1008
7000
5000
D000
D020
5020
3020
1060
0FC0
ENDCHAR
STARTCHAR 3081
ENCODING 10849
SWIDTH 1800 0
DWIDTH 18 0
BBX 12 13 3 -1
BITMAP
0100
0100
4200
4780
3A60
2220
6410
9410
9810
9810
B420
E040
0180
ENDCHAR
STARTCHAR 3082
ENCODING 10850
SWIDTH 1800 0
DWIDTH 18 0
BBX 9 14 4 -1
BITMAP
1000
1000
1000
9000
7E00
2000
2100
E080
3880
2080
2080
2080
1080
0F00
ENDCHAR
STARTCHAR 3083
ENCODING 10851
SWIDTH 1800 0
DWIDTH 18 0
BBX 9 10 4 -2
BITMAP
0800
0400
4100
2E80
3080
E080
1700
1000
0800
0800
ENDCHAR
STARTCHAR 3084
ENCODING 10852
SWIDTH 1800 0
DWIDTH 18 0
BBX 13 14 2 -2
BITMAP
0200
0100
2020
21D8
1608
1808
6808
8830
04C0
0400
0400
0200
0200
0200
ENDCHAR
STARTCHAR 3085
ENCODING 10853
SWIDTH 1800 0
DWIDTH 18 0
BBX 9 10 4 -2
BITMAP
0400
4400
8F00
9480
A480
4480
4C80
4700
4800
0800
ENDCHAR
STARTCHAR 3086
ENCODING 10854
SWIDTH 1800 0
DWIDTH 18 0
BBX 12 14 3 -1
BITMAP
0200
4100
8100
83C0
8D20
9110
A110
C110
C110
8D20
8620
83C0
4400
0400
ENDCHAR
STARTCHAR 3087
ENCODING 10855
SWIDTH 1800 0
DWIDTH 18 0
BBX 7 10 5 -2
BITMAP
10
10
10
1C
10
10
10
E8
96
E0
ENDCHAR
STARTCHAR 3088
ENCODING 10856
SWIDTH 1800 0
DWIDTH 18 0
BBX 10 14 3 -1
BITMAP
0400
0400
0400
0440
0780
0400
0400
0400
0400
0400
FE00
8580
8C40
7800
ENDCHAR
STARTCHAR 3089
ENCODING 10857
SWIDTH 1800 0
DWIDTH 18 0
BBX 9 13 5 -1
BITMAP
6000
1000
8000
8000
8000
8000
8F00
B180
C080
8080
0080
0300
1C00
ENDCHAR
STARTCHAR 308A
ENCODING 10858
SWIDTH 1800 0
DWIDTH 18 0
BBX 7 15 5 -2
BITMAP
40
42
82
82
82
82
A2
C2
C2
C2
42
04
04
0C
08
ENDCHAR
STARTCHAR 308B
ENCODING 10859
SWIDTH 1800 0
DWIDTH 18 0
BBX 11 13 3 -1
BITMAP
0600
3A00
0600
0400
0800
1F80
3040
6020
8020
1C20
1240
11C0
0F80
ENDCHAR
STARTCHAR 308C
ENCODING 10860
SWIDTH 1800 0
DWIDTH 18 0
BBX 13 15 2 -2
BITMAP
1000
1000
1000
1980
3A40
D440
1840
1040
3040
3040
5048
9048
1070
1000
1000
ENDCHAR
STARTCHAR 308D
ENCODING 10861
SWIDTH 1800 0
DWIDTH 18 0
BBX 10 13 4 -1
BITMAP
1E00
6600
0400
0800
1000
3F00
3080
4040
8040
0040
00C0
0180
0E00
ENDCHAR
STARTCHAR 308E
ENCODING 10862
SWIDTH 1800 0
DWIDTH 18 0
BBX 9 10 4 -2
BITMAP
2000
2000
3000
EF00
3080
6080
A080
A080
2300
2000
ENDCHAR
STARTCHAR 308F
ENCODING 10863
SWIDTH 1800 0
DWIDTH 18 0
BBX 13 14 2 -2
BITMAP
0800
0800
0800
1C00
69F0
0E18
1808
3008
3008
5008
9018
9030
10E0
1000
ENDCHAR
STARTCHAR 3090
ENCODING 10864
SWIDTH 1800 0
DWIDTH 18 0
BBX 11 13 3 -1
BITMAP
0600
3A00
0400
0400
0700
18C0
6820
4820
9020
9620
9520
A4C0
4780
ENDCHAR
STARTCHAR 3091
ENCODING 10865
SWIDTH 1800 0
DWIDTH 18 0
BBX 12 14 3 -2
BITMAP
0780
1900
0200
0400
0FE0
1020
2E20
0A60
07C0
1800
21E0
7A10
8410
8400
ENDCHAR
STARTCHAR 3092
ENCODING 10866
SWIDTH 1800 0
DWIDTH 18 0
BBX 11 14 3 -1
BITMAP
0800
0800
1300
7C00
1000
2000
3C20
42C0
8300
8E00
1200
2200
1000
1F80
ENDCHAR
STARTCHAR 3093
ENCODING 10867
SWIDTH 1800 0
DWIDTH 18 0
BBX 12 13 3 -1
BITMAP
0400
0800
0800
1800
1000
3000
2400
3A00
6200
4210
C220
8120
81C0
ENDCHAR
STARTCHAR 30A1
ENCODING 11041
SWIDTH 1800 0
DWIDTH 18 0
BBX 8 8 5 -1
BITMAP
FF
01
12
14
10
20
20
40
ENDCHAR
STARTCHAR 30A2
ENCODING 11042
SWIDTH 1800 0
DWIDTH 18 0
BBX 11 12 3 -1
BITMAP
FFE0
0020
0840
0880
0900
0800
0800
0800
1000
1000
6000
8000
ENDCHAR
STARTCHAR 30A3
ENCODING 11043
SWIDTH 1800 0
DWIDTH 18 0
BBX 7 9 4 -2
BITMAP
02
04
08
38
C8
08
08
08
08
ENDCHAR
STARTCHAR 30A4
ENCODING 11044
SWIDTH 1800 0
DWIDTH 18 0
BBX 10 13 3 -1
BITMAP
0040
0080
0100
0200
0C00
1400
E400
0400
0400
0400
0400
0400
0400
ENDCHAR
STARTCHAR 30A5
ENCODING 11045
SWIDTH 1800 0
DWIDTH 18 0
BBX 7 10 5 -2
BITMAP
10
10
FE
82
82
82
04
04
08
10
ENDCHAR
STARTCHAR 30A6
ENCODING 11046
SWIDTH 1800 0
DWIDTH 18 0
BBX 10 13 4 -1
BITMAP
0800
0800
FFC0
8040
8040
8040
8040
0080
0080
0100
0200
0400
1800
ENDCHAR
STARTCHAR 30A7
ENCODING 11047
SWIDTH 1800 0
DWIDTH 18 0
BBX 9 7 4 -2
BITMAP
7F00
0800
0800
0800
0800
0800
FF80
ENDCHAR
STARTCHAR 30A8
ENCODING 11048
SWIDTH 1800 0
DWIDTH 18 0
BBX 13 9 2 1
BITMAP
7FF0
0200
0200
0200
0200
0200
0200
0200
FFF8
ENDCHAR
STARTCHAR 30A9
ENCODING 11049
SWIDTH 1800 0
DWIDTH 18 0
BBX 9 9 4 -2
BITMAP
0400
0400
FF80
0C00
1400
1400
6400
8400
1C00
ENDCHAR
STARTCHAR 30AA
ENCODING 11050
SWIDTH 1800 0
DWIDTH 18 0
BBX 12 13 3 -1
BITMAP
0100
0100
0100
FFF0
0300
0500
0500
0900
1100
2100
C100
0100
0E00
ENDCHAR
STARTCHAR 30AB
ENCODING 11051
SWIDTH 1800 0
DWIDTH 18 0
BBX 11 13 3 0
BITMAP
0400
0400
0400
0400
7FE0
0420
0420
0420
0820
0820
1040
2040
C380
ENDCHAR
STARTCHAR 30AC
ENCODING 11052
SWIDTH 1800 0
DWIDTH 18 0
BBX 13 13 3 0
BITMAP
0410
0408
0420
0410
7FE0
0420
0420
0420
0820
0820
1040
2040
C380
ENDCHAR
STARTCHAR 30AD
ENCODING 11053
SWIDTH 1800 0
DWIDTH 18 0
BBX 11 14 4 -2
BITMAP
1000
0800
0980
FE00
0800
0800
09E0
FE00
0800
0400
0400
0400
0400
0400
ENDCHAR
STARTCHAR 30AE
ENCODING 11054
SWIDTH 1800 0
DWIDTH 18 0
BBX 12 15 4 -2
BITMAP
0020
1050
0820
0980
FE00
0800
0800
09E0
FE00
0800
0400
0400
0400
0400
0400
ENDCHAR
STARTCHAR 30AF
ENCODING 11055
SWIDTH 1800 0
DWIDTH 18 0
BBX 9 14 3 -2
BITMAP
0400
0400
0800
0F80
1080
2080
4100
8100
0200
0600
0C00
1800
2000
C000
ENDCHAR
STARTCHAR 30B0
ENCODING 11056
SWIDTH 1800 0
DWIDTH 18 0
BBX 12 14 4 -1
BITMAP
0420
0850
0820
1F80
3080
6080
C100
0100
0200
0400
0800
1000
2000
C000
ENDCHAR
STARTCHAR 30B1
ENCODING 11057
SWIDTH 1800 0
DWIDTH 18 0
BBX 13 14 2 -2
BITMAP
0400
0400
0800
0800
1FF8
1080
2080
4100
8100
0100
0200
0200
0400
0800
ENDCHAR
STARTCHAR 30B2
ENCODING 11058
SWIDTH 1800 0
DWIDTH 18 0
BBX 14 15 2 -2
BITMAP
0008
0414
0408
0800
0800
1FF8
1080
2080
4100
8100
0100
0200
0200
0400
0800
ENDCHAR
STARTCHAR 30B3
ENCODING 11059
SWIDTH 1800 0
DWIDTH 18 0
BBX 9 10 4 0
BITMAP
FF80
0080
0080
0080
0080
0080
0080
0080
FF80
0080
ENDCHAR
STARTCHAR 30B4
ENCODING 11060
SWIDTH 1800 0
DWIDTH 18 0
BBX 12 13 4 0
BITMAP
0010
0000
0020
FF80
0080
0080
0080
0080
0080
0080
0080
FF80
0080
ENDCHAR
STARTCHAR 30B5
ENCODING 11061
SWIDTH 1800 0
DWIDTH 18 0
BBX 14 14 2 -2
BITMAP
0840
0840
0840
0840
FFFC
0840
0840
0840
0880
0080
0080
0100
0200
0400
ENDCHAR
STARTCHAR 30B6
ENCODING 11062
SWIDTH 1800 0
DWIDTH 18 0
BBX 14 15 2 -2
BITMAP
0008
0854
0848
0840
0840
FFFC
0840
0840
0840
0880
0080
0080
0100
0200
0400
ENDCHAR
STARTCHAR 30B7
ENCODING 11063
SWIDTH 1800 0
DWIDTH 18 0
BBX 12 11 3 0
BITMAP
3000
0800
0000
C010
2010
1020
0040
0180
0200
0C00
7000
ENDCHAR
STARTCHAR 30B8
ENCODING 11064
SWIDTH 1800 0
DWIDTH 18 0
BBX 12 11 3 0
BITMAP
10A0
0840
0000
C010
2010
1020
0040
0180
0200
0C00
7000
ENDCHAR
STARTCHAR 30B9
ENCODING 11065
SWIDTH 1800 0
DWIDTH 18 0
BBX 11 11 3 -1
BITMAP
7F80
0080
0080
0100
0100
0300
0480
0840
1060
6020
8000
ENDCHAR
STARTCHAR 30BA
ENCODING 11066
SWIDTH 1800 0
DWIDTH 18 0
BBX 13 13 3 -1
BITMAP
0028
0010
7F80
0080
0080
0100
0100
0300
0480
0840
1040
6020
8000
ENDCHAR
STARTCHAR 30BB
ENCODING 11067
SWIDTH 1800 0
DWIDTH 18 0
BBX 12 12 2 0
BITMAP
0800
0800
0800
09F0
3E20
C820
0840
0880
0800
0800
0800
07F0
ENDCHAR
STARTCHAR 30BC
ENCODING 11068
SWIDTH 1800 0
DWIDTH 18 0
BBX 13 13 3 0
BITMAP
0010
1008
1020
1010
17E0
F840
1040
1080
1100
1000
1000
1000
0FE0
ENDCHAR
STARTCHAR 30BD
ENCODING 11069
SWIDTH 1800 0
DWIDTH 18 0
BBX 10 12 4 -1
BITMAP
8040
8080
4080
4080
0100
0100
0200
0200
0400
0800
1000
2000
ENDCHAR
STARTCHAR 30BE
ENCODING 11070
SWIDTH 1800 0
DWIDTH 18 0
BBX 14 14 3 -1
BITMAP
0028
0014
C020
4040
2040
2040
0080
0080
0100
0100
0200
0400
0800
1000
ENDCHAR
STARTCHAR 30BF
ENCODING 11071
SWIDTH 1800 0
DWIDTH 18 0
BBX 9 14 4 -2
BITMAP
0800
0800
1F80
3080
6080
D100
0900
0600
0600
0400
0800
3000
4000
8000
ENDCHAR
STARTCHAR 30C0
ENCODING 11072
SWIDTH 1800 0
DWIDTH 18 0
BBX 12 14 4 -2
BITMAP
0850
0820
1F80
3080
6080
D100
0900
0600
0600
0400
0800
3000
4000
8000
ENDCHAR
STARTCHAR 30C1
ENCODING 11073
SWIDTH 1800 0
DWIDTH 18 0
BBX 13 12 3 -1
BITMAP
0380
7E00
0200
0200
FFF8
0200
0200
0400
0400
0800
0800
3000
ENDCHAR
STARTCHAR 30C2
ENCODING 11074
SWIDTH 1800 0
DWIDTH 18 0
BBX 13 12 3 -1
BITMAP
03A8
7E10
0200
0200
FFF8
0200
0200
0400
0400
0800
0800
3000
ENDCHAR
STARTCHAR 30C3
ENCODING 11075
SWIDTH 1800 0
DWIDTH 18 0
BBX 8 9 5 -2
BITMAP
11
91
82
42
02
04
08
10
20
ENDCHAR
STARTCHAR 30C4
ENCODING 11076
SWIDTH 1800 0
DWIDTH 18 0
BBX 11 13 3 -1
BITMAP
0800
8820
8420
4420
4040
2040
0040
0080
0080
0100
0200
0400
1800
ENDCHAR
STARTCHAR 30C5
ENCODING 11077
SWIDTH 1800 0
DWIDTH 18 0
BBX 13 15 3 -1
BITMAP
0010
0028
0810
8800
8420
4420
4040
2040
0040
0080
0080
0100
0200
0400
1800
ENDCHAR
STARTCHAR 30C6
ENCODING 11078
SWIDTH 1800 0
DWIDTH 18 0
BBX 13 12 3 -1
BITMAP
3FC0
0000
0000
FFF8
0200
0200
0200
0400
0400
0C00
1800
2000
ENDCHAR
STARTCHAR 30C7
ENCODING 11079
SWIDTH 1800 0
DWIDTH 18 0
BBX 14 12 2 -1
BITMAP
1FE4
0008
0000
FFF8
0200
0200
0200
0200
0400
0400
1800
2000
ENDCHAR
STARTCHAR 30C8
ENCODING 11080
SWIDTH 1800 0
DWIDTH 18 0
BBX 5 13 7 -1
BITMAP
80
80
80
80
C0
A0
90
88
80
80
80
80
80
ENDCHAR
STARTCHAR 30C9
ENCODING 11081
SWIDTH 1800 0
DWIDTH 18 0
BBX 7 13 7 -1
BITMAP
80
8A
84
80
C0
A0
90
88
80
80
80
80
80
ENDCHAR
STARTCHAR 30CA
ENCODING 11082
SWIDTH 1800 0
DWIDTH 18 0
BBX 13 14 3 -2
BITMAP
0200
0200
0200
0200
FFF8
0200
0200
0200
0400
0400
0400
0800
1000
2000
ENDCHAR
STARTCHAR 30CB
ENCODING 11083
SWIDTH 1800 0
DWIDTH 18 0
BBX 12 9 3 1
BITMAP
3FC0
0000
0000
0000
0000
0000
0000
0000
FFF0
ENDCHAR
STARTCHAR 30CC
ENCODING 11084
SWIDTH 1800 0
DWIDTH 18 0
BBX 10 12 3 -1
BITMAP
7FC0
0080
0080
1080
0D00
0700
0300
02C0
0440
0800
3000
C000
ENDCHAR
STARTCHAR 30CD
ENCODING 11085
SWIDTH 1800 0
DWIDTH 18 0
BBX 11 14 3 -2
BITMAP
0200
0200
7FC0
0040
0080
0100
0200
0E40
1220
E200
0200
0200
0200
0200
ENDCHAR
STARTCHAR 30CE
ENCODING 11086
SWIDTH 1800 0
DWIDTH 18 0
BBX 10 13 3 -1
BITMAP
0040
0040
0080
0080
0100
0100
0200
0200
0400
0800
1000
2000
C000
ENDCHAR
STARTCHAR 30CF
ENCODING 11087
SWIDTH 1800 0
DWIDTH 18 0
BBX 13 9 2 1
BITMAP
0840
0840
0820
1020
1010
1010
2008
4008
8008
ENDCHAR
STARTCHAR 30D0
ENCODING 11088
SWIDTH 1800 0
DWIDTH 18 0
BBX 14 11 2 1
BITMAP
0008
0014
0848
0840
0820
1020
1010
1010
2008
4008
8008
ENDCHAR
STARTCHAR 30D1
ENCODING 11089
SWIDTH 1800 0
DWIDTH 18 0
BBX 14 11 2 1
BITMAP
0018
0014
0858
0840
0820
1020
1010
1010
2008
4008
8008
ENDCHAR
STARTCHAR 30D2
ENCODING 11090
SWIDTH 1800 0
DWIDTH 18 0
BBX 9 12 5 0
BITMAP
8000
8000
8000
8200
9C00
E000
8000
8000
8000
8000
8000
7F80
ENDCHAR
STARTCHAR 30D3
ENCODING 11091
SWIDTH 1800 0
DWIDTH 18 0
BBX 11 13 5 0
BITMAP
0020
8000
8040
8000
8300
9C00
E000
8000
8000
8000
8000
8000
7F80
ENDCHAR
STARTCHAR 30D4
ENCODING 11092
SWIDTH 1800 0
DWIDTH 18 0
BBX 11 13 5 0
BITMAP
00E0
80A0
8060
8000
8300
9C00
E000
8000
8000
8000
8000
8000
7F80
ENDCHAR
STARTCHAR 30D5
ENCODING 11093
SWIDTH 1800 0
DWIDTH 18 0
BBX 11 12 3 -2
BITMAP
FFE0
0060
0040
0040
0040
0080
0080
0100
0200
0400
1800
3000
ENDCHAR
STARTCHAR 30D6
ENCODING 11094
SWIDTH 1800 0
DWIDTH 18 0
BBX 13 15 3 -2
BITMAP
0028
0010
0000
FFE0
0060
0040
0040
0040
0080
0080
0100
0200
0400
1800
3000
ENDCHAR
STARTCHAR 30D7
ENCODING 11095
SWIDTH 1800 0
DWIDTH 18 0
BBX 13 16 3 -2
BITMAP
0018
0028
0028
0010
FFE0
0020
0040
0040
0040
0080
0080
0100
0200
0400
1800
3000
ENDCHAR
STARTCHAR 30D8
ENCODING 11096
SWIDTH 1800 0
DWIDTH 18 0
BBX 13 6 2 2
BITMAP
0E00
3100
4080
8040
0020
0018
ENDCHAR
STARTCHAR 30D9
ENCODING 11097
SWIDTH 1800 0
DWIDTH 18 0
BBX 13 9 2 2
BITMAP
0020
0040
0000
0E00
3100
4080
8040
0020
0018
ENDCHAR
STARTCHAR 30DA
ENCODING 11098
SWIDTH 1800 0
DWIDTH 18 0
BBX 14 9 2 2
BITMAP
00E0
00A0
0060
1E00
2100
4080
8040
0030
000C
ENDCHAR
STARTCHAR 30DB
ENCODING 11099
SWIDTH 1800 0
DWIDTH 18 0
BBX 13 13 2 -1
BITMAP
0200
0200
0200
FFF8
0200
0200
1220
1210
2210
2208
4208
0200
1E00
ENDCHAR
STARTCHAR 30DC
ENCODING 11100
SWIDTH 1800 0
DWIDTH 18 0
BBX 13 14 2 -1
BITMAP
0010
0228
0210
0200
FFF8
0200
0200
1220
1210
2210
2208
4208
0200
1E00
ENDCHAR
STARTCHAR 30DD
ENCODING 11101
SWIDTH 1800 0
DWIDTH 18 0
BBX 13 14 2 -1
BITMAP
0030
0228
0230
0200
FFF8
0200
0200
1220
1210
2210
2208
4208
0200
1E00
ENDCHAR
STARTCHAR 30DE
ENCODING 11102
SWIDTH 1800 0
DWIDTH 18 0
BBX 11 9 3 1
BITMAP
FFE0
0020
0040
0080
1180
0B00
0400
0200
0100
ENDCHAR
STARTCHAR 30DF
ENCODING 11103
SWIDTH 1800 0
DWIDTH 18 0
BBX 7 11 6 0
BITMAP
70
0C
00
80
70
18
00
00
E0
18
06
ENDCHAR
STARTCHAR 30E0
ENCODING 11104
SWIDTH 1800 0
DWIDTH 18 0
BBX 12 12 3 0
BITMAP
0400
0400
0400
0400
0800
0800
0880
1080
1040
2020
FFE0
0010
ENDCHAR
STARTCHAR 30E1
ENCODING 11105
SWIDTH 1800 0
DWIDTH 18 0
BBX 9 12 3 -1
BITMAP
0080
0080
0080
1900
0D00
0200
0500
0C80
1800
2000
4000
8000
ENDCHAR
STARTCHAR 30E2
ENCODING 11106
SWIDTH 1800 0
DWIDTH 18 0
BBX 12 11 3 -1
BITMAP
7FE0
0400
0400
0400
FFF0
0400
0400
0400
0400
0400
03F0
ENDCHAR
STARTCHAR 30E3
ENCODING 11107
SWIDTH 1800 0
DWIDTH 18 0
BBX 8 8 4 -1
BITMAP
10
10
1F
F1
10
08
08
08
ENDCHAR
STARTCHAR 30E4
ENCODING 11108
SWIDTH 1800 0
DWIDTH 18 0
BBX 11 13 3 -1
BITMAP
1000
1000
1000
0BE0
7C20
8840
0840
0880
0800
0400
0400
0400
0400
ENDCHAR
STARTCHAR 30E5
ENCODING 11109
SWIDTH 1800 0
DWIDTH 18 0
BBX 9 7 4 -2
BITMAP
3E00
0200
0200
0200
0200
0200
FF80
ENDCHAR
STARTCHAR 30E6
ENCODING 11110
SWIDTH 1800 0
DWIDTH 18 0
BBX 13 9 2 1
BITMAP
3F80
0080
0080
0080
0080
0080
0080
0080
FFF8
ENDCHAR
STARTCHAR 30E7
ENCODING 11111
SWIDTH 1800 0
DWIDTH 18 0
BBX 7 8 5 -2
BITMAP
FE
02
02
7E
02
02
FE
02
ENDCHAR
STARTCHAR 30E8
ENCODING 11112
SWIDTH 1800 0
DWIDTH 18 0
BBX 9 11 4 -1
BITMAP
FF80
0080
0080
0080
FF80
0080
0080
0080
FF80
0080
0080
ENDCHAR
STARTCHAR 30E9
ENCODING 11113
SWIDTH 1800 0
DWIDTH 18 0
BBX 9 12 4 -1
BITMAP
7F80
0000
0000
FF80
0080
0080
0100
0100
0200
0400
0800
3000
ENDCHAR
STARTCHAR 30EA
ENCODING 11114
SWIDTH 1800 0
DWIDTH 18 0
BBX 7 13 5 -1
BITMAP
82
82
82
82
82
82
82
82
04
04
04
08
10
ENDCHAR
STARTCHAR 30EB
ENCODING 11115
SWIDTH 1800 0
DWIDTH 18 0
BBX 13 11 3 0
BITMAP
2200
2200
2200
2200
2200
2208
2210
4220
4240
4280
8300
ENDCHAR
STARTCHAR 30EC
ENCODING 11116
SWIDTH 1800 0
DWIDTH 18 0
BBX 10 11 4 1
BITMAP
8000
8000
8000
8000
8040
80C0
8180
8300
8400
9800
E000
ENDCHAR
STARTCHAR 30ED
ENCODING 11117
SWIDTH 1800 0
DWIDTH 18 0
BBX 8 10 5 0
BITMAP
FF
81
81
81
81
81
81
81
FF
81
ENDCHAR
STARTCHAR 30EE
ENCODING 11118
SWIDTH 1800 0
DWIDTH 18 0
BBX 7 8 5 -1
BITMAP
FE
82
82
82
04
04
08
10
ENDCHAR
STARTCHAR 30EF
ENCODING 11119
SWIDTH 1800 0
DWIDTH 18 0
BBX 9 12 4 -1
BITMAP
FF80
8080
8080
8080
8080
8100
0100
0200
0200
0400
0C00
1000
ENDCHAR
STARTCHAR 30F0
ENCODING 11120
SWIDTH 1800 0
DWIDTH 18 0
BBX 13 14 2 -2
BITMAP
0080
0080
0080
7FF0
1080
1080
1080
1080
FFF8
0080
0080
0080
0080
0080
ENDCHAR
STARTCHAR 30F1
ENCODING 11121
SWIDTH 1800 0
DWIDTH 18 0
BBX 13 9 2 1
BITMAP
3FF0
0020
0220
0240
0200
0200
0200
0200
FFF8
ENDCHAR
STARTCHAR 30F2
ENCODING 11122
SWIDTH 1800 0
DWIDTH 18 0
BBX 9 12 4 -1
BITMAP
FF80
0080
0080
0080
FF00
0100
0100
0200
0400
0800
1000
6000
ENDCHAR
STARTCHAR 30F3
ENCODING 11123
SWIDTH 1800 0
DWIDTH 18 0
BBX 12 11 3 0
BITMAP
4000
2000
1000
0010
0020
0040
0080
0300
0400
1800
E000
ENDCHAR
STARTCHAR 30F4
ENCODING 11124
SWIDTH 1800 0
DWIDTH 18 0
BBX 12 14 4 -1
BITMAP
0800
0810
0820
FFC0
8040
8040
8040
8080
0080
0080
0100
0200
0400
1800
ENDCHAR
STARTCHAR 30F5
ENCODING 11125
SWIDTH 1800 0
DWIDTH 18 0
BBX 7 9 5 -2
BITMAP
10
10
FE
12
12
22
22
44
0C
ENDCHAR
STARTCHAR 30F6
ENCODING 11126
SWIDTH 1800 0
DWIDTH 18 0
BBX 9 9 4 -2
BITMAP
2000
2000
3F80
4400
8400
0400
0800
1000
1000
ENDCHAR
STARTCHAR 0410
ENCODING 11297
SWIDTH 1800 0
DWIDTH 18 0
BBX 9 13 4 0
BITMAP
0C00
1400
1400
1200
2200
2200
2100
3F00
4100
4080
4080
8080
8000
ENDCHAR
STARTCHAR 0411
ENCODING 11298
SWIDTH 1800 0
DWIDTH 18 0
BBX 8 13 5 0
BITMAP
FE
80
80
80
80
FC
82
81
81
81
81
82
FC
ENDCHAR
STARTCHAR 0412
ENCODING 11299
SWIDTH 1800 0
DWIDTH 18 0
BBX 8 13 5 0
BITMAP
FC
82
81
81
81
82
FE
83
81
81
81
83
FE
ENDCHAR
STARTCHAR 0413
ENCODING 11300
SWIDTH 1800 0
DWIDTH 18 0
BBX 7 13 6 0
BITMAP
FE
80
80
80
80
80
80
80
80
80
80
80
80
ENDCHAR
STARTCHAR 0414
ENCODING 11301
SWIDTH 1800 0
DWIDTH 18 0
BBX 11 13 3 0
BITMAP
3FC0
2040
2040
2040
2040
2040
2040
2040
4040
BFA0
8020
8020
8020
ENDCHAR
STARTCHAR 0415
ENCODING 11302
SWIDTH 1800 0
DWIDTH 18 0
BBX 8 13 5 0
BITMAP
FF
80
80
80
80
80
FE
80
80
80
80
80
FF
ENDCHAR
STARTCHAR 0401
ENCODING 11303
SWIDTH 1800 0
DWIDTH 18 0
BBX 8 13 5 0
BITMAP
44
00
FF
80
80
80
80
FF
80
80
80
80
FF
ENDCHAR
STARTCHAR 0416
ENCODING 11304
SWIDTH 1800 0
DWIDTH 18 0
BBX 12 14 3 -1
BITMAP
C430
6460
2440
2440
2440
2480
3F80
2440
4420
4420
4420
4420
C420
0010
ENDCHAR
STARTCHAR 0417
ENCODING 11305
SWIDTH 1800 0
DWIDTH 18 0
BBX 9 13 4 0
BITMAP
1C00
6300
C080
8080
8080
0100
0E00
0180
0080
8080
8080
4100
3E00
ENDCHAR
STARTCHAR 0418
ENCODING 11306
SWIDTH 1800 0
DWIDTH 18 0
BBX 8 13 5 0
BITMAP
81
83
83
85
89
89
91
91
A1
A1
C1
C1
81
ENDCHAR
STARTCHAR 0419
ENCODING 11307
SWIDTH 1800 0
DWIDTH 18 0
BBX 8 13 5 0
BITMAP
44
44
B9
83
85
85
89
91
91
A1
A1
C1
81
ENDCHAR
STARTCHAR 041A
ENCODING 11308
SWIDTH 1800 0
DWIDTH 18 0
BBX 8 13 5 0
BITMAP
83
84
84
88
88
88
F0
8C
84
84
84
82
82
ENDCHAR
STARTCHAR 041B
ENCODING 11309
SWIDTH 1800 0
DWIDTH 18 0
BBX 9 13 4 0
BITMAP
3F80
2080
2080
2080
2080
2080
2080
2080
2080
2080
2080
2080
C080
ENDCHAR
STARTCHAR 041C
ENCODING 11310
SWIDTH 1800 0
DWIDTH 18 0
BBX 11 13 3 0
BITMAP
8020
C060
C0A0
A0A0
A0A0
A120
9120
9120
9220
8A20
8A20
8420
8420
ENDCHAR
STARTCHAR 041D
ENCODING 11311
SWIDTH 1800 0
DWIDTH 18 0
BBX 8 13 5 0
BITMAP
81
81
81
81
81
81
FF
81
81
81
81
81
81
ENDCHAR
STARTCHAR 041E
ENCODING 11312
SWIDTH 1800 0
DWIDTH 18 0
BBX 10 13 4 0
BITMAP
0C00
3300
4080
4080
8040
8040
8040
8040
8040
8040
4080
6180
1E00
ENDCHAR
STARTCHAR 041F
ENCODING 11313
SWIDTH 1800 0
DWIDTH 18 0
BBX 8 13 5 0
BITMAP
FF
81
81
81
81
81
81
81
81
81
81
81
81
ENDCHAR
STARTCHAR 0420
ENCODING 11314
SWIDTH 1800 0
DWIDTH 18 0
BBX 8 13 5 0
BITMAP
F8
86
81
81
81
81
86
F8
80
80
80
80
80
ENDCHAR
STARTCHAR 0421
ENCODING 11315
SWIDTH 1800 0
DWIDTH 18 0
BBX 10 13 4 0
BITMAP
0E00
3180
40C0
4040
8040
8000
8000
8000
8040
8040
4040
6080
1F00
ENDCHAR
STARTCHAR 0422
ENCODING 11316
SWIDTH 1800 0
DWIDTH 18 0
BBX 10 13 4 0
BITMAP
FFC0
0800
0800
0800
0800
0800
0800
0800
0800
0800
0800
0800
0800
ENDCHAR
STARTCHAR 0423
ENCODING 11317
SWIDTH 1800 0
DWIDTH 18 0
BBX 8 13 5 0
BITMAP
01
81
82
42
44
44
24
28
18
10
10
20
E0
ENDCHAR
STARTCHAR 0424
ENCODING 11318
SWIDTH 1800 0
DWIDTH 18 0
BBX 12 13 3 0
BITMAP
0400
0400
3FC0
4460
C430
8410
8410
8410
8410
4420
2440
1F80
0400
ENDCHAR
STARTCHAR 0425
ENCODING 11319
SWIDTH 1800 0
DWIDTH 18 0
BBX 8 14 5 -1
BITMAP
80
42
46
24
2C
18
18
18
38
24
44
42
83
80
ENDCHAR
STARTCHAR 0426
ENCODING 11320
SWIDTH 1800 0
DWIDTH 18 0
BBX 10 13 4 -1
BITMAP
8100
8100
8100
8100
8100
8100
8100
8100
8100
8100
FFC0
0040
0040
ENDCHAR
STARTCHAR 0427
ENCODING 11321
SWIDTH 1800 0
DWIDTH 18 0
BBX 7 12 5 0
BITMAP
82
82
82
82
82
82
C6
7A
02
02
02
02
ENDCHAR
STARTCHAR 0428
ENCODING 11322
SWIDTH 1800 0
DWIDTH 18 0
BBX 11 12 3 0
BITMAP
8420
8420
8420
8420
8420
8420
8420
8420
8420
8420
8420
FFE0
ENDCHAR
STARTCHAR 0429
ENCODING 11323
SWIDTH 1800 0
DWIDTH 18 0
BBX 12 13 3 -1
BITMAP
8420
8420
8420
8420
8420
8420
8420
8420
8420
8420
FFF0
0010
0010
ENDCHAR
STARTCHAR 042A
ENCODING 11324
SWIDTH 1800 0
DWIDTH 18 0
BBX 11 13 3 0
BITMAP
F000
1000
1000
1000
1000
1FC0
1060
1020
1020
1020
1020
1040
0F80
ENDCHAR
STARTCHAR 042B
ENCODING 11325
SWIDTH 1800 0
DWIDTH 18 0
BBX 10 13 4 0
BITMAP
8040
8040
8040
8040
8040
8040
FC40
8240
8240
8240
8240
8440
F840
ENDCHAR
STARTCHAR 042C
ENCODING 11326
SWIDTH 1800 0
DWIDTH 18 0
BBX 8 12 5 0
BITMAP
80
80
80
80
C0
BE
81
81
81
81
82
FC
ENDCHAR
STARTCHAR 042D
ENCODING 11327
SWIDTH 1800 0
DWIDTH 18 0
BBX 10 13 4 0
BITMAP
0C00
3300
4080
8080
0040
0040
1FC0
0040
0040
8040
8080
4100
3E00
ENDCHAR
STARTCHAR 042E
ENCODING 11328
SWIDTH 1800 0
DWIDTH 18 0
BBX 14 13 2 0
BITMAP
80C0
8330
8408
8408
8804
8804
F804
8804
8804
8804
8408
8618
81E0
ENDCHAR
STARTCHAR 042F
ENCODING 11329
SWIDTH 1800 0
DWIDTH 18 0
BBX 9 13 4 0
BITMAP
3F80
4080
8080
8080
8080
4080
3F80
4080
8080
8080
8080
8080
8080
ENDCHAR
STARTCHAR 0430
ENCODING 11345
SWIDTH 1800 0
DWIDTH 18 0
BBX 8 10 5 0
BITMAP
3C
46
82
02
02
7E
82
82
86
7B
ENDCHAR
STARTCHAR 0431
ENCODING 11346
SWIDTH 1800 0
DWIDTH 18 0
BBX 8 13 5 0
BITMAP
3F
40
40
80
BE
C2
81
81
81
81
81
42
3C
ENDCHAR
STARTCHAR 0432
ENCODING 11347
SWIDTH 1800 0
DWIDTH 18 0
BBX 6 10 6 0
BITMAP
F8
84
84
84
88
FC
84
84
84
F8
ENDCHAR
STARTCHAR 0433
ENCODING 11348
SWIDTH 1800 0
DWIDTH 18 0
BBX 5 10 7 0
BITMAP
F8
80
80
80
80
80
80
80
80
80
ENDCHAR
STARTCHAR 0434
ENCODING 11349
SWIDTH 1800 0
DWIDTH 18 0
BBX 9 11 4 -1
BITMAP
3F00
2100
2100
2100
2100
2100
2100
4100
FF80
8080
8080
ENDCHAR
STARTCHAR 0435
ENCODING 11350
SWIDTH 1800 0
DWIDTH 18 0
BBX 7 10 5 0
BITMAP
38
44
82
82
82
FE
80
82
46
38
ENDCHAR
STARTCHAR 0451
ENCODING 11351
SWIDTH 1800 0
DWIDTH 18 0
BBX 7 12 5 0
BITMAP
24
00
38
44
82
82
82
FE
80
82
44
38
ENDCHAR
STARTCHAR 0436
ENCODING 11352
SWIDTH 1800 0
DWIDTH 18 0
BBX 10 10 4 0
BITMAP
C8C0
4980
4900
2900
3E00
4900
4880
4880
4880
4080
ENDCHAR
STARTCHAR 0437
ENCODING 11353
SWIDTH 1800 0
DWIDTH 18 0
BBX 6 10 6 0
BITMAP
78
CC
84
04
08
38
84
84
C4
78
ENDCHAR
STARTCHAR 0438
ENCODING 11354
SWIDTH 1800 0
DWIDTH 18 0
BBX 6 10 6 -1
BITMAP
84
8C
94
94
A4
A4
C4
C4
84
80
ENDCHAR
STARTCHAR 0439
ENCODING 11355
SWIDTH 1800 0
DWIDTH 18 0
BBX 6 12 6 0
BITMAP
48
70
00
84
8C
94
94
A4
A4
C4
C4
84
ENDCHAR
STARTCHAR 043A
ENCODING 11356
SWIDTH 1800 0
DWIDTH 18 0
BBX 6 10 6 0
BITMAP
8C
88
90
90
90
F8
88
88
88
88
ENDCHAR
STARTCHAR 043B
ENCODING 11357
SWIDTH 1800 0
DWIDTH 18 0
BBX 7 9 5 0
BITMAP
7E
42
42
42
42
42
42
42
82
ENDCHAR
STARTCHAR 043C
ENCODING 11358
SWIDTH 1800 0
DWIDTH 18 0
BBX 9 10 4 0
BITMAP
C180
C280
A280
A280
A480
9480
9480
9880
8880
8880
ENDCHAR
STARTCHAR 043D
ENCODING 11359
SWIDTH 1800 0
DWIDTH 18 0
BBX 6 10 6 0
BITMAP
80
84
84
84
84
FC
84
84
84
84
ENDCHAR
STARTCHAR 043E
ENCODING 11360
SWIDTH 1800 0
DWIDTH 18 0
BBX 7 10 5 0
BITMAP
38
44
82
82
82
82
82
82
44
38
ENDCHAR
STARTCHAR 043F
ENCODING 11361
SWIDTH 1800 0
DWIDTH 18 0
BBX 6 10 6 0
BITMAP
FC
84
84
84
84
84
84
84
84
84
ENDCHAR
STARTCHAR 0440
ENCODING 11362
SWIDTH 1800 0
DWIDTH 18 0
BBX 8 11 5 -1
BITMAP
BC
C2
81
81
81
81
81
C2
BC
80
80
ENDCHAR
STARTCHAR 0441
ENCODING 11363
SWIDTH 1800 0
DWIDTH 18 0
BBX 7 10 5 0
BITMAP
38
44
82
80
80
80
82
82
44
38
ENDCHAR
STARTCHAR 0442
ENCODING 11364
SWIDTH 1800 0
DWIDTH 18 0
BBX 7 10 5 0
BITMAP
FE
10
10
10
10
10
10
10
10
10
ENDCHAR
STARTCHAR 0443
ENCODING 11365
SWIDTH 1800 0
DWIDTH 18 0
BBX 6 10 6 -1
BITMAP
84
88
48
48
50
30
20
20
20
C0
ENDCHAR
STARTCHAR 0444
ENCODING 11366
SWIDTH 1800 0
DWIDTH 18 0
BBX 12 13 3 -1
BITMAP
0400
0400
75C0
4E20
8410
8410
8410
8410
8410
4E20
75C0
0400
0400
ENDCHAR
STARTCHAR 0445
ENCODING 11367
SWIDTH 1800 0
DWIDTH 18 0
BBX 7 10 5 0
BITMAP
42
44
28
28
10
18
28
44
44
82
ENDCHAR
STARTCHAR 0446
ENCODING 11368
SWIDTH 1800 0
DWIDTH 18 0
BBX 8 11 5 -1
BITMAP
84
84
84
84
84
84
84
FF
01
01
01
ENDCHAR
STARTCHAR 0447
ENCODING 11369
SWIDTH 1800 0
DWIDTH 18 0
BBX 5 10 6 0
BITMAP
88
88
88
88
88
88
78
08
08
08
ENDCHAR
STARTCHAR 0448
ENCODING 11370
SWIDTH 1800 0
DWIDTH 18 0
BBX 8 10 5 0
BITMAP
91
91
91
91
91
91
91
91
91
FF
ENDCHAR
STARTCHAR 0449
ENCODING 11371
SWIDTH 1800 0
DWIDTH 18 0
BBX 10 11 4 -1
BITMAP
8900
8900
8900
8900
8900
8900
8900
FFC0
0040
0040
0040
ENDCHAR
STARTCHAR 044A
ENCODING 11372
SWIDTH 1800 0
DWIDTH 18 0
BBX 8 10 5 0
BITMAP
C0
20
20
20
3E
21
21
21
21
3E
ENDCHAR
STARTCHAR 044B
ENCODING 11373
SWIDTH 1800 0
DWIDTH 18 0
BBX 8 10 5 0
BITMAP
81
81
81
81
F1
89
89
89
89
F1
ENDCHAR
STARTCHAR 044C
ENCODING 11374
SWIDTH 1800 0
DWIDTH 18 0
BBX 6 10 6 0
BITMAP
80
80
80
80
F8
84
84
84
84
F8
ENDCHAR
STARTCHAR 044D
ENCODING 11375
SWIDTH 1800 0
DWIDTH 18 0
BBX 7 10 5 0
BITMAP
38
44
86
02
02
1E
02
82
C4
38
ENDCHAR
STARTCHAR 044E
ENCODING 11376
SWIDTH 1800 0
DWIDTH 18 0
BBX 11 10 3 0
BITMAP
8380
8440
8820
8820
8820
F820
8820
8820
8440
8380
ENDCHAR
STARTCHAR 044F
ENCODING 11377
SWIDTH 1800 0
DWIDTH 18 0
BBX 6 10 6 0
BITMAP
7C
84
84
84
84
7C
84
84
84
84
ENDCHAR
STARTCHAR AC00
ENCODING 12321
SWIDTH 1800 0
DWIDTH 18 0
BBX 16 16 1 -3
BITMAP
FF08
0108
0108
0108
0108
0108
010F
0208
0208
0408
1808
F008
0008
0008
0008
0008
ENDCHAR
STARTCHAR AC01
ENCODING 12322
SWIDTH 1800 0
DWIDTH 18 0
BBX 16 16 1 -3
BITMAP
7F08
0188
0108
010F
0108
0208
0C08
F808
0008
0000
7FF8
0008
0008
0008
0008
0008
ENDCHAR
STARTCHAR AC04
ENCODING 12323
SWIDTH 1800 0
DWIDTH 18 0
BBX 16 15 1 -2
BITMAP
7F08
0188
0108
0108
010F
0308
0608
1808
E008
0008
2008
2000
2000
2000
3FFC
ENDCHAR
STARTCHAR AC07
ENCODING 12324
SWIDTH 1800 0
DWIDTH 18 0
BBX 16 15 1 -2
BITMAP
7F08
0188
0108
010F
0108
0608
1C08
F008
0008
0000
3FFC
2000
2000
2000
3FFC
ENDCHAR
STARTCHAR AC08
ENCODING 12325
SWIDTH 1800 0
DWIDTH 18 0
BBX 16 15 1 -2
BITMAP
7F08
0188
0108
010F
0308
0608
3808
C008
0000
3FF8
0008
3FF8
2000
2000
3FF8
ENDCHAR
STARTCHAR AC09
ENCODING 12326
SWIDTH 1800 0
DWIDTH 18 0
BBX 16 15 1 -2
BITMAP
7F08
0188
0108
010F
0308
0608
7808
8008
0000
7CF8
0208
7E08
4008
4008
7F08
ENDCHAR
STARTCHAR AC0A
ENCODING 12327
SWIDTH 1800 0
DWIDTH 18 0
BBX 16 15 1 -2
BITMAP
7F08
0188
0108
010F
0308
0608
7808
8008
0000
7CF8
0488
7C88
4088
4088
7EF8
ENDCHAR
STARTCHAR AC10
ENCODING 12328
SWIDTH 1800 0
DWIDTH 18 0
BBX 16 15 1 -2
BITMAP
7F08
0188
0108
010F
0108
0608
1C08
F008
0000
3FF8
2008
2008
2008
2008
3FF8
ENDCHAR
STARTCHAR AC11
ENCODING 12329
SWIDTH 1800 0
DWIDTH 18 0
BBX 16 15 1 -2
BITMAP
7F08
0188
0108
010F
0308
0608
7808
8008
0000
2008
2008
3FF8
2008
2008
3FF8
ENDCHAR
STARTCHAR AC12
ENCODING 12330
SWIDTH 1800 0
DWIDTH 18 0
BBX 16 15 1 -2
BITMAP
7F08
0188
0108
010F
0208
0408
F808
0008
4200
4210
7E30
4230
4228
424C
7E84
ENDCHAR
STARTCHAR AC13
ENCODING 12331
SWIDTH 1800 0
DWIDTH 18 0
BBX 16 15 1 -2
BITMAP
7F08
0188
0108
010F
0108
0208
0C08
F808
0008
0008
0180
0180
0240
0C30
701C
ENDCHAR
STARTCHAR AC14
ENCODING 12332
SWIDTH 1800 0
DWIDTH 18 0
BBX 16 15 1 -2
BITMAP
7F08
0188
0108
010F
0108
0608
1C08
F008
0008
0000
1810
1830
3838
244C
C386
ENDCHAR
STARTCHAR AC15
ENCODING 12333
SWIDTH 1800 0
DWIDTH 18 0
BBX 16 15 1 -2
BITMAP
7F08
0188
0108
010F
0108
0608
1C08
F008
0008
0FE0
3030
4008
4008
2030
1FC0
ENDCHAR
STARTCHAR AC16
ENCODING 12334
SWIDTH 1800 0
DWIDTH 18 0
BBX 16 15 1 -2
BITMAP
7F08
0188
0108
010F
0108
0608
1C08
E008
0008
7FFC
0100
0380
04C0
3830
600C
ENDCHAR
STARTCHAR AC17
ENCODING 12335
SWIDTH 1800 0
DWIDTH 18 0
BBX 16 15 1 -2
BITMAP
7F08
0188
0108
010F
0308
0608
1808
E008
0008
0FE0
0000
3FFC
0380
06C0
783C
ENDCHAR
STARTCHAR AC19
ENCODING 12336
SWIDTH 1800 0
DWIDTH 18 0
BBX 16 15 1 -2
BITMAP
7F08
0188
0108
010F
0308
0608
3808
E008
0008
3FFC
2000
2000
3FF8
2000
3FFC
ENDCHAR
STARTCHAR AC1A
ENCODING 12337
SWIDTH 1800 0
DWIDTH 18 0
BBX 16 15 1 -2
BITMAP
FF08
0108
0108
010F
0208
0608
3808
C008
0000
3FF8
0820
0820
0820
0820
7FFC
ENDCHAR
STARTCHAR AC1B
ENCODING 12338
SWIDTH 1800 0
DWIDTH 18 0
BBX 16 15 1 -2
BITMAP
7F08
0188
0108
010F
0308
0608
1808
E008
07E8
0000
7FFC
0000
1FF8
2008
1FF0
ENDCHAR
STARTCHAR AC1C
ENCODING 12339
SWIDTH 1800 0
DWIDTH 18 0
BBX 14 16 2 -3
BITMAP
FC44
0444
0444
0444
0444
0444
047C
0844
0844
1844
3044
C044
0044
0044
0044
0040
ENDCHAR
STARTCHAR AC1D
ENCODING 12340
SWIDTH 1800 0
DWIDTH 18 0
BBX 14 16 2 -3
BITMAP
FC44
0444
0444
047C
0C44
0844
1044
6044
8044
0000
3FFC
0004
0004
0004
0004
0004
ENDCHAR
STARTCHAR AC20
ENCODING 12341
SWIDTH 1800 0
DWIDTH 18 0
BBX 14 16 2 -2
BITMAP
0044
FC44
0444
0444
0444
047C
0844
0844
3044
C044
0044
2044
2000
2000
2000
3FFC
ENDCHAR
STARTCHAR AC24
ENCODING 12342
SWIDTH 1800 0
DWIDTH 18 0
BBX 14 15 2 -2
BITMAP
FC44
0444
0444
047C
0444
0844
1044
E044
0000
3FFC
0004
1FFC
1000
1000
1FFC
ENDCHAR
STARTCHAR AC2C
ENCODING 12343
SWIDTH 1800 0
DWIDTH 18 0
BBX 14 15 2 -2
BITMAP
FC44
0444
0444
047C
0444
0C44
1844
7044
8044
3FFC
2004
2004
2004
2004
3FFC
ENDCHAR
STARTCHAR AC2D
ENCODING 12344
SWIDTH 1800 0
DWIDTH 18 0
BBX 14 15 2 -2
BITMAP
FC44
0444
0444
047C
0C44
0844
3044
C044
0000
2004
2004
3FFC
2004
2004
3FFC
ENDCHAR
STARTCHAR AC2F
ENCODING 12345
SWIDTH 1800 0
DWIDTH 18 0
BBX 15 15 2 -2
BITMAP
FC44
0444
0444
047C
0444
0844
1844
7044
8044
0000
0080
01C0
0260
0C30
700E
ENDCHAR
STARTCHAR AC30
ENCODING 12346
SWIDTH 1800 0
DWIDTH 18 0
BBX 15 16 2 -2
BITMAP
0048
FC48
0448
0488
0478
0488
0888
1848
E048
8048
1000
1020
1030
2870
6C48
C786
ENDCHAR
STARTCHAR AC31
ENCODING 12347
SWIDTH 1800 0
DWIDTH 18 0
BBX 14 15 2 -2
BITMAP
FC44
0444
0444
0444
047C
0444
0844
7044
C044
0000
0FF0
300C
2004
300C
0FF0
ENDCHAR
STARTCHAR AC38
ENCODING 12348
SWIDTH 1800 0
DWIDTH 18 0
BBX 16 16 1 -2
BITMAP
0008
FF08
0108
0108
0108
010F
0108
0308
0208
0408
0C0F
1808
E008
0008
0008
0008
ENDCHAR
STARTCHAR AC39
ENCODING 12349
SWIDTH 1800 0
DWIDTH 18 0
BBX 16 17 1 -3
BITMAP
0008
7F08
0188
010F
0108
0108
0208
0C0E
F808
0008
0000
7FF8
0008
0008
0008
0008
0008
ENDCHAR
STARTCHAR AC3C
ENCODING 12350
SWIDTH 1800 0
DWIDTH 18 0
BBX 15 15 1 -2
BITMAP
7F08
0188
0108
010E
0108
0308
0608
380E
E008
0008
2008
2000
2000
2000
3FFC
ENDCHAR
STARTCHAR AC40
ENCODING 12351
SWIDTH 1800 0
DWIDTH 18 0
BBX 16 15 1 -2
BITMAP
7F08
0188
010F
0108
0108
060F
0C08
F008
0000
3FF8
0008
0008
3FF8
2000
3FF8
ENDCHAR
STARTCHAR AC4B
ENCODING 12352
SWIDTH 1800 0
DWIDTH 18 0
BBX 16 15 1 -2
BITMAP
7F08
0188
0188
010F
0108
0208
040F
3808
C008
0008
0180
0180
0240
0C30
700E
ENDCHAR
STARTCHAR AC4D
ENCODING 12353
SWIDTH 1800 0
DWIDTH 18 0
BBX 15 16 1 -2
BITMAP
0008
7F08
0188
010E
0108
0108
0608
0C0E
F008
0008
0FE0
3030
4008
4008
2030
1FC0
ENDCHAR
STARTCHAR AC54
ENCODING 12354
SWIDTH 1800 0
DWIDTH 18 0
BBX 14 17 2 -3
BITMAP
0004
FC44
0444
0444
0444
047C
0444
0844
0844
1844
1044
207C
C044
0044
0044
0044
0044
ENDCHAR
STARTCHAR AC58
ENCODING 12355
SWIDTH 1800 0
DWIDTH 18 0
BBX 14 16 2 -2
BITMAP
0004
FC84
0484
0484
04FC
0484
0884
1884
30FC
C084
0084
2084
2000
2000
2000
3FFC
ENDCHAR
STARTCHAR AC5C
ENCODING 12356
SWIDTH 1800 0
DWIDTH 18 0
BBX 14 15 2 -2
BITMAP
FC44
0444
047C
0444
0444
087C
1044
E044
0000
3FFC
0004
1FFC
3000
3000
1FFC
ENDCHAR
STARTCHAR AC70
ENCODING 12357
SWIDTH 1800 0
DWIDTH 18 0
BBX 14 16 2 -2
BITMAP
0004
FF04
0104
0104
0104
0104
0104
033C
0204
0404
0C04
1804
E004
0004
0004
0004
ENDCHAR
STARTCHAR AC71
ENCODING 12358
SWIDTH 1800 0
DWIDTH 18 0
BBX 14 16 2 -3
BITMAP
7F04
0184
0184
0104
0104
023C
0C04
F804
0004
0004
3FFC
0004
0004
0004
0004
0004
ENDCHAR
STARTCHAR AC74
ENCODING 12359
SWIDTH 1800 0
DWIDTH 18 0
BBX 14 15 2 -2
BITMAP
FF04
0104
0104
0104
0104
033C
0604
3804
E004
0004
2004
2004
2000
2000
3FFC
ENDCHAR
STARTCHAR AC77
ENCODING 12360
SWIDTH 1800 0
DWIDTH 18 0
BBX 14 15 2 -2
BITMAP
FF04
0104
0104
0104
033C
0604
0C04
F004
0004
0000
3FFC
2000
2000
2000
3FFC
ENDCHAR
STARTCHAR AC78
ENCODING 12361
SWIDTH 1800 0
DWIDTH 18 0
BBX 14 16 2 -2
BITMAP
0004
FF04
0104
0104
017C
0204
0404
1804
E004
0000
3FFC
0004
3FFC
2000
2000
3FFC
ENDCHAR
STARTCHAR AC7A
ENCODING 12362
SWIDTH 1800 0
DWIDTH 18 0
BBX 14 16 2 -2
BITMAP
0004
7F04
0184
0104
013C
0304
0604
3804
C004
0000
7C7C
0444
7C44
4044
4044
7E7C
ENDCHAR
STARTCHAR AC80
ENCODING 12363
SWIDTH 1800 0
DWIDTH 18 0
BBX 14 15 2 -2
BITMAP
7F04
0104
0104
0104
017C
0204
1C04
F004
0000
3FFC
2004
2004
2004
2004
3FFC
ENDCHAR
STARTCHAR AC81
ENCODING 12364
SWIDTH 1800 0
DWIDTH 18 0
BBX 14 16 2 -2
BITMAP
0004
7F04
0184
0184
0104
013C
0204
0404
F804
0000
2004
2004
3FFC
2004
2004
3FFC
ENDCHAR
STARTCHAR AC83
ENCODING 12365
SWIDTH 1800 0
DWIDTH 18 0
BBX 14 16 2 -2
BITMAP
0008
FF08
0108
0108
0108
01F8
0208
0C08
7008
C008
0008
0180
0380
0640
0C30
701C
ENDCHAR
STARTCHAR AC84
ENCODING 12366
SWIDTH 1800 0
DWIDTH 18 0
BBX 14 16 2 -2
BITMAP
0008
FF08
0108
0108
0108
02F8
0608
1808
F008
0000
1000
1020
3030
3870
6CC8
8784
ENDCHAR
STARTCHAR AC85
ENCODING 12367
SWIDTH 1800 0
DWIDTH 18 0
BBX 14 15 2 -2
BITMAP
7F04
0184
0104
0104
017C
0204
0C04
7804
C004
0FE0
3018
4004
4004
3018
1FE0
ENDCHAR
STARTCHAR AC86
ENCODING 12368
SWIDTH 1800 0
DWIDTH 18 0
BBX 14 15 2 -2
BITMAP
7F04
0184
0104
0104
017C
0204
0C04
F004
0000
3FFC
0180
0180
0660
1C30
300C
ENDCHAR
STARTCHAR AC89
ENCODING 12369
SWIDTH 1800 0
DWIDTH 18 0
BBX 14 15 2 -2
BITMAP
7F04
0184
0104
0104
037C
0604
1804
F004
0000
3FFC
2000
2000
3FF8
2000
3FFC
ENDCHAR
STARTCHAR AC8A
ENCODING 12370
SWIDTH 1800 0
DWIDTH 18 0
BBX 15 15 2 -2
BITMAP
FF04
0104
0104
0104
023C
0604
1804
E004
0000
3FF8
0820
0820
0820
0820
7FFE
ENDCHAR
STARTCHAR AC8B
ENCODING 12371
SWIDTH 1800 0
DWIDTH 18 0
BBX 14 15 2 -2
BITMAP
FF04
0104
0104
0104
037C
0604
1804
E004
0FE0
0000
7FFC
0000
3FF0
2008
1FF0
ENDCHAR
STARTCHAR AC8C
ENCODING 12372
SWIDTH 1800 0
DWIDTH 18 0
BBX 14 15 2 -2
BITMAP
FC44
0444
0444
0444
0444
0444
07C4
0844
0844
1044
3044
C044
0044
0044
0044
ENDCHAR
STARTCHAR AC90
ENCODING 12373
SWIDTH 1800 0
DWIDTH 18 0
BBX 14 16 2 -2
BITMAP
0040
FC44
0444
0444
0444
07C4
0844
0844
3044
C044
0044
2004
2004
2000
2000
3FFC
ENDCHAR
STARTCHAR AC94
ENCODING 12374
SWIDTH 1800 0
DWIDTH 18 0
BBX 14 16 2 -2
BITMAP
0040
FC44
0444
0444
05C4
0444
0844
1844
E044
0000
3FFC
0004
1FFC
1000
1000
1FFC
ENDCHAR
STARTCHAR AC9C
ENCODING 12375
SWIDTH 1800 0
DWIDTH 18 0
BBX 14 15 2 -2
BITMAP
FC44
0444
0444
0444
07C4
0444
0844
7044
C044
3FFC
2004
2004
2004
2004
3FFC
ENDCHAR
STARTCHAR AC9D
ENCODING 12376
SWIDTH 1800 0
DWIDTH 18 0
BBX 14 15 2 -2
BITMAP
FC44
0444
0444
0444
07C4
0844
1844
E044
0004
2004
2004
3FFC
2004
2004
3FFC
ENDCHAR
STARTCHAR AC9F
ENCODING 12377
SWIDTH 1800 0
DWIDTH 18 0
BBX 14 16 2 -2
BITMAP
0004
FC44
0444
0444
0444
07C4
0844
1844
3044
C044
0000
0180
0180
0640
0C30
701C
ENDCHAR
STARTCHAR ACA0
ENCODING 12378
SWIDTH 1800 0
DWIDTH 18 0
BBX 15 15 2 -2
BITMAP
FC48
0448
0448
0448
07C8
0848
1048
6048
8048
1008
1020
1030
2870
6C48
C786
ENDCHAR
STARTCHAR ACA1
ENCODING 12379
SWIDTH 1800 0
DWIDTH 18 0
BBX 14 16 2 -2
BITMAP
0004
FC44
0444
0444
0444
07C4
0C44
1844
6044
C044
0FE0
1818
2004
2004
1818
07E0
ENDCHAR
STARTCHAR ACA8
ENCODING 12380
SWIDTH 1800 0
DWIDTH 18 0
BBX 13 15 3 -2
BITMAP
FE08
0208
0208
0208
0278
0208
0608
0408
0C08
1878
3008
E008
0008
0008
0008
ENDCHAR
STARTCHAR ACA9
ENCODING 12381
SWIDTH 1800 0
DWIDTH 18 0
BBX 14 16 2 -3
BITMAP
7F04
0184
01BC
0104
0104
0204
0C3C
F804
0004
0000
3FFC
0004
0004
0004
0004
0004
ENDCHAR
STARTCHAR ACAA
ENCODING 12382
SWIDTH 1800 0
DWIDTH 18 0
BBX 14 17 2 -3
BITMAP
0004
7F04
0184
01BC
0104
0104
0604
0C3C
F004
0004
0000
7E7C
0204
0204
0204
0204
0204
ENDCHAR
STARTCHAR ACAC
ENCODING 12383
SWIDTH 1800 0
DWIDTH 18 0
BBX 14 15 2 -2
BITMAP
FF04
0104
0104
013C
0104
0304
0604
383C
E004
0004
2004
2004
2000
2000
3FFC
ENDCHAR
STARTCHAR ACAF
ENCODING 12384
SWIDTH 1800 0
DWIDTH 18 0
BBX 14 15 2 -2
BITMAP
FF04
0104
013C
0104
0304
0604
383C
E004
0000
0000
3FFC
2000
2000
2000
3FFC
ENDCHAR
STARTCHAR ACB0
ENCODING 12385
SWIDTH 1800 0
DWIDTH 18 0
BBX 14 15 2 -2
BITMAP
FF04
0104
017C
0104
0304
067C
0C04
F004
0000
3FFC
0004
1FFC
3000
3000
1FFC
ENDCHAR
STARTCHAR ACB8
ENCODING 12386
SWIDTH 1800 0
DWIDTH 18 0
BBX 14 16 2 -2
BITMAP
0004
7F04
0184
013C
0104
0104
0604
0C3C
F004
0000
3FFC
2004
2004
2004
2004
3FFC
ENDCHAR
STARTCHAR ACB9
ENCODING 12387
SWIDTH 1800 0
DWIDTH 18 0
BBX 14 15 2 -2
BITMAP
7F04
0184
013C
0104
0104
0604
0C3C
F004
0000
2004
2004
3FFC
2004
2004
3FFC
ENDCHAR
STARTCHAR ACBB
ENCODING 12388
SWIDTH 1800 0
DWIDTH 18 0
BBX 15 15 2 -2
BITMAP
FF04
0104
017C
0104
0304
0604
0C7C
7004
8004
0004
0180
01C0
0240
0C30
700E
ENDCHAR
STARTCHAR ACBC
ENCODING 12389
SWIDTH 1800 0
DWIDTH 18 0
BBX 14 15 2 -2
BITMAP
FF08
0108
0178
0108
0208
0408
1878
E008
0008
1020
1030
3030
2850
44CC
8304
ENDCHAR
STARTCHAR ACBD
ENCODING 12390
SWIDTH 1800 0
DWIDTH 18 0
BBX 14 15 2 -2
BITMAP
FF04
0104
0104
013C
0304
0604
0C3C
7004
8004
0FF0
1818
2004
2004
1018
0FF0
ENDCHAR
STARTCHAR ACC1
ENCODING 12391
SWIDTH 1800 0
DWIDTH 18 0
BBX 14 15 2 -2
BITMAP
FF04
0104
013C
0104
0304
063C
0C04
F004
0000
3FF8
2000
3FF8
2000
2000
3FFC
ENDCHAR
STARTCHAR ACC4
ENCODING 12392
SWIDTH 1800 0
DWIDTH 18 0
BBX 14 15 2 -2
BITMAP
FC44
0444
0444
05C4
0444
0444
0444
0844
0BC4
1044
3044
C044
0044
0044
0044
ENDCHAR
STARTCHAR ACC8
ENCODING 12393
SWIDTH 1800 0
DWIDTH 18 0
BBX 14 16 2 -2
BITMAP
0040
FC44
0444
05C4
0444
0444
0844
0BC4
3044
C044
0044
2004
2000
2000
2000
3FFC
ENDCHAR
STARTCHAR ACCC
ENCODING 12394
SWIDTH 1800 0
DWIDTH 18 0
BBX 14 15 2 -2
BITMAP
FC44
0444
07C4
0444
0444
0BC4
3044
C044
0000
1FFC
0004
1FFC
1000
1000
1FFC
ENDCHAR
STARTCHAR ACD5
ENCODING 12395
SWIDTH 1800 0
DWIDTH 18 0
BBX 14 16 2 -2
BITMAP
0004
FC44
0444
07C4
0444
0444
0BC4
3044
C044
0000
2004
2004
3FFC
2004
2004
3FFC
ENDCHAR
STARTCHAR ACD7
ENCODING 12396
SWIDTH 1800 0
DWIDTH 18 0
BBX 14 16 2 -2
BITMAP
0040
FC44
0444
07C4
0444
0444
0844
1BC4
6044
C044
0004
0184
0180
0640
0C30
701C
ENDCHAR
STARTCHAR ACE0
ENCODING 12397
SWIDTH 1800 0
DWIDTH 18 0
BBX 14 14 2 -1
BITMAP
7FF8
0008
0008
0008
0008
0008
0008
0408
0408
0408
0408
0400
0400
FFFC
ENDCHAR
STARTCHAR ACE1
ENCODING 12398
SWIDTH 1800 0
DWIDTH 18 0
BBX 15 16 2 -3
BITMAP
7FF8
0008
0008
0208
0208
0208
0208
FFFE
0000
0000
7FF8
0008
0008
0008
0008
0008
ENDCHAR
STARTCHAR ACE4
ENCODING 12399
SWIDTH 1800 0
DWIDTH 18 0
BBX 15 15 2 -2
BITMAP
7FF8
0008
0008
0208
0208
0208
0208
FFFE
0000
0000
2000
2000
2000
2000
3FFC
ENDCHAR
STARTCHAR ACE7
ENCODING 12400
SWIDTH 1800 0
DWIDTH 18 0
BBX 15 15 2 -2
BITMAP
7FF8
0008
0008
0208
0208
0208
0208
FFFE
0000
7FF8
4000
4000
4000
4000
7FF8
ENDCHAR
STARTCHAR ACE8
ENCODING 12401
SWIDTH 1800 0
DWIDTH 18 0
BBX 14 15 2 -2
BITMAP
7FF8
0008
0008
0208
0208
0208
FFFC
0000
0000
7FF8
0008
7FF8
4000
4000
7FF8
ENDCHAR
STARTCHAR ACEA
ENCODING 12402
SWIDTH 1800 0
DWIDTH 18 0
BBX 15 15 2 -2
BITMAP
7FF8
0008
0208
0208
0208
0208
FFFE
0000
0000
7CF8
0488
7C88
4088
4088
7E78
ENDCHAR
STARTCHAR ACEC
ENCODING 12403
SWIDTH 1800 0
DWIDTH 18 0
BBX 15 15 2 -2
BITMAP
7FF8
0008
0208
0208
0208
0208
FFFE
0000
0000
7C20
0420
0460
7C50
4098
7D0C
ENDCHAR
STARTCHAR ACEF
ENCODING 12404
SWIDTH 1800 0
DWIDTH 18 0
BBX 15 15 2 -2
BITMAP
7FF8
0008
0008
0208
0208
0208
FFFE
0000
7CF0
0400
05FC
7C00
40F8
4108
7CF8
ENDCHAR
STARTCHAR ACF0
ENCODING 12405
SWIDTH 1800 0
DWIDTH 18 0
BBX 15 15 2 -2
BITMAP
7FF8
0008
0008
0208
0208
0208
0208
FFFE
0000
7FF8
4008
4008
4008
4008
7FF8
ENDCHAR
STARTCHAR ACF1
ENCODING 12406
SWIDTH 1800 0
DWIDTH 18 0
BBX 15 15 2 -2
BITMAP
7FF8
0008
0208
0208
0208
0208
FFFE
0000
0000
4008
4008
7FF8
4008
4008
7FF8
ENDCHAR
STARTCHAR ACF3
ENCODING 12407
SWIDTH 1800 0
DWIDTH 18 0
BBX 15 15 2 -2
BITMAP
7FF8
0008
0008
0208
0208
0208
0208
FFFE
0000
0000
0300
0700
0C80
3860
E018
ENDCHAR
STARTCHAR ACF5
ENCODING 12408
SWIDTH 1800 0
DWIDTH 18 0
BBX 15 15 2 -2
BITMAP
7FF8
0008
0008
0208
0208
0208
0208
FFFE
0000
1FC0
3030
4008
4008
3030
0FC0
ENDCHAR
STARTCHAR ACF6
ENCODING 12409
SWIDTH 1800 0
DWIDTH 18 0
BBX 15 15 2 -2
BITMAP
7FF8
0008
0008
0208
0208
0208
0208
FFFE
0000
0000
7FF8
0300
0780
0CC0
7078
ENDCHAR
STARTCHAR ACFC
ENCODING 12410
SWIDTH 1800 0
DWIDTH 18 0
BBX 16 15 1 -2
BITMAP
FF88
0088
0088
0088
0088
0888
088F
0888
0888
0908
0808
FFF8
0008
0008
0008
ENDCHAR
STARTCHAR ACFD
ENCODING 12411
SWIDTH 1800 0
DWIDTH 18 0
BBX 15 17 1 -3
BITMAP
0008
FF88
0088
0088
0888
088E
0888
08F8
FFE8
0008
0000
7FF8
0008
0008
0008
0008
0008
ENDCHAR
STARTCHAR AD00
ENCODING 12412
SWIDTH 1800 0
DWIDTH 18 0
BBX 15 15 1 -2
BITMAP
FF88
0088
0088
0088
0888
088E
0888
08F8
FFE8
0008
2008
2008
2000
2000
3FFC
ENDCHAR
STARTCHAR AD04
ENCODING 12413
SWIDTH 1800 0
DWIDTH 18 0
BBX 15 16 1 -2
BITMAP
0008
7F88
0088
0088
1888
188E
1888
FFF8
0008
0000
7FF8
0008
3FF8
6000
6000
3FF8
ENDCHAR
STARTCHAR AD06
ENCODING 12414
SWIDTH 1800 0
DWIDTH 18 0
BBX 15 16 1 -2
BITMAP
0008
FF88
0088
0888
088E
0888
0898
FFE8
0008
0000
7EF8
0288
7E88
4088
4088
7EF8
ENDCHAR
STARTCHAR AD0C
ENCODING 12577
SWIDTH 1800 0
DWIDTH 18 0
BBX 15 16 1 -2
BITMAP
0008
FF88
0088
0088
088E
0888
0888
08F8
FFE8
0008
3FF8
2008
2008
2008
2008
3FF8
ENDCHAR
STARTCHAR AD0D
ENCODING 12578
SWIDTH 1800 0
DWIDTH 18 0
BBX 15 16 1 -2
BITMAP
0008
FF88
0088
0088
088E
0888
0888
FFF8
0008
0000
2008
2008
3FF8
2008
2008
3FF8
ENDCHAR
STARTCHAR AD0F
ENCODING 12579
SWIDTH 1800 0
DWIDTH 18 0
BBX 15 16 1 -2
BITMAP
0008
FF88
0088
0088
088E
0888
0888
0888
FFF8
0008
0008
0180
01C0
0240
0C30
700E
ENDCHAR
STARTCHAR AD11
ENCODING 12580
SWIDTH 1800 0
DWIDTH 18 0
BBX 15 16 1 -2
BITMAP
0008
FF88
0088
0088
088E
0888
0888
08F8
FFE8
0008
0FE0
1818
2004
2004
1818
07E0
ENDCHAR
STARTCHAR AD18
ENCODING 12581
SWIDTH 1800 0
DWIDTH 18 0
BBX 14 16 2 -3
BITMAP
7E44
0244
0244
0244
0244
1244
127C
1244
1244
1044
1044
FFC4
0044
0044
0044
0004
ENDCHAR
STARTCHAR AD1C
ENCODING 12582
SWIDTH 1800 0
DWIDTH 18 0
BBX 14 16 2 -2
BITMAP
0048
FC48
0448
0448
0448
2478
2448
2448
2048
FFC8
0048
2048
2040
2000
2000
3FFC
ENDCHAR
STARTCHAR AD20
ENCODING 12583
SWIDTH 1800 0
DWIDTH 18 0
BBX 14 15 2 -2
BITMAP
7E4C
024C
024C
324C
327C
344C
33CC
FC4C
0000
3FFC
0004
3FFC
2000
2000
1FFC
ENDCHAR
STARTCHAR AD29
ENCODING 12584
SWIDTH 1800 0
DWIDTH 18 0
BBX 13 15 3 -2
BITMAP
FC88
0488
0488
2488
24F8
2488
2788
F888
0008
4008
4008
7FF8
4008
4008
3FF8
ENDCHAR
STARTCHAR AD2C
ENCODING 12585
SWIDTH 1800 0
DWIDTH 18 0
BBX 14 15 2 -2
BITMAP
FC48
0648
0448
2448
2478
2448
27C8
F848
0008
3020
3020
3030
7850
CC8C
0304
ENDCHAR
STARTCHAR AD2D
ENCODING 12586
SWIDTH 1800 0
DWIDTH 18 0
BBX 13 15 3 -2
BITMAP
FC88
0488
0488
2488
24F8
2488
2088
FF88
0088
0000
1FC0
6030
4008
6018
1FE0
ENDCHAR
STARTCHAR AD34
ENCODING 12587
SWIDTH 1800 0
DWIDTH 18 0
BBX 13 15 3 -2
BITMAP
FF08
0108
0108
0108
0108
1108
1108
1108
1108
1008
1008
FFF8
0008
0008
0008
ENDCHAR
STARTCHAR AD35
ENCODING 12588
SWIDTH 1800 0
DWIDTH 18 0
BBX 14 16 2 -3
BITMAP
7F84
0084
0084
0884
0884
0884
080C
FFF4
0004
0004
3FFC
0004
0004
0004
0004
0004
ENDCHAR
STARTCHAR AD38
ENCODING 12589
SWIDTH 1800 0
DWIDTH 18 0
BBX 14 16 2 -2
BITMAP
0004
7F84
0084
0084
0084
0884
0884
080C
09F4
FE04
0004
2004
2000
2000
2000
3FFC
ENDCHAR
STARTCHAR AD3C
ENCODING 12590
SWIDTH 1800 0
DWIDTH 18 0
BBX 14 15 2 -2
BITMAP
7F8C
008C
008C
008C
088C
080C
09FC
FE0C
0000
3FFC
0004
3FFC
2000
2000
3FFC
ENDCHAR
STARTCHAR AD44
ENCODING 12591
SWIDTH 1800 0
DWIDTH 18 0
BBX 14 16 2 -2
BITMAP
0004
7F84
0084
0084
0084
0884
080C
09F4
FE04
0004
3FFC
2004
2004
2004
2004
3FFC
ENDCHAR
STARTCHAR AD45
ENCODING 12592
SWIDTH 1800 0
DWIDTH 18 0
BBX 14 16 2 -2
BITMAP
0004
7F84
0084
0084
0884
0884
080C
09F4
FE04
0000
2004
2004
3FFC
2004
2004
3FFC
ENDCHAR
STARTCHAR AD47
ENCODING 12593
SWIDTH 1800 0
DWIDTH 18 0
BBX 14 15 2 -2
BITMAP
7F88
0088
0088
0888
0888
0888
0818
FFE8
0008
0008
0300
0380
04C0
1860
E01C
ENDCHAR
STARTCHAR AD49
ENCODING 12594
SWIDTH 1800 0
DWIDTH 18 0
BBX 14 15 2 -2
BITMAP
3F84
0084
0084
0884
0884
0884
080C
FFF4
0004
0FE4
1818
2004
2004
1818
07E0
ENDCHAR
STARTCHAR AD50
ENCODING 12595
SWIDTH 1800 0
DWIDTH 18 0
BBX 14 14 2 -1
BITMAP
7FF8
0008
0008
0008
0008
0008
1088
1088
1090
1090
1090
1090
1080
FFFC
ENDCHAR
STARTCHAR AD54
ENCODING 12596
SWIDTH 1800 0
DWIDTH 18 0
BBX 15 15 1 -2
BITMAP
3FFC
0004
0004
0844
0844
0844
0840
FFFE
0000
0000
1000
1000
1000
1000
1FFE
ENDCHAR
STARTCHAR AD58
ENCODING 12597
SWIDTH 1800 0
DWIDTH 18 0
BBX 14 15 2 -2
BITMAP
7FF8
0008
0008
0888
0888
0888
FFFC
0000
0000
7FF8
0008
3FF8
6000
6000
3FF8
ENDCHAR
STARTCHAR AD61
ENCODING 12598
SWIDTH 1800 0
DWIDTH 18 0
BBX 15 15 1 -2
BITMAP
3FFC
0004
0004
0844
0844
0844
FFFE
0000
0000
2004
2004
3FFC
2004
2004
3FFC
ENDCHAR
STARTCHAR AD63
ENCODING 12599
SWIDTH 1800 0
DWIDTH 18 0
BBX 15 15 1 -2
BITMAP
3FFC
0004
0004
0844
0844
0844
0840
FFFE
0000
0000
0080
01C0
0260
0C30
700E
ENDCHAR
STARTCHAR AD6C
ENCODING 12600
SWIDTH 1800 0
DWIDTH 18 0
BBX 14 15 2 -2
BITMAP
7FF8
0008
0008
0008
0008
0008
0008
0008
FFFC
0100
0100
0100
0100
0100
0100
ENDCHAR
STARTCHAR AD6D
ENCODING 12601
SWIDTH 1800 0
DWIDTH 18 0
BBX 14 16 2 -3
BITMAP
7FF8
0008
0008
0008
0008
0008
FFFC
0100
0100
0100
3FF8
0008
0008
0008
0008
0008
ENDCHAR
STARTCHAR AD70
ENCODING 12602
SWIDTH 1800 0
DWIDTH 18 0
BBX 14 15 2 -2
BITMAP
7FF8
0008
0008
0008
0008
0008
0008
FFFC
0100
0100
2100
2100
2000
2000
3FFC
ENDCHAR
STARTCHAR AD73
ENCODING 12603
SWIDTH 1800 0
DWIDTH 18 0
BBX 15 15 2 -2
BITMAP
7FF8
0008
0008
0008
0008
0008
FFFE
0100
0100
7FFC
4000
4000
4000
4000
7FF8
ENDCHAR
STARTCHAR AD74
ENCODING 12604
SWIDTH 1800 0
DWIDTH 18 0
BBX 14 15 2 -2
BITMAP
7FF0
0008
0008
0008
0008
0008
FFFC
0300
0300
7FF8
0008
7FF8
4000
4000
7FF8
ENDCHAR
STARTCHAR AD75
ENCODING 12605
SWIDTH 1800 0
DWIDTH 18 0
BBX 14 15 2 -2
BITMAP
7FF8
0008
0008
0008
0008
FFFC
0100
0100
0000
7CF8
0408
7C08
4008
4008
7E08
ENDCHAR
STARTCHAR AD76
ENCODING 12606
SWIDTH 1800 0
DWIDTH 18 0
BBX 16 15 1 -2
BITMAP
3FFC
0004
0004
0004
0004
FFFF
0100
0100
0000
7E7C
0244
7E44
4044
4044
7F3C
ENDCHAR
STARTCHAR AD7B
ENCODING 12607
SWIDTH 1800 0
DWIDTH 18 0
BBX 16 15 1 -2
BITMAP
3FFC
0004
0004
0004
0004
FFFF
0100
0100
0138
3E00
02FE
7E7C
40C4
40C4
7E7C
ENDCHAR
STARTCHAR AD7C
ENCODING 12608
SWIDTH 1800 0
DWIDTH 18 0
BBX 15 15 1 -2
BITMAP
3FFC
0004
0004
0004
0004
0004
FFFE
0100
0100
1FFC
1004
1004
1004
1004
1FFC
ENDCHAR
STARTCHAR AD7D
ENCODING 12609
SWIDTH 1800 0
DWIDTH 18 0
BBX 15 15 1 -2
BITMAP
3FFC
0004
0004
0004
0004
0004
FFFE
0100
0100
2104
2004
3FFC
2004
2004
3FFC
ENDCHAR
STARTCHAR AD7F
ENCODING 12610
SWIDTH 1800 0
DWIDTH 18 0
BBX 16 15 1 -2
BITMAP
3FFC
0004
0004
0004
0004
0004
FFFF
0100
0100
0000
0000
0180
0240
0C30
700C
ENDCHAR
STARTCHAR AD81
ENCODING 12611
SWIDTH 1800 0
DWIDTH 18 0
BBX 15 15 1 -2
BITMAP
3FFC
0004
0004
0004
0004
0004
FFFE
0100
0100
0FE0
1818
2004
2004
1818
07E0
ENDCHAR
STARTCHAR AD82
ENCODING 12612
SWIDTH 1800 0
DWIDTH 18 0
BBX 15 15 1 -2
BITMAP
3FFC
0004
0004
0004
0004
0004
FFFE
0100
0100
0000
3FFC
0180
03C0
0420
381C
ENDCHAR
STARTCHAR AD88
ENCODING 12613
SWIDTH 1800 0
DWIDTH 18 0
BBX 12 16 3 -3
BITMAP
FF10
0110
0110
0110
0110
0110
0110
FFF0
0810
0810
09F0
0810
0810
0810
0810
0010
ENDCHAR
STARTCHAR AD89
ENCODING 12614
SWIDTH 1800 0
DWIDTH 18 0
BBX 13 16 3 -3
BITMAP
FF08
0108
0108
0108
0108
FFF8
0808
08F8
0808
0000
7FF8
0008
0008
0008
0008
0008
ENDCHAR
STARTCHAR AD8C
ENCODING 12615
SWIDTH 1800 0
DWIDTH 18 0
BBX 14 15 2 -2
BITMAP
7F88
0088
0088
0088
0088
0088
FFF8
0808
08F8
0808
2808
2000
2000
2000
3FFC
ENDCHAR
STARTCHAR AD90
ENCODING 12616
SWIDTH 1800 0
DWIDTH 18 0
BBX 13 16 3 -2
BITMAP
0008
FF08
0108
0108
0108
FFF8
0808
08F8
0808
0000
3FF8
0008
3FF8
2000
2000
3FF8
ENDCHAR
STARTCHAR AD9C
ENCODING 12617
SWIDTH 1800 0
DWIDTH 18 0
BBX 14 14 2 -1
BITMAP
FF08
0108
0108
0108
0108
FFF8
0808
08F8
0808
1028
3020
3870
6858
C78C
ENDCHAR
STARTCHAR AD9D
ENCODING 12618
SWIDTH 1800 0
DWIDTH 18 0
BBX 13 15 3 -2
BITMAP
FF08
0108
0108
0108
0108
FFF8
0808
08F8
0808
1FE8
3030
4008
4008
3030
1FC0
ENDCHAR
STARTCHAR ADA4
ENCODING 12619
SWIDTH 1800 0
DWIDTH 18 0
BBX 14 17 2 -3
BITMAP
0004
3E44
0244
0244
0244
0244
0244
0244
FFC4
1044
1044
13C4
1044
1044
1044
1044
0040
ENDCHAR
STARTCHAR ADB7
ENCODING 12620
SWIDTH 1800 0
DWIDTH 18 0
BBX 15 15 1 -2
BITMAP
3F12
0112
0112
0112
0112
FFF2
0812
08F2
0812
0012
00C0
01C0
0320
0E18
3806
ENDCHAR
STARTCHAR ADC0
ENCODING 12621
SWIDTH 1800 0
DWIDTH 18 0
BBX 14 15 2 -2
BITMAP
7F84
0084
0084
0084
0084
0084
0084
00FC
FFE4
0404
0404
0404
0404
0404
0404
ENDCHAR
STARTCHAR ADC1
ENCODING 12622
SWIDTH 1800 0
DWIDTH 18 0
BBX 14 16 2 -3
BITMAP
7F84
0084
0084
0084
0084
0084
FFFC
0404
0404
0400
3FFC
0004
0004
0004
0004
0004
ENDCHAR
STARTCHAR ADC4
ENCODING 12623
SWIDTH 1800 0
DWIDTH 18 0
BBX 14 15 2 -2
BITMAP
7F84
0084
0084
0084
0084
0084
008C
FFFC
0404
0404
2404
2004
2000
2000
3FFC
ENDCHAR
STARTCHAR ADC8
ENCODING 12624
SWIDTH 1800 0
DWIDTH 18 0
BBX 14 15 2 -2
BITMAP
7F8C
008C
008C
008C
008C
008C
FFFC
040C
0404
3FFC
0004
1FFC
3000
3000
1FFC
ENDCHAR
STARTCHAR ADD0
ENCODING 12625
SWIDTH 1800 0
DWIDTH 18 0
BBX 14 15 2 -2
BITMAP
7F84
0084
0084
0084
0084
008C
FFFC
0404
0404
3FFC
2004
2004
2004
2004
3FFC
ENDCHAR
STARTCHAR ADD1
ENCODING 12626
SWIDTH 1800 0
DWIDTH 18 0
BBX 14 15 2 -2
BITMAP
7F84
0084
0084
0084
0084
008C
FFFC
0404
0404
2404
2004
3FFC
2004
2004
3FFC
ENDCHAR
STARTCHAR ADD3
ENCODING 12627
SWIDTH 1800 0
DWIDTH 18 0
BBX 14 15 2 -2
BITMAP
7F88
0088
0088
0088
0088
0088
FFF8
0408
0408
0408
0180
0380
0640
1C30
700C
ENDCHAR
STARTCHAR ADDC
ENCODING 12628
SWIDTH 1800 0
DWIDTH 18 0
BBX 14 16 2 -3
BITMAP
7FF8
0008
0008
0008
0008
0008
0008
0008
FFFC
1020
1020
1020
1020
1020
1020
1000
ENDCHAR
STARTCHAR ADE0
ENCODING 12629
SWIDTH 1800 0
DWIDTH 18 0
BBX 14 15 2 -2
BITMAP
7FF8
0008
0008
0008
0008
0008
FFFC
0840
0840
0840
4840
4000
4000
4000
7FFC
ENDCHAR
STARTCHAR ADE4
ENCODING 12630
SWIDTH 1800 0
DWIDTH 18 0
BBX 14 15 2 -2
BITMAP
7FF0
0008
0008
0008
0008
0008
FFFC
1020
1020
7FF8
0008
7FF8
4000
4000
7FF8
ENDCHAR
STARTCHAR ADF8
ENCODING 12631
SWIDTH 1800 0
DWIDTH 18 0
BBX 14 14 2 -1
BITMAP
7FF0
0010
0010
0010
0010
0010
0010
0010
0010
0010
0010
0010
0010
FFFC
ENDCHAR
STARTCHAR ADF9
ENCODING 12632
SWIDTH 1800 0
DWIDTH 18 0
BBX 14 16 2 -3
BITMAP
7FF8
0008
0008
0008
0008
0008
0008
FFFC
0000
0000
7FF8
0008
0008
0008
0008
0008
ENDCHAR
STARTCHAR ADFC
ENCODING 12633
SWIDTH 1800 0
DWIDTH 18 0
BBX 14 15 2 -2
BITMAP
3FF8
0008
0008
0008
0008
0008
0008
FFFC
0000
0000
2000
2000
2000
2000
3FFC
ENDCHAR
STARTCHAR ADFF
ENCODING 12634
SWIDTH 1800 0
DWIDTH 18 0
BBX 14 15 2 -2
BITMAP
7FF8
0008
0008
0008
0008
0008
FFFC
0000
0000
7FF8
4000
4000
4000
4000
7FF8
ENDCHAR
STARTCHAR AE00
ENCODING 12635
SWIDTH 1800 0
DWIDTH 18 0
BBX 14 15 2 -2
BITMAP
7FF8
0008
0008
0008
0008
0008
FFFC
0000
0000
7FF8
0008
7FF8
4000
4000
7FF8
ENDCHAR
STARTCHAR AE01
ENCODING 12636
SWIDTH 1800 0
DWIDTH 18 0
BBX 14 15 2 -2
BITMAP
7FF8
0008
0008
0008
0008
0008
FFFC
0000
0000
FCF8
0408
FC08
8008
8008
FE08
ENDCHAR
STARTCHAR AE08
ENCODING 12637
SWIDTH 1800 0
DWIDTH 18 0
BBX 14 15 2 -2
BITMAP
7FF8
0008
0008
0008
0008
0008
FFFC
0000
0000
3FF8
2008
2008
2008
2008
3FF8
ENDCHAR
STARTCHAR AE09
ENCODING 12638
SWIDTH 1800 0
DWIDTH 18 0
BBX 14 15 2 -2
BITMAP
7FF8
0008
0008
0008
0008
0008
FFFC
0000
0000
4008
4008
7FF8
4008
4008
7FF8
ENDCHAR
STARTCHAR AE0B
ENCODING 12639
SWIDTH 1800 0
DWIDTH 18 0
BBX 14 15 2 -2
BITMAP
7FF8
0008
0008
0008
0008
0008
0008
FFFC
0000
0000
0100
0280
0440
1870
601C
ENDCHAR
STARTCHAR AE0D
ENCODING 12640
SWIDTH 1800 0
DWIDTH 18 0
BBX 14 15 2 -2
BITMAP
7FF8
0008
0008
0008
0008
0008
FFFC
0000
0000
1FC0
3030
4008
4008
3030
0FC0
ENDCHAR
STARTCHAR AE14
ENCODING 12641
SWIDTH 1800 0
DWIDTH 18 0
BBX 14 15 2 -2
BITMAP
7F84
0084
0084
0084
0084
0084
0084
0084
0084
0084
0084
FFFC
0004
0004
0004
ENDCHAR
STARTCHAR AE30
ENCODING 12642
SWIDTH 1800 0
DWIDTH 18 0
BBX 14 16 2 -2
BITMAP
0004
FF04
0104
0104
0104
0104
0104
0104
0204
0604
0C04
1804
E004
0004
0004
0004
ENDCHAR
STARTCHAR AE31
ENCODING 12643
SWIDTH 1800 0
DWIDTH 18 0
BBX 14 16 2 -3
BITMAP
FF04
0104
0104
0104
0104
0304
0604
3804
E004
0000
3FFC
0004
0004
0004
0004
0004
ENDCHAR
STARTCHAR AE34
ENCODING 12644
SWIDTH 1800 0
DWIDTH 18 0
BBX 14 15 2 -2
BITMAP
FF04
0104
0104
0104
0104
0104
0604
0C04
F004
0004
2004
2004
2000
2000
3FFC
ENDCHAR
STARTCHAR AE37
ENCODING 12645
SWIDTH 1800 0
DWIDTH 18 0
BBX 14 15 2 -2
BITMAP
FF04
0104
0104
0104
0104
0204
0C04
F004
0000
0000
3FFC
2000
2000
2000
3FFC
ENDCHAR
STARTCHAR AE38
ENCODING 12646
SWIDTH 1800 0
DWIDTH 18 0
BBX 14 15 2 -2
BITMAP
FF04
0104
0104
0104
0104
0604
0C04
F004
0000
1FFC
0004
1FFC
1000
1000
1FFC
ENDCHAR
STARTCHAR AE3A
ENCODING 12647
SWIDTH 1800 0
DWIDTH 18 0
BBX 14 15 2 -2
BITMAP
7F04
0184
0104
0104
0104
0204
0C04
F004
0000
7C7C
0444
7C44
4044
4044
7E7C
ENDCHAR
STARTCHAR AE40
ENCODING 12648
SWIDTH 1800 0
DWIDTH 18 0
BBX 14 15 2 -2
BITMAP
7F04
0104
0104
0104
0104
0204
0C04
F004
0000
3FFC
2004
2004
2004
2004
3FFC
ENDCHAR
STARTCHAR AE41
ENCODING 12649
SWIDTH 1800 0
DWIDTH 18 0
BBX 14 16 2 -2
BITMAP
0004
7F04
0184
0104
0104
0104
0604
1C04
E000
0000
2004
2004
3FFC
2004
2004
3FFC
ENDCHAR
STARTCHAR AE43
ENCODING 12650
SWIDTH 1800 0
DWIDTH 18 0
BBX 14 15 2 -2
BITMAP
FF08
0108
0108
0108
0108
0208
0408
3808
C008
0008
0180
0380
0640
1C30
700C
ENDCHAR
STARTCHAR AE45
ENCODING 12651
SWIDTH 1800 0
DWIDTH 18 0
BBX 14 15 2 -2
BITMAP
7F04
0184
0104
0104
0104
0204
0C04
F004
0004
0FE0
3018
4004
4004
3018
0FE0
ENDCHAR
STARTCHAR AE46
ENCODING 12652
SWIDTH 1800 0
DWIDTH 18 0
BBX 14 15 2 -2
BITMAP
7F04
0184
0104
0104
0104
0204
0C04
F004
0000
7FFC
0100
0380
06C0
3838
600C
ENDCHAR
STARTCHAR AE4A
ENCODING 12653
SWIDTH 1800 0
DWIDTH 18 0
BBX 15 15 2 -2
BITMAP
FF08
0108
0108
0108
0208
0608
1808
E008
0000
3FFC
0810
0810
0810
0810
7FFE
ENDCHAR
STARTCHAR AE4C
ENCODING 12654
SWIDTH 1800 0
DWIDTH 18 0
BBX 16 15 1 -2
BITMAP
7BC8
0848
0848
0848
0848
1048
104F
1048
3048
20C8
6088
C188
0108
0008
0008
ENDCHAR
STARTCHAR AE4D
ENCODING 12655
SWIDTH 1800 0
DWIDTH 18 0
BBX 15 16 1 -3
BITMAP
FBC8
0848
0848
0848
084E
1048
3088
C108
0208
0000
7FF8
0008
0008
0008
0008
0008
ENDCHAR
STARTCHAR AE4E
ENCODING 12656
SWIDTH 1800 0
DWIDTH 18 0
BBX 15 15 1 -2
BITMAP
FBC8
0848
0848
084E
0848
1088
2188
C308
0000
3EFC
0204
0204
0204
0204
0204
ENDCHAR
STARTCHAR AE50
ENCODING 12657
SWIDTH 1800 0
DWIDTH 18 0
BBX 15 15 1 -2
BITMAP
FBC8
0848
0848
0848
0848
184E
1088
6188
C308
0008
2008
2000
2000
2000
3FF8
ENDCHAR
STARTCHAR AE54
ENCODING 12658
SWIDTH 1800 0
DWIDTH 18 0
BBX 16 15 1 -2
BITMAP
7BCC
084C
084C
084F
084C
108C
618C
C30C
0000
3FF8
000C
3FFC
2000
2000
3FFC
ENDCHAR
STARTCHAR AE56
ENCODING 12659
SWIDTH 1800 0
DWIDTH 18 0
BBX 16 15 1 -2
BITMAP
FBC4
0844
0844
0844
0847
1084
6184
C304
0000
7CFC
0484
7C84
4084
4084
7E7C
ENDCHAR
STARTCHAR AE5C
ENCODING 12660
SWIDTH 1800 0
DWIDTH 18 0
BBX 15 15 1 -2
BITMAP
FBC8
0848
0848
0848
184E
1088
2188
C308
0000
3FFC
2004
2004
2004
2004
3FFC
ENDCHAR
STARTCHAR AE5D
ENCODING 12661
SWIDTH 1800 0
DWIDTH 18 0
BBX 16 15 1 -2
BITMAP
FBC4
0844
0844
0844
1847
1084
2184
C304
0000
2004
2004
3FFC
2004
2004
3FFC
ENDCHAR
STARTCHAR AE5F
ENCODING 12662
SWIDTH 1800 0
DWIDTH 18 0
BBX 16 15 1 -2
BITMAP
FBC4
0844
0844
0844
0844
1087
3084
6104
8204
0004
0184
01C0
0260
0C30
700E
ENDCHAR
STARTCHAR AE60
ENCODING 12663
SWIDTH 1800 0
DWIDTH 18 0
BBX 15 15 1 -2
BITMAP
FBC8
0848
0848
0848
084E
1048
3088
C108
0208
0810
0810
1818
1C28
266C
43C2
ENDCHAR
STARTCHAR AE61
ENCODING 12664
SWIDTH 1800 0
DWIDTH 18 0
BBX 16 15 1 -2
BITMAP
FBC4
0844
0844
0844
0847
10C4
3084
C304
0004
0FE0
1818
2004
2004
1818
07E0
ENDCHAR
STARTCHAR AE65
ENCODING 12665
SWIDTH 1800 0
DWIDTH 18 0
BBX 15 15 1 -2
BITMAP
FBC8
0848
0848
0848
184E
1088
2188
C308
0008
3FFC
2000
3FF8
2000
2000
3FFC
ENDCHAR
STARTCHAR AE68
ENCODING 12666
SWIDTH 1800 0
DWIDTH 18 0
BBX 14 15 2 -2
BITMAP
F724
1124
1124
1124
1124
1124
1124
113C
1124
3124
2224
6224
8C24
0024
0024
ENDCHAR
STARTCHAR AE69
ENCODING 12667
SWIDTH 1800 0
DWIDTH 18 0
BBX 14 16 2 -3
BITMAP
F724
1124
1124
1124
113C
2124
2224
C624
0824
0000
3FFC
0004
0004
0004
0004
0004
ENDCHAR
STARTCHAR AE6C
ENCODING 12668
SWIDTH 1800 0
DWIDTH 18 0
BBX 14 16 2 -2
BITMAP
0040
F748
1148
1148
1148
1178
1148
2248
4648
8C48
0048
2000
2000
2000
2000
3FFC
ENDCHAR
STARTCHAR AE70
ENCODING 12669
SWIDTH 1800 0
DWIDTH 18 0
BBX 14 16 2 -2
BITMAP
0020
F724
1124
1124
113C
1124
2224
4624
8C00
0000
3FFC
0004
3FFC
2000
2000
3FFC
ENDCHAR
STARTCHAR AE78
ENCODING 12670
SWIDTH 1800 0
DWIDTH 18 0
BBX 14 15 2 -2
BITMAP
F724
1124
1124
1124
113C
2224
2224
C424
0024
3FFC
2004
2004
2004
2004
3FFC
ENDCHAR
STARTCHAR AE79
ENCODING 12833
SWIDTH 1800 0
DWIDTH 18 0
BBX 14 15 2 -2
BITMAP
FF24
1124
1124
1124
113C
2324
6224
C424
0024
2004
2004
3FFC
2004
2004
3FFC
ENDCHAR
STARTCHAR AE7B
ENCODING 12834
SWIDTH 1800 0
DWIDTH 18 0
BBX 14 15 2 -2
BITMAP
FF48
1148
1148
1148
1178
1148
2248
4648
8C48
0008
0100
0380
06C0
0C60
701C
ENDCHAR
STARTCHAR AE7C
ENCODING 12835
SWIDTH 1800 0
DWIDTH 18 0
BBX 14 15 2 -2
BITMAP
FF48
1148
1148
1148
1178
2348
6248
C448
0048
0020
1020
3030
3850
4CD8
878C
ENDCHAR
STARTCHAR AE7D
ENCODING 12836
SWIDTH 1800 0
DWIDTH 18 0
BBX 14 15 2 -2
BITMAP
FF24
1124
1124
1124
113C
2124
2224
C424
0024
0000
0FE0
3018
2008
3018
0FE0
ENDCHAR
STARTCHAR AE84
ENCODING 12837
SWIDTH 1800 0
DWIDTH 18 0
BBX 16 15 1 -2
BITMAP
7BC4
0844
0844
0844
0847
1044
1044
1044
1044
2044
6087
C084
8104
0004
0004
ENDCHAR
STARTCHAR AE85
ENCODING 12838
SWIDTH 1800 0
DWIDTH 18 0
BBX 15 15 1 -2
BITMAP
FBC8
0848
084E
0848
0848
104E
3088
C108
0208
0000
7FF8
0008
0008
0008
0008
ENDCHAR
STARTCHAR AE8C
ENCODING 12839
SWIDTH 1800 0
DWIDTH 18 0
BBX 15 16 1 -2
BITMAP
0008
7BC8
084E
0848
0848
0848
108E
6188
C308
0008
3FFC
0004
3FFC
2000
2000
3FFC
ENDCHAR
STARTCHAR AEBC
ENCODING 12840
SWIDTH 1800 0
DWIDTH 18 0
BBX 14 15 2 -2
BITMAP
7F84
0884
0884
0884
0884
0884
10BC
1084
1084
3084
2104
4104
8204
0004
0004
ENDCHAR
STARTCHAR AEBD
ENCODING 12841
SWIDTH 1800 0
DWIDTH 18 0
BBX 14 16 2 -3
BITMAP
FBC4
0844
0844
0844
085C
10C4
3084
C104
0204
0000
3FFC
0004
0004
0004
0004
0004
ENDCHAR
STARTCHAR AEBE
ENCODING 12842
SWIDTH 1800 0
DWIDTH 18 0
BBX 14 15 2 -2
BITMAP
FBC4
0844
0844
0844
185C
1084
2184
C304
0000
3EFC
0204
0204
0204
0204
0204
ENDCHAR
STARTCHAR AEC0
ENCODING 12843
SWIDTH 1800 0
DWIDTH 18 0
BBX 14 15 2 -2
BITMAP
FBC4
0844
0844
0844
0844
185C
1084
6184
C304
0004
2004
2004
2000
2000
3FFC
ENDCHAR
STARTCHAR AEC4
ENCODING 12844
SWIDTH 1800 0
DWIDTH 18 0
BBX 14 15 2 -2
BITMAP
FBC4
0844
0844
0844
18BC
1084
6104
C304
0004
3FFC
0004
3FFC
2000
2000
1FFC
ENDCHAR
STARTCHAR AECC
ENCODING 12845
SWIDTH 1800 0
DWIDTH 18 0
BBX 14 15 2 -2
BITMAP
FBC4
0844
0844
0844
087C
1084
2184
C304
0004
3FFC
2004
2004
2004
2004
3FFC
ENDCHAR
STARTCHAR AECD
ENCODING 12846
SWIDTH 1800 0
DWIDTH 18 0
BBX 14 15 2 -2
BITMAP
FBC4
0844
0844
0844
087C
1084
2184
C304
0000
1004
1004
1FFC
1004
1004
1FFC
ENDCHAR
STARTCHAR AECF
ENCODING 12847
SWIDTH 1800 0
DWIDTH 18 0
BBX 15 16 2 -2
BITMAP
0004
FBC4
0844
0844
0844
085C
1084
3084
6104
8204
0004
0180
01C0
0240
0C30
700E
ENDCHAR
STARTCHAR AED0
ENCODING 12848
SWIDTH 1800 0
DWIDTH 18 0
BBX 15 16 2 -2
BITMAP
0008
FFC8
0848
0848
08C8
08F8
1088
2108
C308
0408
1000
1020
1030
2870
6C48
C786
ENDCHAR
STARTCHAR AED1
ENCODING 12849
SWIDTH 1800 0
DWIDTH 18 0
BBX 14 16 2 -2
BITMAP
0004
FBC4
0844
0844
0844
085C
1084
2184
C304
0004
0004
0FF0
300C
2004
300C
0FF0
ENDCHAR
STARTCHAR AED8
ENCODING 12850
SWIDTH 1800 0
DWIDTH 18 0
BBX 14 17 2 -3
BITMAP
0004
F724
1124
1124
1124
1124
1124
11E4
1124
1124
3124
2224
C624
0424
0024
0024
0020
ENDCHAR
STARTCHAR AED9
ENCODING 12851
SWIDTH 1800 0
DWIDTH 18 0
BBX 14 17 2 -3
BITMAP
0020
F724
1124
1124
1124
11E4
2124
6224
C624
0824
0000
3FFC
0004
0004
0004
0004
0004
ENDCHAR
STARTCHAR AEDC
ENCODING 12852
SWIDTH 1800 0
DWIDTH 18 0
BBX 14 15 2 -2
BITMAP
F724
1124
1124
1124
11E4
1124
2224
4624
8C24
0024
2024
2004
2000
2000
3FFC
ENDCHAR
STARTCHAR AEE8
ENCODING 12853
SWIDTH 1800 0
DWIDTH 18 0
BBX 14 16 2 -2
BITMAP
0020
F724
1124
1124
1124
11E4
2124
2224
C424
0004
3FFC
2004
2004
2004
2004
3FFC
ENDCHAR
STARTCHAR AEEB
ENCODING 12854
SWIDTH 1800 0
DWIDTH 18 0
BBX 14 15 2 -2
BITMAP
F724
1124
1124
1124
11E4
1124
2324
2224
C424
0004
0180
0380
0640
1C30
700C
ENDCHAR
STARTCHAR AEED
ENCODING 12855
SWIDTH 1800 0
DWIDTH 18 0
BBX 14 15 2 -2
BITMAP
F724
1124
1124
1124
11E4
2124
2224
4224
8C24
0004
0FF0
300C
2004
300C
0FF0
ENDCHAR
STARTCHAR AEF4
ENCODING 12856
SWIDTH 1800 0
DWIDTH 18 0
BBX 13 16 3 -2
BITMAP
0008
F788
1088
1088
1088
10F8
1088
1088
1088
1088
20F8
6108
C308
0208
0008
0008
ENDCHAR
STARTCHAR AEF8
ENCODING 12857
SWIDTH 1800 0
DWIDTH 18 0
BBX 14 15 2 -2
BITMAP
FBC4
0844
0844
085C
0844
1844
1084
619C
C304
0004
2004
2000
2000
2000
3FFC
ENDCHAR
STARTCHAR AEFC
ENCODING 12858
SWIDTH 1800 0
DWIDTH 18 0
BBX 14 15 2 -2
BITMAP
FBC4
0844
087C
0844
1884
10BC
6104
C304
0000
3FFC
0004
3FFC
2000
2000
1FFC
ENDCHAR
STARTCHAR AF07
ENCODING 12859
SWIDTH 1800 0
DWIDTH 18 0
BBX 14 15 2 -2
BITMAP
F3C4
0844
085C
0844
1044
1084
209C
C304
0204
0004
0180
0180
0240
0C30
701C
ENDCHAR
STARTCHAR AF08
ENCODING 12860
SWIDTH 1800 0
DWIDTH 18 0
BBX 14 15 2 -2
BITMAP
F788
1088
10B8
1088
1088
2108
6308
C678
0008
1028
1020
3870
2850
468C
8304
ENDCHAR
STARTCHAR AF0D
ENCODING 12861
SWIDTH 1800 0
DWIDTH 18 0
BBX 14 15 2 -2
BITMAP
FBC4
0844
085C
08C4
1084
3084
613C
8604
0004
3FFC
2000
3FF8
2000
2000
3FFC
ENDCHAR
STARTCHAR AF10
ENCODING 12862
SWIDTH 1800 0
DWIDTH 18 0
BBX 14 16 2 -2
BITMAP
0004
F724
1124
1124
1124
11E4
1124
1124
1124
1124
31E4
2224
C624
0C24
0024
0024
ENDCHAR
STARTCHAR AF2C
ENCODING 12863
SWIDTH 1800 0
DWIDTH 18 0
BBX 14 14 2 -1
BITMAP
7DF8
0408
0408
0408
0408
0408
0408
0508
0910
0910
0910
0100
0100
FFFC
ENDCHAR
STARTCHAR AF2D
ENCODING 12864
SWIDTH 1800 0
DWIDTH 18 0
BBX 14 15 2 -2
BITMAP
FDF8
0408
0408
0408
0508
0908
0900
0100
FFFC
0000
7FF8
0008
0008
0008
0008
ENDCHAR
STARTCHAR AF30
ENCODING 12865
SWIDTH 1800 0
DWIDTH 18 0
BBX 15 15 1 -2
BITMAP
7EFC
0204
0204
0204
0284
0684
0488
0080
FFFE
0000
1000
1000
1000
1000
1FFE
ENDCHAR
STARTCHAR AF32
ENCODING 12866
SWIDTH 1800 0
DWIDTH 18 0
BBX 15 15 1 -2
BITMAP
7EFC
0204
0204
0204
0284
0488
0080
FFFE
0000
2078
2000
21FE
207C
3E84
007C
ENDCHAR
STARTCHAR AF34
ENCODING 12867
SWIDTH 1800 0
DWIDTH 18 0
BBX 14 15 2 -2
BITMAP
FDF8
0408
0408
0408
0508
0910
0100
FFFC
0000
7FF8
0008
7FF8
4000
4000
7FF8
ENDCHAR
STARTCHAR AF3C
ENCODING 12868
SWIDTH 1800 0
DWIDTH 18 0
BBX 14 15 2 -2
BITMAP
FCF8
0408
0408
0408
0908
0908
0100
FFFC
0000
7FF8
4008
4008
4008
4008
7FF8
ENDCHAR
STARTCHAR AF3D
ENCODING 12869
SWIDTH 1800 0
DWIDTH 18 0
BBX 14 15 2 -2
BITMAP
F9F8
0408
0408
0408
0908
0910
0100
FFFC
0000
4008
4008
7FF8
4008
4008
7FF8
ENDCHAR
STARTCHAR AF3F
ENCODING 12870
SWIDTH 1800 0
DWIDTH 18 0
BBX 15 15 1 -2
BITMAP
3EFC
0204
0204
0204
0284
0284
0080
0080
FFFE
0000
0080
0140
0260
0C30
700E
ENDCHAR
STARTCHAR AF41
ENCODING 12871
SWIDTH 1800 0
DWIDTH 18 0
BBX 14 15 2 -2
BITMAP
7DF8
0408
0408
0408
0508
0508
0100
FFFC
0000
0000
1FE0
6018
4008
6018
1FE0
ENDCHAR
STARTCHAR AF42
ENCODING 12872
SWIDTH 1800 0
DWIDTH 18 0
BBX 14 15 2 -2
BITMAP
F9F8
0408
0408
0408
0D08
0918
0100
FFFC
0000
0000
3FF8
0300
0680
0C60
7018
ENDCHAR
STARTCHAR AF43
ENCODING 12873
SWIDTH 1800 0
DWIDTH 18 0
BBX 14 15 2 -2
BITMAP
F9F8
0408
0408
0508
0908
0910
FFFC
0000
0FC0
0000
7FF8
0300
0780
0CC0
7038
ENDCHAR
STARTCHAR AF48
ENCODING 12874
SWIDTH 1800 0
DWIDTH 18 0
BBX 14 15 2 -2
BITMAP
F790
1090
1090
1090
1090
1090
1090
249C
2410
0410
0430
FFD0
0010
0010
0010
ENDCHAR
STARTCHAR AF49
ENCODING 12875
SWIDTH 1800 0
DWIDTH 18 0
BBX 16 16 1 -3
BITMAP
FBC4
0844
0844
0844
0A47
1244
020C
FFF4
0004
0000
3FFC
0004
0004
0004
0004
0004
ENDCHAR
STARTCHAR AF50
ENCODING 12876
SWIDTH 1800 0
DWIDTH 18 0
BBX 16 15 1 -2
BITMAP
FBC4
0844
0844
0844
1A47
1204
020C
7FF4
0004
3FF8
0008
3FF8
2000
2000
3FFC
ENDCHAR
STARTCHAR AF5C
ENCODING 12877
SWIDTH 1800 0
DWIDTH 18 0
BBX 16 15 1 -2
BITMAP
FBC4
0844
0844
0844
0A47
1244
020C
FFF4
0004
1810
1810
1830
3C28
6644
0182
ENDCHAR
STARTCHAR AF5D
ENCODING 12878
SWIDTH 1800 0
DWIDTH 18 0
BBX 16 15 1 -2
BITMAP
FBC4
0844
0844
0844
0847
1244
0204
020C
FFF4
0004
0FF0
300C
2004
300C
0FF0
ENDCHAR
STARTCHAR AF64
ENCODING 12879
SWIDTH 1800 0
DWIDTH 18 0
BBX 14 15 2 -2
BITMAP
F724
1124
1124
1124
1124
1124
113C
2924
2924
0824
08E4
FFA4
0024
0024
0024
ENDCHAR
STARTCHAR AF65
ENCODING 12880
SWIDTH 1800 0
DWIDTH 18 0
BBX 14 16 2 -3
BITMAP
F724
1124
1124
1124
113C
1524
0424
7FE4
0024
0000
3FFC
0004
0004
0004
0004
0004
ENDCHAR
STARTCHAR AF79
ENCODING 12881
SWIDTH 1800 0
DWIDTH 18 0
BBX 14 15 2 -2
BITMAP
F724
1124
1124
1124
113C
1524
0424
7FE4
0024
0000
0FF0
301C
2004
300C
0FF0
ENDCHAR
STARTCHAR AF80
ENCODING 12882
SWIDTH 1800 0
DWIDTH 18 0
BBX 13 15 3 -2
BITMAP
F788
1088
1088
1088
1088
1088
1088
1488
2488
0408
0418
FFE8
0008
0008
0008
ENDCHAR
STARTCHAR AF84
ENCODING 12883
SWIDTH 1800 0
DWIDTH 18 0
BBX 14 15 2 -2
BITMAP
F7C4
1844
1844
1044
1044
1244
0204
020C
FFF4
0004
2004
2004
2000
2000
3FFC
ENDCHAR
STARTCHAR AF88
ENCODING 12884
SWIDTH 1800 0
DWIDTH 18 0
BBX 14 15 2 -2
BITMAP
F7C4
1844
1044
1044
1044
1244
020C
FFF4
0004
3FFC
0004
3FFC
2000
2000
1FFC
ENDCHAR
STARTCHAR AF90
ENCODING 12885
SWIDTH 1800 0
DWIDTH 18 0
BBX 14 15 2 -2
BITMAP
F7C4
0864
0844
1044
1044
1244
020C
FFF4
0004
3FFC
2004
2004
2004
2004
3FFC
ENDCHAR
STARTCHAR AF91
ENCODING 12886
SWIDTH 1800 0
DWIDTH 18 0
BBX 14 15 2 -2
BITMAP
F7C4
1064
1044
1044
1244
1244
020C
FFF4
0004
2004
2004
3FFC
2004
2004
3FFC
ENDCHAR
STARTCHAR AF95
ENCODING 12887
SWIDTH 1800 0
DWIDTH 18 0
BBX 14 15 2 -2
BITMAP
F7C4
0864
0844
1044
1244
1244
020C
FFF4
0004
0004
0FF0
301C
2004
300C
0FF0
ENDCHAR
STARTCHAR AF9C
ENCODING 12888
SWIDTH 1800 0
DWIDTH 18 0
BBX 15 14 2 -1
BITMAP
F9F8
0808
0808
0808
0808
0808
0808
1008
1428
1428
0420
0420
0420
FFFE
ENDCHAR
STARTCHAR AFB8
ENCODING 12889
SWIDTH 1800 0
DWIDTH 18 0
BBX 15 15 2 -2
BITMAP
FCF8
0408
0408
0408
0408
0408
0408
0408
FFFE
0100
0100
0100
0100
0100
0100
ENDCHAR
STARTCHAR AFB9
ENCODING 12890
SWIDTH 1800 0
DWIDTH 18 0
BBX 16 15 1 -2
BITMAP
7E7C
0204
0204
0204
0204
0204
0204
FFFF
0080
0080
3FFC
0004
0004
0004
0004
ENDCHAR
STARTCHAR AFBC
ENCODING 12891
SWIDTH 1800 0
DWIDTH 18 0
BBX 15 15 1 -2
BITMAP
7E7C
0204
0204
0204
0204
0204
0204
FFFE
0080
0080
1080
1080
1000
1000
1FFE
ENDCHAR
STARTCHAR AFC0
ENCODING 12892
SWIDTH 1800 0
DWIDTH 18 0
BBX 14 15 2 -2
BITMAP
7DF8
0408
0408
0408
0418
0410
FFFC
0100
0100
7FF8
0008
7FF8
4000
4000
7FF8
ENDCHAR
STARTCHAR AFC7
ENCODING 12893
SWIDTH 1800 0
DWIDTH 18 0
BBX 15 15 2 -2
BITMAP
7EF8
0208
0208
0208
0208
0408
FFFE
0100
01F0
FC00
05FC
FC00
80F8
8104
FCF8
ENDCHAR
STARTCHAR AFC8
ENCODING 12894
SWIDTH 1800 0
DWIDTH 18 0
BBX 15 15 1 -2
BITMAP
7E7C
0204
0204
0204
0204
0204
FFFE
0080
0080
1FFC
1004
1004
1004
1004
1FFC
ENDCHAR
STARTCHAR AFC9
ENCODING 12895
SWIDTH 1800 0
DWIDTH 18 0
BBX 15 15 1 -2
BITMAP
7E7C
0204
0204
0204
0204
0204
FFFE
0080
0080
2084
2004
3FFC
2004
2004
3FFC
ENDCHAR
STARTCHAR AFCB
ENCODING 12896
SWIDTH 1800 0
DWIDTH 18 0
BBX 16 15 1 -2
BITMAP
7E7C
0204
0204
0204
0204
0204
FFFF
0080
0080
0000
0080
0180
0340
0430
781E
ENDCHAR
STARTCHAR AFCD
ENCODING 12897
SWIDTH 1800 0
DWIDTH 18 0
BBX 15 15 1 -2
BITMAP
7E7C
0204
0204
0204
0204
0204
FFFE
0080
0080
07F0
1818
2004
2004
1818
07E0
ENDCHAR
STARTCHAR AFCE
ENCODING 12898
SWIDTH 1800 0
DWIDTH 18 0
BBX 15 15 2 -2
BITMAP
FCF8
0408
0408
0408
0408
0408
FFFE
0100
0100
0000
7FF8
0300
0580
1860
6018
ENDCHAR
STARTCHAR AFD4
ENCODING 12899
SWIDTH 1800 0
DWIDTH 18 0
BBX 14 17 2 -3
BITMAP
0004
7BC4
0844
0844
0844
0844
0844
0844
1084
FFE4
0404
047C
0404
0404
0404
0404
0404
ENDCHAR
STARTCHAR AFDC
ENCODING 12900
SWIDTH 1800 0
DWIDTH 18 0
BBX 14 15 2 -2
BITMAP
7BC4
0844
0844
0844
0844
FFE4
0404
043C
0004
3FFC
0004
3FFC
2000
2000
3FFC
ENDCHAR
STARTCHAR AFE8
ENCODING 12901
SWIDTH 1800 0
DWIDTH 18 0
BBX 16 14 1 -1
BITMAP
79E4
0824
0824
0824
0824
FFF4
0204
023C
0204
0808
0818
1C1C
3434
6363
ENDCHAR
STARTCHAR AFE9
ENCODING 12902
SWIDTH 1800 0
DWIDTH 18 0
BBX 14 15 2 -2
BITMAP
7BC4
0844
0844
0844
0844
FFE4
0404
043C
0404
0FE0
1818
2004
2004
1818
07E0
ENDCHAR
STARTCHAR AFF0
ENCODING 12903
SWIDTH 1800 0
DWIDTH 18 0
BBX 14 16 2 -3
BITMAP
7724
1124
1124
1124
1124
1124
2224
FFE4
0824
0824
09E4
0824
0824
0824
0824
0004
ENDCHAR
STARTCHAR AFF1
ENCODING 12904
SWIDTH 1800 0
DWIDTH 18 0
BBX 13 17 3 -3
BITMAP
0008
EE48
2248
2248
2248
2248
2F48
F048
13C8
1048
0000
7FF8
0008
0008
0008
0008
0008
ENDCHAR
STARTCHAR AFF4
ENCODING 12905
SWIDTH 1800 0
DWIDTH 18 0
BBX 14 16 2 -2
BITMAP
0024
7E24
1224
1224
1224
1224
1224
FF24
09E4
0824
0824
2024
2000
2000
2000
3FFC
ENDCHAR
STARTCHAR AFF8
ENCODING 12906
SWIDTH 1800 0
DWIDTH 18 0
BBX 14 16 2 -2
BITMAP
0024
FE24
1124
1124
1224
2224
FF24
09E4
0824
0000
3FFC
0004
3FFC
2000
2000
3FFC
ENDCHAR
STARTCHAR B000
ENCODING 12907
SWIDTH 1800 0
DWIDTH 18 0
BBX 14 16 2 -2
BITMAP
0004
7724
1124
1124
1124
1124
FFA4
0824
09E4
0820
1FFC
1004
1004
1004
1004
1FFC
ENDCHAR
STARTCHAR B001
ENCODING 12908
SWIDTH 1800 0
DWIDTH 18 0
BBX 14 16 2 -2
BITMAP
0004
7724
1124
1124
1124
1124
FFA4
0824
09E4
0820
2004
2004
3FFC
2004
2004
3FFC
ENDCHAR
STARTCHAR B004
ENCODING 12909
SWIDTH 1800 0
DWIDTH 18 0
BBX 16 16 1 -2
BITMAP
0004
7724
1124
1124
1124
1124
FFA4
0824
09E4
0824
0020
0810
0818
1418
3624
63C3
ENDCHAR
STARTCHAR B00C
ENCODING 12910
SWIDTH 1800 0
DWIDTH 18 0
BBX 14 16 2 -3
BITMAP
7BC4
0844
0844
0844
0844
0844
0844
09FC
FE04
0204
0204
0204
0204
0204
0204
0200
ENDCHAR
STARTCHAR B010
ENCODING 12911
SWIDTH 1800 0
DWIDTH 18 0
BBX 15 16 2 -2
BITMAP
0008
7BC8
0848
0848
0848
0848
0848
0858
FFF8
0408
0408
2408
2008
2000
2000
1FFE
ENDCHAR
STARTCHAR B014
ENCODING 12912
SWIDTH 1800 0
DWIDTH 18 0
BBX 13 15 3 -2
BITMAP
F788
1088
1088
1088
1088
13F8
FC08
0408
0400
7FF0
0018
7FF8
4000
4000
7FF8
ENDCHAR
STARTCHAR B01C
ENCODING 12913
SWIDTH 1800 0
DWIDTH 18 0
BBX 14 15 2 -2
BITMAP
7BC4
0844
0844
0844
0844
084C
FFFC
0204
0204
3FFC
2004
2004
2004
2004
3FFC
ENDCHAR
STARTCHAR B01D
ENCODING 12914
SWIDTH 1800 0
DWIDTH 18 0
BBX 14 15 2 -2
BITMAP
7BC4
0844
0844
0844
0844
FFFC
0204
0204
0200
2004
2004
3FFC
2004
2004
3FFC
ENDCHAR
STARTCHAR B028
ENCODING 12915
SWIDTH 1800 0
DWIDTH 18 0
BBX 16 16 1 -3
BITMAP
3EFC
0204
0204
0204
0204
0204
0204
0604
FFFF
0810
0810
0810
0810
0810
0810
0010
ENDCHAR
STARTCHAR B044
ENCODING 12916
SWIDTH 1800 0
DWIDTH 18 0
BBX 14 14 2 -1
BITMAP
7DF8
0408
0408
0408
0408
0408
0408
0408
0408
0408
0408
0810
0810
FFFC
ENDCHAR
STARTCHAR B045
ENCODING 12917
SWIDTH 1800 0
DWIDTH 18 0
BBX 15 16 1 -3
BITMAP
3EFC
0204
0204
0204
0204
0204
0204
FFFE
0000
0000
3FFC
0004
0004
0004
0004
0004
ENDCHAR
STARTCHAR B048
ENCODING 12918
SWIDTH 1800 0
DWIDTH 18 0
BBX 15 15 1 -2
BITMAP
3EFC
0204
0204
0204
0204
0204
0204
FFFE
0000
0000
1000
1000
1000
1000
1FFE
ENDCHAR
STARTCHAR B04A
ENCODING 12919
SWIDTH 1800 0
DWIDTH 18 0
BBX 15 16 1 -3
BITMAP
3EFC
0204
0204
0204
0204
0204
0204
FFFE
0078
2000
21FE
2000
207C
2084
3E84
0078
ENDCHAR
STARTCHAR B04C
ENCODING 12920
SWIDTH 1800 0
DWIDTH 18 0
BBX 14 15 2 -2
BITMAP
7DF8
0408
0408
0408
0408
0408
FFFC
0000
0000
7FF8
0008
7FF8
4000
4000
7FF8
ENDCHAR
STARTCHAR B04E
ENCODING 12921
SWIDTH 1800 0
DWIDTH 18 0
BBX 15 15 1 -2
BITMAP
3EFC
0204
0204
0204
0204
0204
FFFE
0000
0000
3E7C
0244
3E44
2044
2044
3F3C
ENDCHAR
STARTCHAR B053
ENCODING 12922
SWIDTH 1800 0
DWIDTH 18 0
BBX 15 15 1 -2
BITMAP
3EFC
0204
0204
0204
0204
0204
FFFE
0000
3E38
0200
02FE
3E00
207C
2086
3E7C
ENDCHAR
STARTCHAR B054
ENCODING 12923
SWIDTH 1800 0
DWIDTH 18 0
BBX 15 15 1 -2
BITMAP
3EFC
0204
0204
0204
0204
0204
0204
FFFE
0000
1FFC
1004
1004
1004
1004
1FFC
ENDCHAR
STARTCHAR B055
ENCODING 12924
SWIDTH 1800 0
DWIDTH 18 0
BBX 15 15 1 -2
BITMAP
3EFC
0204
0204
0204
0204
0204
0204
FFFE
0000
2004
2004
3FFC
2004
2004
3FFC
ENDCHAR
STARTCHAR B057
ENCODING 12925
SWIDTH 1800 0
DWIDTH 18 0
BBX 15 15 1 -2
BITMAP
3EFC
0204
0204
0204
0204
0204
0204
FFFE
0000
0080
00C0
01C0
0320
0610
380E
ENDCHAR
STARTCHAR B059
ENCODING 12926
SWIDTH 1800 0
DWIDTH 18 0
BBX 15 15 1 -2
BITMAP
3EFC
0204
0204
0204
0204
0204
0204
FFFE
0000
0FE0
1818
2004
2004
1818
07E0
ENDCHAR
STARTCHAR B05D
ENCODING 13089
SWIDTH 1800 0
DWIDTH 18 0
BBX 15 15 1 -2
BITMAP
3EFC
0204
0204
0204
0204
0204
FFFE
0000
0000
1FFC
1000
1FFC
1000
1000
1FFC
ENDCHAR
STARTCHAR B07C
ENCODING 13090
SWIDTH 1800 0
DWIDTH 18 0
BBX 13 15 3 -2
BITMAP
F788
1088
1088
1088
1088
1088
1088
1088
1088
2088
6108
C108
8208
0008
0008
ENDCHAR
STARTCHAR B07D
ENCODING 13091
SWIDTH 1800 0
DWIDTH 18 0
BBX 14 16 2 -3
BITMAP
FBC4
0844
0844
0844
0844
1084
2184
C304
0004
0000
3FFC
0004
0004
0004
0004
0004
ENDCHAR
STARTCHAR B080
ENCODING 13092
SWIDTH 1800 0
DWIDTH 18 0
BBX 14 15 2 -2
BITMAP
FBC4
0844
0844
0844
0844
1844
1084
6184
C304
0004
2004
2000
2000
2000
3FFC
ENDCHAR
STARTCHAR B084
ENCODING 13093
SWIDTH 1800 0
DWIDTH 18 0
BBX 14 15 2 -2
BITMAP
FBC4
0844
0844
0844
1844
1084
6184
C304
0000
3FFC
0004
1FFC
3000
3000
1FFC
ENDCHAR
STARTCHAR B08C
ENCODING 13094
SWIDTH 1800 0
DWIDTH 18 0
BBX 14 15 2 -2
BITMAP
FBC4
0844
0844
0844
1844
1084
2184
C304
0000
1FFC
1004
1004
1004
1004
1FFC
ENDCHAR
STARTCHAR B08D
ENCODING 13095
SWIDTH 1800 0
DWIDTH 18 0
BBX 14 15 2 -2
BITMAP
FBC4
0844
0844
0844
0844
1084
6184
C304
0000
2004
2004
3FFC
2004
2004
3FFC
ENDCHAR
STARTCHAR B08F
ENCODING 13096
SWIDTH 1800 0
DWIDTH 18 0
BBX 14 15 2 -2
BITMAP
FBC8
0848
0848
0848
0848
1088
3088
6108
8208
0008
0100
0280
0640
1830
F00C
ENDCHAR
STARTCHAR B091
ENCODING 13097
SWIDTH 1800 0
DWIDTH 18 0
BBX 14 15 2 -2
BITMAP
FBC4
0844
0844
0844
0844
10C4
3084
C304
0004
0FE4
1818
2004
2004
1818
07E0
ENDCHAR
STARTCHAR B098
ENCODING 13098
SWIDTH 1800 0
DWIDTH 18 0
BBX 15 16 2 -2
BITMAP
8010
8010
8010
8010
8010
8010
8010
801E
8010
8010
8030
7FF0
0010
0010
0010
0010
ENDCHAR
STARTCHAR B099
ENCODING 13099
SWIDTH 1800 0
DWIDTH 18 0
BBX 16 17 1 -3
BITMAP
8008
8008
8008
8008
800F
8008
8018
FFE8
0008
0008
0000
7FF8
0008
0008
0008
0008
0008
ENDCHAR
STARTCHAR B09A
ENCODING 13100
SWIDTH 1800 0
DWIDTH 18 0
BBX 16 16 1 -2
BITMAP
0008
8008
8008
8008
800F
8008
8018
FFE8
0008
0008
FDF8
0408
0408
0408
0408
0408
ENDCHAR
STARTCHAR B09C
ENCODING 13101
SWIDTH 1800 0
DWIDTH 18 0
BBX 16 15 1 -2
BITMAP
8008
8008
8008
8008
800F
8008
83F8
FC08
0008
0008
4000
4000
4000
4000
7FF8
ENDCHAR
STARTCHAR B09F
ENCODING 13102
SWIDTH 1800 0
DWIDTH 18 0
BBX 16 15 1 -2
BITMAP
8008
8008
8008
800F
8008
8008
FFF8
0008
0008
7FF8
4000
4000
4000
4000
7FF8
ENDCHAR
STARTCHAR B0A0
ENCODING 13103
SWIDTH 1800 0
DWIDTH 18 0
BBX 16 15 1 -2
BITMAP
8008
8008
8008
800F
8008
83F8
FC08
0000
7FF8
0008
0008
3FF8
2000
2000
3FFC
ENDCHAR
STARTCHAR B0A1
ENCODING 13104
SWIDTH 1800 0
DWIDTH 18 0
BBX 16 15 1 -2
BITMAP
8008
8008
8008
800F
8008
83F8
FC08
0000
0000
7DF8
0408
7C08
4008
4008
7E08
ENDCHAR
STARTCHAR B0A2
ENCODING 13105
SWIDTH 1800 0
DWIDTH 18 0
BBX 16 15 1 -2
BITMAP
8008
8008
8008
800F
8008
83F8
FC08
0008
0000
7CF8
0488
7C88
C088
C088
7E78
ENDCHAR
STARTCHAR B0A8
ENCODING 13106
SWIDTH 1800 0
DWIDTH 18 0
BBX 16 15 1 -2
BITMAP
8008
8008
8008
800F
8008
8008
FFF8
0008
0008
7FF8
4008
4008
4008
4008
7FF0
ENDCHAR
STARTCHAR B0A9
ENCODING 13107
SWIDTH 1800 0
DWIDTH 18 0
BBX 16 15 1 -2
BITMAP
8008
8008
8008
800F
8008
8008
FFF8
0008
0000
2008
2008
3FF8
2008
2008
3FF8
ENDCHAR
STARTCHAR B0AB
ENCODING 13108
SWIDTH 1800 0
DWIDTH 18 0
BBX 16 16 1 -2
BITMAP
8000
8008
8008
8008
8008
800F
8008
FFF8
0008
0008
0008
0180
0280
0640
1830
600C
ENDCHAR
STARTCHAR B0AC
ENCODING 13109
SWIDTH 1800 0
DWIDTH 18 0
BBX 16 15 1 -2
BITMAP
8008
8008
8008
800F
8008
8008
FFF8
0008
0008
1020
1030
1830
2850
46CC
8304
ENDCHAR
STARTCHAR B0AD
ENCODING 13110
SWIDTH 1800 0
DWIDTH 18 0
BBX 16 16 1 -2
BITMAP
8000
8008
8008
8008
800F
8008
8008
FFF8
0008
0008
1FC0
3030
4008
4008
3030
0FC0
ENDCHAR
STARTCHAR B0AE
ENCODING 13111
SWIDTH 1800 0
DWIDTH 18 0
BBX 16 15 1 -2
BITMAP
8008
8008
8008
800F
8008
8018
FFE8
0008
0008
FFF8
0300
0700
0C80
3070
C018
ENDCHAR
STARTCHAR B0AF
ENCODING 13112
SWIDTH 1800 0
DWIDTH 18 0
BBX 16 15 1 -2
BITMAP
8008
8008
8008
800F
8008
8018
FFE8
0008
0F88
0000
FFF8
0300
0D80
7070
C018
ENDCHAR
STARTCHAR B0B1
ENCODING 13113
SWIDTH 1800 0
DWIDTH 18 0
BBX 16 15 1 -2
BITMAP
8008
8008
8008
800F
8008
8008
FFF8
0008
0000
3FF8
2000
3FF8
2000
2000
3FFC
ENDCHAR
STARTCHAR B0B3
ENCODING 13114
SWIDTH 1800 0
DWIDTH 18 0
BBX 16 15 1 -2
BITMAP
8008
8008
8008
800F
8008
8008
FFF8
0008
0FC8
0000
7FFC
0000
3FF0
6008
1FF0
ENDCHAR
STARTCHAR B0B4
ENCODING 13115
SWIDTH 1800 0
DWIDTH 18 0
BBX 12 15 3 -2
BITMAP
8110
8110
8110
8110
8110
8110
81F0
8110
8110
8110
FF10
0110
0110
0110
0110
ENDCHAR
STARTCHAR B0B5
ENCODING 13116
SWIDTH 1800 0
DWIDTH 18 0
BBX 12 16 3 -3
BITMAP
8090
8090
8090
8090
80F0
8090
8090
FF90
0090
0010
FFF0
0010
0010
0010
0010
0010
ENDCHAR
STARTCHAR B0B8
ENCODING 13117
SWIDTH 1800 0
DWIDTH 18 0
BBX 14 16 2 -2
BITMAP
8080
8088
8088
8088
8088
80F8
8088
8088
FF88
0088
0088
2088
2000
2000
2000
3FFC
ENDCHAR
STARTCHAR B0BC
ENCODING 13118
SWIDTH 1800 0
DWIDTH 18 0
BBX 14 15 2 -2
BITMAP
8088
8088
8088
80F8
8088
8088
FF88
0088
0000
3FF8
0008
3FF8
2000
2000
3FFC
ENDCHAR
STARTCHAR B0C4
ENCODING 13119
SWIDTH 1800 0
DWIDTH 18 0
BBX 14 16 2 -2
BITMAP
0080
8088
8088
8088
80F8
8088
8088
FF88
0088
0008
3FFC
2004
2004
2004
2004
3FFC
ENDCHAR
STARTCHAR B0C5
ENCODING 13120
SWIDTH 1800 0
DWIDTH 18 0
BBX 12 15 3 -2
BITMAP
8090
8090
8090
80F0
8090
8090
FF90
0090
0000
4010
4010
7FF0
4010
4010
7FF0
ENDCHAR
STARTCHAR B0C7
ENCODING 13121
SWIDTH 1800 0
DWIDTH 18 0
BBX 14 15 2 -2
BITMAP
8088
8088
8088
8088
80F8
8088
8088
FF88
0088
0008
0100
0380
04C0
1870
E01C
ENDCHAR
STARTCHAR B0C8
ENCODING 13122
SWIDTH 1800 0
DWIDTH 18 0
BBX 14 16 2 -2
BITMAP
8080
8088
8088
8088
80F8
8088
8088
FF88
0088
0008
1020
1020
3030
6850
CC8C
8304
ENDCHAR
STARTCHAR B0C9
ENCODING 13123
SWIDTH 1800 0
DWIDTH 18 0
BBX 12 15 3 -2
BITMAP
8090
8090
8090
8090
80F0
8090
8090
FF90
0090
0010
3FC0
C070
8010
C030
3FC0
ENDCHAR
STARTCHAR B0D0
ENCODING 13124
SWIDTH 1800 0
DWIDTH 18 0
BBX 14 16 2 -2
BITMAP
8020
8020
8020
8020
803C
8020
8020
8020
8020
803C
80E0
FF20
0020
0020
0020
0020
ENDCHAR
STARTCHAR B0D1
ENCODING 13125
SWIDTH 1800 0
DWIDTH 18 0
BBX 16 17 1 -3
BITMAP
8000
8008
8008
800F
8008
8008
8008
7FFF
0008
0008
0000
7FF8
0008
0008
0008
0008
0008
ENDCHAR
STARTCHAR B0D4
ENCODING 13126
SWIDTH 1800 0
DWIDTH 18 0
BBX 16 15 1 -2
BITMAP
8008
8008
8008
800F
8008
8008
8008
7FFF
0008
0008
2008
2000
2000
2000
3FFC
ENDCHAR
STARTCHAR B0D8
ENCODING 13127
SWIDTH 1800 0
DWIDTH 18 0
BBX 16 15 1 -2
BITMAP
8008
8008
800F
8008
8008
81FF
7E08
0008
7FF8
0008
0008
7FF8
4000
4000
7FF8
ENDCHAR
STARTCHAR B0E0
ENCODING 13128
SWIDTH 1800 0
DWIDTH 18 0
BBX 16 15 1 -2
BITMAP
8008
8008
800F
8008
8008
800F
7FF8
0008
0008
3FF8
2008
2008
2008
2008
3FF8
ENDCHAR
STARTCHAR B0E5
ENCODING 13129
SWIDTH 1800 0
DWIDTH 18 0
BBX 16 15 1 -2
BITMAP
8008
8008
800F
8008
8008
800F
81F8
7E08
0008
1FC0
3030
4008
4008
3030
0FC0
ENDCHAR
STARTCHAR B108
ENCODING 13130
SWIDTH 1800 0
DWIDTH 18 0
BBX 12 15 3 -2
BITMAP
8010
8010
8010
8010
8010
83F0
8010
8010
8010
8010
8390
7E10
0010
0010
0010
ENDCHAR
STARTCHAR B109
ENCODING 13131
SWIDTH 1800 0
DWIDTH 18 0
BBX 13 16 2 -3
BITMAP
8008
8008
8008
81F8
8008
8008
8188
7E08
0008
0000
7FF8
0008
0008
0008
0008
0008
ENDCHAR
STARTCHAR B10B
ENCODING 13132
SWIDTH 1800 0
DWIDTH 18 0
BBX 14 15 2 -2
BITMAP
8008
8008
8008
81F8
8008
8008
CF88
3008
0008
FC20
0420
0430
0450
0488
0504
ENDCHAR
STARTCHAR B10C
ENCODING 13133
SWIDTH 1800 0
DWIDTH 18 0
BBX 14 16 2 -2
BITMAP
0008
8008
8008
8008
81F8
8008
8008
8008
FF88
0008
0008
2008
2000
2000
2000
3FFC
ENDCHAR
STARTCHAR B110
ENCODING 13134
SWIDTH 1800 0
DWIDTH 18 0
BBX 14 16 2 -2
BITMAP
0008
8008
8008
81F8
8008
8008
8088
FF08
0008
0000
3FF8
0008
3FF8
2000
2000
3FFC
ENDCHAR
STARTCHAR B112
ENCODING 13135
SWIDTH 1800 0
DWIDTH 18 0
BBX 14 16 2 -2
BITMAP
0008
8008
8008
81F8
8008
8008
8008
CF88
3008
0000
7CFC
0484
7C84
C084
C084
7E7C
ENDCHAR
STARTCHAR B113
ENCODING 13136
SWIDTH 1800 0
DWIDTH 18 0
BBX 14 16 2 -2
BITMAP
0004
8004
8004
80FC
8004
8004
8084
FF04
0000
0084
7C84
04FC
7C84
4084
4084
7EFC
ENDCHAR
STARTCHAR B118
ENCODING 13137
SWIDTH 1800 0
DWIDTH 18 0
BBX 14 15 2 -2
BITMAP
8004
8004
8004
80FC
8004
8004
C784
7C04
0004
3FF8
2008
2008
2008
2008
3FF8
ENDCHAR
STARTCHAR B119
ENCODING 13138
SWIDTH 1800 0
DWIDTH 18 0
BBX 14 15 2 -2
BITMAP
8004
8004
8004
80FC
8004
8004
CF84
3004
0000
2004
2004
3FFC
2004
2004
3FFC
ENDCHAR
STARTCHAR B11B
ENCODING 13139
SWIDTH 1800 0
DWIDTH 18 0
BBX 14 16 2 -2
BITMAP
0004
8004
8004
8004
80FC
8004
8004
8004
FF84
0004
0004
0300
0380
04C0
1830
601C
ENDCHAR
STARTCHAR B11C
ENCODING 13140
SWIDTH 1800 0
DWIDTH 18 0
BBX 14 15 2 -2
BITMAP
8008
8008
8008
81F8
8008
8008
8088
FF88
0008
1020
1020
3030
6850
CC8C
8304
ENDCHAR
STARTCHAR B11D
ENCODING 13141
SWIDTH 1800 0
DWIDTH 18 0
BBX 14 15 2 -2
BITMAP
8004
8004
8004
80FC
8004
8004
8084
FF04
0004
1FC0
3030
4008
4008
3030
0FC0
ENDCHAR
STARTCHAR B123
ENCODING 13142
SWIDTH 1800 0
DWIDTH 18 0
BBX 14 16 2 -2
BITMAP
0008
8008
8008
81F8
8008
8008
8088
FF08
0008
0FC0
0000
7FFC
0000
3FF0
6008
1FF0
ENDCHAR
STARTCHAR B124
ENCODING 13143
SWIDTH 1800 0
DWIDTH 18 0
BBX 12 15 3 -2
BITMAP
8110
8110
8110
8110
8110
9F10
8110
8110
8110
8110
8710
F910
0110
0110
0110
ENDCHAR
STARTCHAR B125
ENCODING 13144
SWIDTH 1800 0
DWIDTH 18 0
BBX 12 17 3 -3
BITMAP
0010
8090
8090
8090
8F90
8090
8090
8090
FE90
0090
0000
FFF0
0010
0010
0010
0010
0010
ENDCHAR
STARTCHAR B128
ENCODING 13145
SWIDTH 1800 0
DWIDTH 18 0
BBX 14 15 2 -2
BITMAP
8048
8048
8048
87C8
8048
8048
8048
FE48
0048
0048
2048
2000
2000
2000
3FFC
ENDCHAR
STARTCHAR B12C
ENCODING 13146
SWIDTH 1800 0
DWIDTH 18 0
BBX 14 15 2 -2
BITMAP
8048
8048
87C8
8048
8048
8048
FE48
0048
0008
3FF8
0008
3FF8
2000
2000
3FFC
ENDCHAR
STARTCHAR B134
ENCODING 13147
SWIDTH 1800 0
DWIDTH 18 0
BBX 12 16 3 -2
BITMAP
0080
8090
8090
8790
8090
8090
8090
8090
FE90
0010
7FF0
4010
4010
4010
4010
7FF0
ENDCHAR
STARTCHAR B135
ENCODING 13148
SWIDTH 1800 0
DWIDTH 18 0
BBX 12 16 3 -2
BITMAP
0090
8090
8090
8F90
8090
8090
8090
FE90
0090
0000
4010
4010
7FF0
4010
4010
7FF0
ENDCHAR
STARTCHAR B137
ENCODING 13149
SWIDTH 1800 0
DWIDTH 18 0
BBX 14 15 2 -2
BITMAP
8088
8088
8088
8F88
8088
8088
8088
FE88
0088
0088
0300
0300
0480
1860
E01C
ENDCHAR
STARTCHAR B138
ENCODING 13150
SWIDTH 1800 0
DWIDTH 18 0
BBX 14 16 2 -2
BITMAP
0008
8048
8048
8048
87C8
8048
8048
8048
FE48
0040
1020
1020
3030
6850
CC8C
8304
ENDCHAR
STARTCHAR B139
ENCODING 13151
SWIDTH 1800 0
DWIDTH 18 0
BBX 12 15 3 -2
BITMAP
8090
8090
8090
8F90
8090
8090
8290
7C90
0090
3F90
6060
8010
8010
6060
1F80
ENDCHAR
STARTCHAR B140
ENCODING 13152
SWIDTH 1800 0
DWIDTH 18 0
BBX 12 16 3 -3
BITMAP
8010
8010
8010
83F0
8010
8010
8010
83F0
8010
8010
8390
FE10
0010
0010
0010
0010
ENDCHAR
STARTCHAR B141
ENCODING 13153
SWIDTH 1800 0
DWIDTH 18 0
BBX 12 16 3 -3
BITMAP
8010
8010
81F0
8010
81F0
8010
8010
FF10
0010
0000
FFF0
0010
0010
0010
0010
0010
ENDCHAR
STARTCHAR B144
ENCODING 13154
SWIDTH 1800 0
DWIDTH 18 0
BBX 14 15 2 -2
BITMAP
8008
8008
80F8
8008
8008
80F8
8008
8008
FF08
0008
2008
2000
2000
2000
3FFC
ENDCHAR
STARTCHAR B148
ENCODING 13155
SWIDTH 1800 0
DWIDTH 18 0
BBX 14 16 2 -2
BITMAP
8000
8008
8008
80F8
8008
80F8
8008
FF08
0008
0000
3FF8
0008
3FF8
2000
2000
3FFC
ENDCHAR
STARTCHAR B150
ENCODING 13156
SWIDTH 1800 0
DWIDTH 18 0
BBX 14 16 2 -2
BITMAP
8000
8008
8008
80F8
8008
80F8
8008
FF08
0008
0000
3FFC
2004
2004
2004
2004
3FFC
ENDCHAR
STARTCHAR B151
ENCODING 13157
SWIDTH 1800 0
DWIDTH 18 0
BBX 12 16 3 -2
BITMAP
8000
8010
8010
81F0
8010
81F0
8010
FF10
0010
0000
4010
4010
7FF0
4010
4010
7FF0
ENDCHAR
STARTCHAR B154
ENCODING 13158
SWIDTH 1800 0
DWIDTH 18 0
BBX 14 15 2 -2
BITMAP
8008
8008
80F8
8008
80F8
8008
8008
FF08
0000
0020
1020
3030
3850
4CD8
878C
ENDCHAR
STARTCHAR B155
ENCODING 13159
SWIDTH 1800 0
DWIDTH 18 0
BBX 12 15 3 -2
BITMAP
8010
8010
81F0
8010
81F0
8010
8010
FF10
0010
3F80
6060
8010
8010
6060
1F80
ENDCHAR
STARTCHAR B158
ENCODING 13160
SWIDTH 1800 0
DWIDTH 18 0
BBX 12 15 3 -2
BITMAP
8010
8010
81F0
8010
81F0
8010
8010
FF10
0000
0000
FFF0
0010
FFF0
0010
0010
ENDCHAR
STARTCHAR B15C
ENCODING 13161
SWIDTH 1800 0
DWIDTH 18 0
BBX 12 15 3 -2
BITMAP
8110
8110
8110
9F10
8110
8110
8110
9F10
8110
8110
8710
F910
0110
0110
0110
ENDCHAR
STARTCHAR B160
ENCODING 13162
SWIDTH 1800 0
DWIDTH 18 0
BBX 14 15 2 -2
BITMAP
8048
8048
87C8
8048
8048
87C8
8048
FC48
0048
0048
2048
2008
2000
2000
3FFC
ENDCHAR
STARTCHAR B178
ENCODING 13163
SWIDTH 1800 0
DWIDTH 18 0
BBX 15 14 1 -1
BITMAP
2000
2000
2000
2000
2000
2000
2000
3FFC
0000
0100
0100
0100
0100
FFFE
ENDCHAR
STARTCHAR B179
ENCODING 13164
SWIDTH 1800 0
DWIDTH 18 0
BBX 15 17 1 -3
BITMAP
2000
2000
2000
2000
2000
3FFC
0100
0100
FFFE
0000
0000
3FFC
0004
0004
0004
0004
0004
ENDCHAR
STARTCHAR B17C
ENCODING 13165
SWIDTH 1800 0
DWIDTH 18 0
BBX 15 15 2 -2
BITMAP
4000
4000
4000
4000
4000
7FFC
0100
0100
FFFE
0000
4000
4000
4000
4000
7FF8
ENDCHAR
STARTCHAR B180
ENCODING 13166
SWIDTH 1800 0
DWIDTH 18 0
BBX 14 15 2 -2
BITMAP
4000
4000
4000
4000
3FF8
0100
FFFC
0000
0000
7FF8
0008
7FF8
4000
4000
7FF8
ENDCHAR
STARTCHAR B182
ENCODING 13167
SWIDTH 1800 0
DWIDTH 18 0
BBX 15 15 2 -2
BITMAP
4000
4000
4000
4000
7FFC
0100
0100
FFFE
0000
7CF8
0488
7C88
4088
4088
7EF8
ENDCHAR
STARTCHAR B188
ENCODING 13168
SWIDTH 1800 0
DWIDTH 18 0
BBX 15 16 2 -2
BITMAP
4000
4000
4000
4000
4000
7FFC
0100
0100
FFFE
0000
7FF8
4008
4008
4008
4008
7FF8
ENDCHAR
STARTCHAR B189
ENCODING 13169
SWIDTH 1800 0
DWIDTH 18 0
BBX 15 15 2 -2
BITMAP
4000
4000
4000
4000
7FF8
0100
0100
FFFE
0000
4008
4008
7FF8
4008
4008
7FF8
ENDCHAR
STARTCHAR B18B
ENCODING 13170
SWIDTH 1800 0
DWIDTH 18 0
BBX 15 16 2 -2
BITMAP
4000
4000
4000
4000
4000
7FF8
0100
0100
FFFE
0000
0000
0300
0380
04C0
1860
E01C
ENDCHAR
STARTCHAR B18D
ENCODING 13171
SWIDTH 1800 0
DWIDTH 18 0
BBX 15 16 2 -2
BITMAP
4000
4000
4000
4000
4000
7FFC
0100
0100
FFFE
0000
0000
1FC0
6030
4008
6018
1FE0
ENDCHAR
STARTCHAR B192
ENCODING 13172
SWIDTH 1800 0
DWIDTH 18 0
BBX 15 16 2 -2
BITMAP
4000
4000
4000
4000
4000
7FFC
0100
0100
FFFE
0000
0000
7FF8
1020
1020
1020
FFFC
ENDCHAR
STARTCHAR B193
ENCODING 13173
SWIDTH 1800 0
DWIDTH 18 0
BBX 15 16 2 -3
BITMAP
4000
4000
4000
4000
7FF8
0100
FFFE
0000
0FC0
0000
7FF8
0000
1FE0
2018
2018
1FE0
ENDCHAR
STARTCHAR B194
ENCODING 13174
SWIDTH 1800 0
DWIDTH 18 0
BBX 16 15 1 -2
BITMAP
2008
2008
2008
2008
2008
2008
3FC8
000F
0408
0408
0438
FFE8
0008
0008
0008
ENDCHAR
STARTCHAR B198
ENCODING 13175
SWIDTH 1800 0
DWIDTH 18 0
BBX 16 16 1 -2
BITMAP
4004
4004
4004
4004
4004
7FC4
0407
0404
0404
FFFC
0004
2004
2004
2000
2000
3FFC
ENDCHAR
STARTCHAR B19C
ENCODING 13176
SWIDTH 1800 0
DWIDTH 18 0
BBX 16 15 1 -2
BITMAP
400C
400C
400C
400C
7FEF
060C
07FC
FE0C
0000
3FFC
0004
3FFC
2000
2000
3FFC
ENDCHAR
STARTCHAR B1A8
ENCODING 13177
SWIDTH 1800 0
DWIDTH 18 0
BBX 16 15 1 -2
BITMAP
4004
4004
4004
4004
7FC7
0404
04FC
FF04
0000
1810
1818
1818
3C2C
6666
0182
ENDCHAR
ENDFONT
